<?xml version="1.0" encoding="utf-8"?>
<!-- Generator: Adobe Illustrator 19.0.0, SVG Export Plug-In . SVG Version: 6.00 Build 0)  -->
<svg version="1.1" id="Layer_4" xmlns="http://www.w3.org/2000/svg" xmlns:xlink="http://www.w3.org/1999/xlink" x="0px" y="0px"
	 viewBox="0 0 3000 2500" style="enable-background:new 0 0 3000 2500;" xml:space="preserve">
<style type="text/css">
	.st0{filter:url(#Adobe_OpacityMaskFilter);}
	.st1{filter:url(#Adobe_OpacityMaskFilter_1_);}
	.st2{mask:url(#SVGID_1_);fill:url(#SVGID_2_);}
	.st3{opacity:0.26;fill:url(#SVGID_3_);}
	.st4{filter:url(#Adobe_OpacityMaskFilter_2_);}
	.st5{filter:url(#Adobe_OpacityMaskFilter_3_);}
	.st6{mask:url(#SVGID_4_);fill:url(#SVGID_5_);}
	.st7{opacity:0.26;fill:url(#SVGID_6_);}
	.st8{filter:url(#Adobe_OpacityMaskFilter_4_);}
	.st9{filter:url(#Adobe_OpacityMaskFilter_5_);}
	.st10{mask:url(#SVGID_7_);fill:url(#SVGID_8_);}
	.st11{opacity:0.26;fill:url(#SVGID_9_);}
	.st12{enable-background:new    ;}
	.st13{fill:#C18C4D;}
	.st14{fill:#EFC49A;}
	.st15{fill:#9B6B2C;}
	.st16{fill:#D3A479;}
	.st17{fill:#775124;}
	.st18{opacity:0.26;fill:url(#SVGID_10_);}
	.st19{fill:#EFAE52;}
	.st20{fill:#FFD097;}
	.st21{fill:#D3993C;}
	.st22{opacity:0.67;}
	.st23{fill:#FFFFFF;}
	.st24{opacity:0.5;fill:#FFFFFF;}
	.st25{fill:#AA7322;}
	.st26{fill:url(#SVGID_11_);}
	.st27{fill:url(#SVGID_12_);}
	.st28{fill:url(#SVGID_13_);}
	.st29{fill:url(#SVGID_14_);}
	.st30{fill:url(#SVGID_15_);}
	.st31{fill:url(#SVGID_16_);}
	.st32{fill:#C7C9C7;}
	.st33{fill:url(#SVGID_17_);}
	.st34{fill:url(#SVGID_18_);}
	.st35{fill:url(#SVGID_19_);}
	.st36{fill:url(#SVGID_20_);}
	.st37{fill:url(#SVGID_21_);}
	.st38{fill:url(#SVGID_22_);}
	.st39{fill:url(#SVGID_23_);}
	.st40{fill:url(#SVGID_24_);}
	.st41{fill:url(#SVGID_25_);}
	.st42{fill:url(#SVGID_26_);}
	.st43{fill:url(#SVGID_27_);}
	.st44{fill:url(#SVGID_28_);}
	.st45{fill:url(#SVGID_29_);}
	.st46{fill:url(#SVGID_30_);}
	.st47{fill:url(#SVGID_31_);}
	.st48{fill:url(#SVGID_32_);}
	.st49{fill:none;stroke:#A2A3A2;stroke-width:9;stroke-miterlimit:10;}
	.st50{fill:none;stroke:#C6C6C6;stroke-width:9;stroke-miterlimit:10;}
	.st51{fill:url(#SVGID_33_);}
	.st52{fill:url(#SVGID_34_);}
	.st53{fill:url(#SVGID_35_);}
	.st54{fill:url(#SVGID_36_);}
	.st55{fill:url(#SVGID_37_);}
	.st56{fill:url(#SVGID_38_);}
	.st57{fill:url(#SVGID_39_);}
	.st58{fill:url(#SVGID_40_);}
	.st59{fill:url(#SVGID_41_);}
	.st60{fill:url(#SVGID_42_);}
</style>
<g>
	<defs>
		<filter id="Adobe_OpacityMaskFilter" filterUnits="userSpaceOnUse" x="265.1" y="2034.5" width="518.9" height="182.9">
			<feFlood  style="flood-color:white;flood-opacity:1" result="back"/>
			<feBlend  in="SourceGraphic" in2="back" mode="normal"/>
		</filter>
	</defs>
	<mask maskUnits="userSpaceOnUse" x="265.1" y="2034.5" width="518.9" height="182.9" id="SVGID_1_">
		<g class="st0">
			<defs>
				<filter id="Adobe_OpacityMaskFilter_1_" filterUnits="userSpaceOnUse" x="265.1" y="2034.5" width="518.9" height="182.9">
					<feFlood  style="flood-color:white;flood-opacity:1" result="back"/>
					<feBlend  in="SourceGraphic" in2="back" mode="normal"/>
				</filter>
			</defs>
			<mask maskUnits="userSpaceOnUse" x="265.1" y="2034.5" width="518.9" height="182.9" id="SVGID_1_">
				<g class="st1">
				</g>
			</mask>
			<linearGradient id="SVGID_2_" gradientUnits="userSpaceOnUse" x1="449.7802" y1="2068.3337" x2="646.6978" y2="2219.8882">
				<stop  offset="0" style="stop-color:#FFFFFF"/>
				<stop  offset="1" style="stop-color:#1A1A1A"/>
			</linearGradient>
			<ellipse class="st2" cx="524.6" cy="2125.9" rx="259.4" ry="91.4"/>
		</g>
	</mask>
	<linearGradient id="SVGID_3_" gradientUnits="userSpaceOnUse" x1="449.7802" y1="2068.3337" x2="646.6978" y2="2219.8882">
		<stop  offset="0" style="stop-color:#303030"/>
		<stop  offset="1" style="stop-color:#231A1A"/>
	</linearGradient>
	<ellipse class="st3" cx="524.6" cy="2125.9" rx="259.4" ry="91.4"/>
	<defs>
		<filter id="Adobe_OpacityMaskFilter_2_" filterUnits="userSpaceOnUse" x="636.6" y="1484.6" width="977.2" height="459.7">
			<feFlood  style="flood-color:white;flood-opacity:1" result="back"/>
			<feBlend  in="SourceGraphic" in2="back" mode="normal"/>
		</filter>
	</defs>
	<mask maskUnits="userSpaceOnUse" x="636.6" y="1484.6" width="977.2" height="459.7" id="SVGID_4_">
		<g class="st4">
			<defs>
				<filter id="Adobe_OpacityMaskFilter_3_" filterUnits="userSpaceOnUse" x="636.6" y="1484.6" width="977.2" height="459.7">
					<feFlood  style="flood-color:white;flood-opacity:1" result="back"/>
					<feBlend  in="SourceGraphic" in2="back" mode="normal"/>
				</filter>
			</defs>
			<mask maskUnits="userSpaceOnUse" x="636.6" y="1484.6" width="977.2" height="459.7" id="SVGID_4_">
				<g class="st5">
				</g>
			</mask>
			<linearGradient id="SVGID_5_" gradientUnits="userSpaceOnUse" x1="996.6289" y1="1665.3925" x2="1335.2366" y2="1925.9965">
				<stop  offset="0" style="stop-color:#FFFFFF"/>
				<stop  offset="1" style="stop-color:#1A1A1A"/>
			</linearGradient>
			<polygon class="st6" points="1196.8,1484.6 1613.8,1730.2 1346.6,1916.3 927.8,1944.3 636.6,1798.5 			"/>
		</g>
	</mask>
	<linearGradient id="SVGID_6_" gradientUnits="userSpaceOnUse" x1="996.6289" y1="1665.3925" x2="1335.2366" y2="1925.9965">
		<stop  offset="0" style="stop-color:#303030"/>
		<stop  offset="1" style="stop-color:#231A1A"/>
	</linearGradient>
	<polygon class="st7" points="1196.8,1484.6 1613.8,1730.2 1346.6,1916.3 927.8,1944.3 636.6,1798.5 	"/>
	<defs>
		<filter id="Adobe_OpacityMaskFilter_4_" filterUnits="userSpaceOnUse" x="945.4" y="956.9" width="1809.2" height="694.5">
			<feFlood  style="flood-color:white;flood-opacity:1" result="back"/>
			<feBlend  in="SourceGraphic" in2="back" mode="normal"/>
		</filter>
	</defs>
	<mask maskUnits="userSpaceOnUse" x="945.4" y="956.9" width="1809.2" height="694.5" id="SVGID_7_">
		<g class="st8">
			<defs>
				<filter id="Adobe_OpacityMaskFilter_5_" filterUnits="userSpaceOnUse" x="945.4" y="956.9" width="1809.2" height="694.5">
					<feFlood  style="flood-color:white;flood-opacity:1" result="back"/>
					<feBlend  in="SourceGraphic" in2="back" mode="normal"/>
				</filter>
			</defs>
			<mask maskUnits="userSpaceOnUse" x="945.4" y="956.9" width="1809.2" height="694.5" id="SVGID_7_">
				<g class="st9">
				</g>
			</mask>
			<linearGradient id="SVGID_8_" gradientUnits="userSpaceOnUse" x1="1590.7148" y1="966.9013" x2="2273.5889" y2="1492.4642">
				<stop  offset="0" style="stop-color:#FFFFFF"/>
				<stop  offset="1" style="stop-color:#1A1A1A"/>
			</linearGradient>
			<polygon class="st10" points="977.3,1105 2337.6,956.9 2495.9,1035.3 2754.6,1202.6 2010.2,1651.4 1723.3,1593.8 945.4,1130.4 
							"/>
		</g>
	</mask>
	<linearGradient id="SVGID_9_" gradientUnits="userSpaceOnUse" x1="1590.7148" y1="966.9013" x2="2273.5889" y2="1492.4642">
		<stop  offset="0" style="stop-color:#303030"/>
		<stop  offset="1" style="stop-color:#231A1A"/>
	</linearGradient>
	<polygon class="st11" points="977.3,1105 2337.6,956.9 2495.9,1035.3 2754.6,1202.6 2010.2,1651.4 1723.3,1593.8 945.4,1130.4 	"/>
	<g>
		<g>
			<g>
				<g>
					<g class="st12">
						<g>
							<polygon class="st13" points="1770.1,1565.5 1872.7,1504.6 1872.9,1478 1770.2,1538.9 							"/>
						</g>
						<g>
							<polygon class="st14" points="1770.2,1538.9 1872.9,1478 1080.2,1017.5 977.5,1078.4 							"/>
						</g>
						<g>
							<polygon class="st15" points="977.5,1078.4 977.3,1105 1770.1,1565.5 1770.2,1538.9 							"/>
						</g>
					</g>
				</g>
				<g>
					<g class="st12">
						<g>
							<polygon class="st13" points="2393.1,1209.8 2495.8,1148.9 2495.9,1122.3 2393.2,1183.2 							"/>
						</g>
						<g>
							<polygon class="st14" points="2393.2,1183.2 2495.9,1122.3 1703.2,661.8 1600.5,722.7 							"/>
						</g>
						<g>
							<polygon class="st15" points="1600.5,722.7 1600.3,749.3 2393.1,1209.8 2393.2,1183.2 							"/>
						</g>
					</g>
				</g>
				<g>
					<g class="st12">
						<g>
							<polygon class="st13" points="1771.1,1543.8 1713.5,1509.5 1713.3,1383.3 1770.9,1417.6 							"/>
						</g>
						<g>
							<polygon class="st16" points="1770.9,1417.6 1713.3,1383.3 2438.3,963.8 2495.9,998.1 							"/>
						</g>
						<g>
							<polygon class="st17" points="2495.9,998.1 2496.1,1124.3 1771.1,1543.8 1770.9,1417.6 							"/>
						</g>
					</g>
				</g>
				<g>
					<g class="st12">
						<g>
							<polygon class="st13" points="1403.1,1328.7 1345.5,1294.4 1345.3,1168.3 1403,1202.6 							"/>
						</g>
						<g>
							<polygon class="st16" points="1403,1202.6 1345.3,1168.3 2070.3,748.8 2127.9,783.1 							"/>
						</g>
						<g>
							<polygon class="st17" points="2127.9,783.1 2128.1,909.2 1403.1,1328.7 1403,1202.6 							"/>
						</g>
					</g>
				</g>
				<g>
					<g class="st12">
						<g>
							<polygon class="st13" points="1035.1,1113.6 977.5,1079.4 977.3,953.2 1035,987.5 							"/>
						</g>
						<g>
							<polygon class="st16" points="1035,987.5 977.3,953.2 1702.3,533.7 1759.9,568 							"/>
						</g>
						<g>
							<polygon class="st17" points="1759.9,568 1760.1,694.2 1035.1,1113.6 1035,987.5 							"/>
						</g>
					</g>
				</g>
				<g>
					<g class="st12">
						<g>
							<polygon class="st13" points="1770.1,1417.6 1872.7,1356.7 1872.9,1330.2 1770.2,1391 							"/>
						</g>
						<g>
							<polygon class="st14" points="1770.2,1391 1872.9,1330.2 1080.2,869.7 977.5,930.6 							"/>
						</g>
						<g>
							<polygon class="st15" points="977.5,930.6 977.3,957.2 1770.1,1417.6 1770.2,1391 							"/>
						</g>
					</g>
				</g>
				<g>
					<g class="st12">
						<g>
							<polygon class="st13" points="1928.4,1328.7 2031,1267.8 2031.2,1241.2 1928.5,1302.1 							"/>
						</g>
						<g>
							<polygon class="st14" points="1928.5,1302.1 2031.2,1241.2 1238.5,780.8 1135.8,841.7 							"/>
						</g>
						<g>
							<polygon class="st15" points="1135.8,841.7 1135.6,868.3 1928.4,1328.7 1928.5,1302.1 							"/>
						</g>
					</g>
				</g>
				<g>
					<g class="st12">
						<g>
							<polygon class="st13" points="2086.6,1239.8 2189.3,1178.9 2189.5,1152.3 2086.8,1213.2 							"/>
						</g>
						<g>
							<polygon class="st14" points="2086.8,1213.2 2189.5,1152.3 1396.8,691.9 1294.1,752.8 							"/>
						</g>
						<g>
							<polygon class="st15" points="1294.1,752.8 1293.9,779.3 2086.6,1239.8 2086.8,1213.2 							"/>
						</g>
					</g>
				</g>
				<g>
					<g class="st12">
						<g>
							<polygon class="st13" points="2234.8,1150.9 2337.5,1090 2337.6,1063.4 2234.9,1124.3 							"/>
						</g>
						<g>
							<polygon class="st14" points="2234.9,1124.3 2337.6,1063.4 1544.9,602.9 1442.2,663.8 							"/>
						</g>
						<g>
							<polygon class="st15" points="1442.2,663.8 1442.1,690.4 2234.8,1150.9 2234.9,1124.3 							"/>
						</g>
					</g>
				</g>
				<g>
					<g class="st12">
						<g>
							<polygon class="st13" points="2393.1,1061.9 2495.8,1001.1 2495.9,974.5 2393.2,1035.3 							"/>
						</g>
						<g>
							<polygon class="st14" points="2393.2,1035.3 2495.9,974.5 1703.2,514 1600.5,574.9 							"/>
						</g>
						<g>
							<polygon class="st15" points="1600.5,574.9 1600.3,601.5 2393.1,1061.9 2393.2,1035.3 							"/>
						</g>
					</g>
				</g>
			</g>
			<g>
				
					<linearGradient id="SVGID_10_" gradientUnits="userSpaceOnUse" x1="13906.6836" y1="1109.365" x2="15009.2881" y2="1109.365" gradientTransform="matrix(-1 0 0 1 16144.8311 0)">
					<stop  offset="0" style="stop-color:#303030"/>
					<stop  offset="1" style="stop-color:#231A1A"/>
				</linearGradient>
				<polygon class="st18" points="2217.3,980 1421.1,884.4 1135.5,1034.4 1647.3,1334.3 2238.1,992 				"/>
				<g>
					<g>
						<g>
							<g class="st12">
								<g>
									<polygon class="st19" points="1771.8,974.3 1982.2,848.9 1982.2,628.8 1771.8,754.1 									"/>
								</g>
								<g>
									<polygon class="st20" points="1771.8,754.1 1982.2,628.8 1767,505.7 1556.6,631.1 									"/>
								</g>
								<g>
									<polygon class="st21" points="1556.6,631.1 1556.6,851.2 1771.8,974.3 1771.8,754.1 									"/>
								</g>
							</g>
						</g>
						<g class="st22">
							<polygon class="st23" points="1855.2,705.6 1898.8,679.6 1683.6,556.6 1640,582.5 							"/>
						</g>
						<polygon class="st24" points="1898.8,743.8 1855.2,769.8 1855.2,705.6 1898.8,679.6 						"/>
						<g>
							<polygon class="st24" points="1566.9,717.8 1610.6,743.8 1610.6,679.6 1566.9,653.6 							"/>
							<g>
								<path class="st23" d="M1574.2,679.2l29.2,17.1c1,0.6,1.9,0.3,1.9-0.8l0,0c0-1-0.8-2.4-1.9-3l-29.2-17.1
									c-1-0.6-1.9-0.3-1.9,0.8v0C1572.3,677.2,1573.1,678.6,1574.2,679.2z"/>
								<path class="st23" d="M1574.2,692l29.2,17.1c1,0.6,1.9,0.3,1.9-0.8l0,0c0-1-0.8-2.4-1.9-3l-29.2-17.1
									c-1-0.6-1.9-0.3-1.9,0.8l0,0C1572.3,690.1,1573.1,691.4,1574.2,692z"/>
								<path class="st23" d="M1574.2,704.8l29.2,17.1c1,0.6,1.9,0.3,1.9-0.8l0,0c0-1-0.8-2.4-1.9-3l-29.2-17.1
									c-1-0.6-1.9-0.3-1.9,0.8l0,0C1572.3,702.9,1573.1,704.2,1574.2,704.8z"/>
							</g>
						</g>
					</g>
					<g>
						<g>
							<g class="st12">
								<g>
									<polygon class="st25" points="1989.3,1099.8 2199.7,974.5 2199.7,754.3 1989.3,879.6 									"/>
								</g>
								<g>
									<polygon class="st20" points="1989.3,879.6 2199.7,754.3 1984.5,631.3 1774.1,756.6 									"/>
								</g>
								<g>
									<polygon class="st21" points="1774.1,756.6 1774.1,976.8 1989.3,1099.8 1989.3,879.6 									"/>
								</g>
							</g>
						</g>
						<g class="st22">
							<polygon class="st23" points="2072.7,831.1 2116.3,805.1 1901.1,682.1 1857.5,708.1 							"/>
						</g>
						<polygon class="st24" points="2116.3,869.3 2072.7,895.3 2072.7,831.1 2116.3,805.1 						"/>
						<g>
							<polygon class="st24" points="1784.4,843.3 1828.1,869.3 1828.1,805.1 1784.4,779.1 							"/>
							<g>
								<path class="st23" d="M1791.7,804.7l29.2,17.1c1,0.6,1.9,0.3,1.9-0.8l0,0c0-1-0.8-2.4-1.9-3l-29.2-17.1
									c-1-0.6-1.9-0.3-1.9,0.8l0,0C1789.8,802.8,1790.6,804.1,1791.7,804.7z"/>
								<path class="st23" d="M1791.7,817.6l29.2,17.1c1,0.6,1.9,0.3,1.9-0.8l0,0c0-1-0.8-2.4-1.9-3l-29.2-17.1
									c-1-0.6-1.9-0.3-1.9,0.8l0,0C1789.8,815.6,1790.6,816.9,1791.7,817.6z"/>
								<path class="st23" d="M1791.7,830.4l29.2,17.1c1,0.6,1.9,0.3,1.9-0.8l0,0c0-1-0.8-2.4-1.9-3l-29.2-17.1
									c-1-0.6-1.9-0.3-1.9,0.8l0,0C1789.8,828.4,1790.6,829.8,1791.7,830.4z"/>
							</g>
						</g>
					</g>
					<g>
						<g>
							<g class="st12">
								<g>
									<polygon class="st19" points="1557.8,1102.1 1768.2,976.7 1768.2,756.6 1557.8,881.9 									"/>
								</g>
								<g>
									<polygon class="st20" points="1557.8,881.9 1768.2,756.6 1553,633.5 1342.6,758.9 									"/>
								</g>
								<g>
									<polygon class="st21" points="1342.6,758.9 1342.6,979 1557.8,1102.1 1557.8,881.9 									"/>
								</g>
							</g>
						</g>
						<g class="st22">
							<polygon class="st23" points="1641.2,833.4 1684.8,807.4 1469.7,684.4 1426,710.3 							"/>
						</g>
						<polygon class="st24" points="1684.8,871.6 1641.2,897.6 1641.2,833.4 1684.8,807.4 						"/>
						<g>
							<polygon class="st24" points="1353,845.6 1396.6,871.6 1396.6,807.4 1353,781.4 							"/>
							<g>
								<path class="st23" d="M1360.2,807l29.2,17.1c1,0.6,1.9,0.3,1.9-0.8l0,0c0-1-0.8-2.4-1.9-3l-29.2-17.1
									c-1-0.6-1.9-0.3-1.9,0.8l0,0C1358.3,805.1,1359.2,806.4,1360.2,807z"/>
								<path class="st23" d="M1360.2,819.8l29.2,17.1c1,0.6,1.9,0.3,1.9-0.8l0,0c0-1-0.8-2.4-1.9-3l-29.2-17.1
									c-1-0.6-1.9-0.3-1.9,0.8l0,0C1358.3,817.9,1359.2,819.2,1360.2,819.8z"/>
								<path class="st23" d="M1360.2,832.6l29.2,17.1c1,0.6,1.9,0.3,1.9-0.8l0,0c0-1-0.8-2.4-1.9-3l-29.2-17.1
									c-1-0.6-1.9-0.3-1.9,0.8l0,0C1358.3,830.7,1359.2,832,1360.2,832.6z"/>
							</g>
						</g>
					</g>
					<g>
						<g>
							<g class="st12">
								<g>
									<polygon class="st25" points="1771.8,751.2 1982.2,625.9 1982.2,405.7 1771.8,531.1 									"/>
								</g>
								<g>
									<polygon class="st20" points="1771.8,531.1 1982.2,405.7 1767,282.7 1556.6,408 									"/>
								</g>
								<g>
									<polygon class="st21" points="1556.6,408 1556.6,628.2 1771.8,751.2 1771.8,531.1 									"/>
								</g>
							</g>
						</g>
						<g class="st22">
							<polygon class="st23" points="1855.2,482.6 1898.8,456.6 1683.6,333.5 1640,359.5 							"/>
						</g>
						<polygon class="st24" points="1898.8,520.8 1855.2,546.8 1855.2,482.6 1898.8,456.6 						"/>
						<g>
							<polygon class="st24" points="1566.9,494.8 1610.6,520.8 1610.6,456.6 1566.9,430.6 							"/>
							<g>
								<path class="st23" d="M1574.2,456.2l29.2,17.1c1,0.6,1.9,0.3,1.9-0.8l0,0c0-1-0.8-2.4-1.9-3l-29.2-17.1
									c-1-0.6-1.9-0.3-1.9,0.8l0,0C1572.3,454.2,1573.1,455.6,1574.2,456.2z"/>
								<path class="st23" d="M1574.2,469l29.2,17.1c1,0.6,1.9,0.3,1.9-0.8l0,0c0-1-0.8-2.4-1.9-3l-29.2-17.1
									c-1-0.6-1.9-0.3-1.9,0.8l0,0C1572.3,467,1573.1,468.4,1574.2,469z"/>
								<path class="st23" d="M1574.2,481.8l29.2,17.1c1,0.6,1.9,0.3,1.9-0.8l0,0c0-1-0.8-2.4-1.9-3l-29.2-17.1
									c-1-0.6-1.9-0.3-1.9,0.8l0,0C1572.3,479.9,1573.1,481.2,1574.2,481.8z"/>
							</g>
						</g>
					</g>
					<g>
						<g>
							<g class="st12">
								<g>
									<polygon class="st25" points="1557.8,879 1768.2,753.7 1768.2,533.5 1557.8,658.9 									"/>
								</g>
								<g>
									<polygon class="st20" points="1557.8,658.9 1768.2,533.5 1553,410.5 1342.6,535.8 									"/>
								</g>
								<g>
									<polygon class="st21" points="1342.6,535.8 1342.6,756 1557.8,879 1557.8,658.9 									"/>
								</g>
							</g>
						</g>
						<g class="st22">
							<polygon class="st23" points="1641.2,610.4 1684.8,584.4 1469.7,461.3 1426,487.3 							"/>
						</g>
						<polygon class="st24" points="1684.8,648.6 1641.2,674.6 1641.2,610.4 1684.8,584.4 						"/>
						<g>
							<polygon class="st24" points="1353,622.6 1396.6,648.6 1396.6,584.4 1353,558.4 							"/>
							<g>
								<path class="st23" d="M1360.2,584l29.2,17.1c1,0.6,1.9,0.3,1.9-0.8l0,0c0-1-0.8-2.4-1.9-3l-29.2-17.1
									c-1-0.6-1.9-0.3-1.9,0.8l0,0C1358.3,582,1359.2,583.4,1360.2,584z"/>
								<path class="st23" d="M1360.2,596.8l29.2,17.1c1,0.6,1.9,0.3,1.9-0.8l0,0c0-1-0.8-2.4-1.9-3l-29.2-17.1
									c-1-0.6-1.9-0.3-1.9,0.8l0,0C1358.3,594.8,1359.2,596.2,1360.2,596.8z"/>
								<path class="st23" d="M1360.2,609.6l29.2,17.1c1,0.6,1.9,0.3,1.9-0.8l0,0c0-1-0.8-2.4-1.9-3l-29.2-17.1
									c-1-0.6-1.9-0.3-1.9,0.8l0,0C1358.3,607.7,1359.2,609,1360.2,609.6z"/>
							</g>
						</g>
					</g>
					<g>
						<g>
							<g class="st12">
								<g>
									<polygon class="st25" points="1775.3,1227.6 1985.7,1102.3 1985.7,882.1 1775.3,1007.4 									"/>
								</g>
								<g>
									<polygon class="st20" points="1775.3,1007.4 1985.7,882.1 1770.5,759.1 1560.1,884.4 									"/>
								</g>
								<g>
									<polygon class="st21" points="1560.1,884.4 1560.1,1104.6 1775.3,1227.6 1775.3,1007.4 									"/>
								</g>
							</g>
						</g>
						<g class="st22">
							<polygon class="st23" points="1858.7,958.9 1902.3,932.9 1687.1,809.9 1643.5,835.9 							"/>
						</g>
						<polygon class="st24" points="1902.3,997.1 1858.7,1023.1 1858.7,958.9 1902.3,932.9 						"/>
						<g>
							<polygon class="st24" points="1570.5,971.1 1614.1,997.1 1614.1,932.9 1570.5,906.9 							"/>
							<g>
								<path class="st23" d="M1577.7,932.5l29.2,17.1c1,0.6,1.9,0.3,1.9-0.8l0,0c0-1-0.8-2.4-1.9-3l-29.2-17.1
									c-1-0.6-1.9-0.3-1.9,0.8l0,0C1575.8,930.6,1576.7,931.9,1577.7,932.5z"/>
								<path class="st23" d="M1577.7,945.4l29.2,17.1c1,0.6,1.9,0.3,1.9-0.8l0,0c0-1-0.8-2.4-1.9-3l-29.2-17.1
									c-1-0.6-1.9-0.3-1.9,0.8v0C1575.8,943.4,1576.7,944.7,1577.7,945.4z"/>
								<path class="st23" d="M1577.7,958.2l29.2,17.1c1,0.6,1.9,0.3,1.9-0.8l0,0c0-1-0.8-2.4-1.9-3l-29.2-17.1
									c-1-0.6-1.9-0.3-1.9,0.8l0,0C1575.8,956.2,1576.7,957.6,1577.7,958.2z"/>
							</g>
						</g>
					</g>
					<g>
						<g>
							<g class="st12">
								<g>
									<polygon class="st25" points="1843.1,967.8 2053.5,842.4 2053.5,622.3 1843.1,747.6 									"/>
								</g>
								<g>
									<polygon class="st20" points="1843.1,747.6 2053.5,622.3 1838.3,499.2 1627.9,624.6 									"/>
								</g>
								<g>
									<polygon class="st21" points="1627.9,624.6 1627.9,844.7 1843.1,967.8 1843.1,747.6 									"/>
								</g>
							</g>
						</g>
						<g class="st22">
							<polygon class="st23" points="1926.5,699.1 1970.1,673.1 1754.9,550.1 1711.3,576.1 							"/>
						</g>
						<polygon class="st24" points="1970.1,737.3 1926.5,763.3 1926.5,699.1 1970.1,673.1 						"/>
						<g>
							<polygon class="st24" points="1638.3,711.3 1681.9,737.3 1681.9,673.1 1638.3,647.1 							"/>
							<g>
								<path class="st23" d="M1645.5,672.7l29.2,17.1c1,0.6,1.9,0.3,1.9-0.8l0,0c0-1-0.8-2.4-1.9-3l-29.2-17.1
									c-1-0.6-1.9-0.3-1.9,0.8l0,0C1643.6,670.8,1644.5,672.1,1645.5,672.7z"/>
								<path class="st23" d="M1645.5,685.5l29.2,17.1c1,0.6,1.9,0.3,1.9-0.8l0,0c0-1-0.8-2.4-1.9-3l-29.2-17.1
									c-1-0.6-1.9-0.3-1.9,0.8l0,0C1643.6,683.6,1644.5,684.9,1645.5,685.5z"/>
								<path class="st23" d="M1645.5,698.4l29.2,17.1c1,0.6,1.9,0.3,1.9-0.8l0,0c0-1-0.8-2.4-1.9-3l-29.2-17.1
									c-1-0.6-1.9-0.3-1.9,0.8l0,0C1643.6,696.4,1644.5,697.7,1645.5,698.4z"/>
							</g>
						</g>
					</g>
				</g>
			</g>
		</g>
		<g>
			<g>
				<g>
					<linearGradient id="SVGID_11_" gradientUnits="userSpaceOnUse" x1="1403.687" y1="1087.3634" x2="1306.4612" y2="694.9882">
						<stop  offset="0" style="stop-color:#303030"/>
						<stop  offset="1" style="stop-color:#4C4A4B"/>
					</linearGradient>
					<path class="st26" d="M1196,509.7V1012c0,8,4.3,15.4,11.3,19.4l263.5,150.7c7.9,4.5,17.8-1.2,17.8-10.3V667.6
						c0-8.9-4.7-17-12.4-21.4l-259.6-148.5C1207.4,492.5,1196,499.1,1196,509.7z"/>
				</g>
				<g>
					<linearGradient id="SVGID_12_" gradientUnits="userSpaceOnUse" x1="1187.3119" y1="844.1773" x2="1479.9092" y2="844.1773">
						<stop  offset="0" style="stop-color:#303030"/>
						<stop  offset="1" style="stop-color:#4C4A4B"/>
					</linearGradient>
					<path class="st27" d="M1187.3,514v502.3c0,8,4.3,15.4,11.3,19.4l263.5,150.7c7.9,4.5,17.8-1.2,17.8-10.3V672
						c0-8.9-4.7-17-12.4-21.4l-259.6-148.5C1198.7,496.9,1187.3,503.5,1187.3,514z"/>
					<path class="st23" d="M1205.1,1024.5c-2.9-1.7-4.7-4.8-4.7-8.1V514c0-0.7,0.7-0.7,0.7-0.7c0,0,0.1,0,0.3,0.1L1461,661.9
						c3.6,2.1,5.9,5.9,5.9,10.1v502.2L1205.1,1024.5z"/>
				</g>
			</g>
			<g>
				<g>
					<linearGradient id="SVGID_13_" gradientUnits="userSpaceOnUse" x1="1280.682" y1="542.6253" x2="1311.6055" y2="542.6253">
						<stop  offset="0" style="stop-color:#A0570E"/>
						<stop  offset="1" style="stop-color:#F79C45"/>
					</linearGradient>
					<path class="st28" d="M1299,537.1c-0.1-0.1-0.3-0.2-0.4-0.2c-0.2-0.1-0.3-0.2-0.5-0.3c-0.2-0.1-0.3-0.2-0.5-0.2
						c-0.2-0.1-0.3-0.1-0.5-0.2c-0.2-0.1-0.3-0.1-0.5-0.2c0,0-0.1,0-0.1,0c0,0,0,0,0,0c-0.1,0-0.2-0.1-0.4-0.1
						c-0.2-0.1-0.3-0.1-0.5-0.1c-0.2,0-0.3-0.1-0.5-0.1c-0.2,0-0.4-0.1-0.5-0.1c-0.1,0-0.2,0-0.4,0c0,0,0,0,0,0c-0.1,0-0.1,0-0.1,0
						c-0.2,0-0.4,0-0.6,0c-0.2,0-0.4,0-0.6,0c-0.2,0-0.5,0.1-0.7,0.1c0,0,0,0,0,0c0,0,0,0,0,0c-0.3,0.1-0.6,0.1-0.8,0.2
						c-0.4,0.1-0.7,0.3-1,0.5l-9.4,5.4c0.6-0.3,1.2-0.6,1.8-0.7c0,0,0,0,0,0c0.7-0.1,1.4-0.2,2.1-0.1c0,0,0,0,0.1,0
						c0.7,0.1,1.5,0.2,2.3,0.5c0,0,0,0,0,0c0.8,0.3,1.7,0.7,2.5,1.2l12.7,7.3l9.4-5.4L1299,537.1z"/>
					<linearGradient id="SVGID_14_" gradientUnits="userSpaceOnUse" x1="1309.3014" y1="558.4678" x2="1338.9291" y2="558.4678">
						<stop  offset="0" style="stop-color:#A0570E"/>
						<stop  offset="1" style="stop-color:#F79C45"/>
					</linearGradient>
					<path class="st29" d="M1337.2,570.5c-0.6,0.1-1.3,0.2-2,0.1c0,0,0,0-0.1,0c-0.7-0.1-1.4-0.2-2.2-0.5c0,0,0,0,0,0
						c-0.8-0.3-1.6-0.6-2.4-1.1c-0.8-0.5-1.6-1-2.4-1.6c0,0,0,0-0.1,0c-0.8-0.6-1.5-1.3-2.2-2c0,0,0,0,0,0c-0.7-0.7-1.4-1.6-2-2.4
						c0,0,0,0,0,0c0,0,0,0,0,0c-0.6-0.8-1.2-1.7-1.7-2.6c0,0,0-0.1-0.1-0.1c-0.5-0.9-1-1.8-1.4-2.8c0,0,0,0,0,0
						c-0.4-1-0.8-1.9-1.1-2.9c0,0,0,0,0,0c-0.3-1-0.5-2-0.7-2.9c0,0,0,0,0,0c-0.2-1-0.2-1.9-0.2-2.9c0-0.9,0.1-1.8,0.2-2.6
						c0,0,0,0,0-0.1c0.2-0.8,0.4-1.5,0.7-2.1c0,0,0,0,0,0c0.2-0.5,0.6-1,0.9-1.4c0.1-0.1,0.2-0.3,0.3-0.4c0.4-0.4,0.8-0.8,1.3-1.1
						l-9.4,5.4c-0.5,0.3-0.9,0.7-1.3,1.1c-0.1,0.1-0.2,0.3-0.3,0.4c-0.1,0.2-0.3,0.3-0.4,0.5c-0.2,0.3-0.3,0.5-0.4,0.8c0,0,0,0,0,0
						c0,0,0,0,0,0c-0.1,0.2-0.2,0.4-0.3,0.6c-0.1,0.2-0.1,0.4-0.2,0.6c-0.1,0.2-0.1,0.4-0.2,0.6c0,0.1,0,0.2-0.1,0.3c0,0,0,0,0,0.1
						c0,0.1,0,0.2-0.1,0.3c0,0.2-0.1,0.4-0.1,0.6c0,0.2,0,0.4-0.1,0.6c0,0.2,0,0.4,0,0.6c0,0.2,0,0.4,0,0.6c0,0,0,0,0,0
						c0,0.2,0,0.4,0,0.5c0,0.2,0,0.4,0,0.6c0,0.2,0,0.4,0,0.6c0,0.2,0,0.4,0.1,0.6c0,0.2,0.1,0.4,0.1,0.6c0,0,0,0,0,0c0,0,0,0,0,0
						c0,0.2,0.1,0.4,0.1,0.6c0,0.2,0.1,0.4,0.1,0.6c0,0.2,0.1,0.4,0.1,0.6c0.1,0.2,0.1,0.4,0.2,0.6c0,0.2,0.1,0.3,0.1,0.5
						c0,0,0,0,0,0c0,0,0,0.1,0,0.1c0.1,0.2,0.1,0.4,0.2,0.6c0.1,0.2,0.1,0.4,0.2,0.6c0.1,0.2,0.1,0.4,0.2,0.6s0.2,0.4,0.2,0.6
						c0.1,0.1,0.1,0.3,0.2,0.4c0,0,0,0,0,0c0,0,0,0.1,0,0.1c0.1,0.2,0.2,0.4,0.3,0.6c0.1,0.2,0.2,0.4,0.3,0.6
						c0.1,0.2,0.2,0.5,0.4,0.7c0.1,0.3,0.3,0.5,0.4,0.8c0,0,0,0.1,0.1,0.1c0,0.1,0.1,0.1,0.1,0.2c0.3,0.5,0.6,0.9,0.9,1.4
						c0.2,0.4,0.5,0.7,0.8,1.1c0.2,0.2,0.3,0.5,0.5,0.7c0.1,0.2,0.3,0.4,0.5,0.6c0.2,0.2,0.3,0.4,0.5,0.5c0.2,0.2,0.3,0.3,0.5,0.5
						c0,0,0.1,0.1,0.1,0.1c0,0,0,0,0,0c0.1,0.1,0.2,0.2,0.4,0.4c0.2,0.2,0.3,0.3,0.5,0.5c0.2,0.2,0.3,0.3,0.5,0.5
						c0.2,0.2,0.3,0.3,0.5,0.5c0.1,0.1,0.2,0.1,0.3,0.2c0,0,0,0,0.1,0c0.1,0.1,0.1,0.1,0.2,0.2c0.2,0.1,0.3,0.3,0.5,0.4
						c0.2,0.1,0.3,0.2,0.5,0.4c0.2,0.1,0.3,0.2,0.5,0.3c0.2,0.1,0.3,0.2,0.5,0.3c0,0,0.1,0,0.1,0.1c0.1,0.1,0.3,0.1,0.4,0.2
						c0.2,0.1,0.3,0.2,0.5,0.3c0.2,0.1,0.3,0.2,0.5,0.2c0.2,0.1,0.3,0.1,0.5,0.2c0.2,0.1,0.3,0.1,0.5,0.2c0,0,0.1,0,0.1,0
						c0,0,0,0,0,0c0.1,0,0.2,0.1,0.3,0.1c0.2,0,0.3,0.1,0.5,0.1c0.2,0,0.3,0.1,0.5,0.1c0.2,0,0.3,0.1,0.5,0.1c0.1,0,0.2,0,0.4,0
						c0,0,0,0,0.1,0c0,0,0.1,0,0.1,0c0.2,0,0.4,0,0.6,0c0.2,0,0.4,0,0.6,0c0.2,0,0.5-0.1,0.7-0.1c0,0,0,0,0,0c0,0,0,0,0,0
						c0.3-0.1,0.5-0.1,0.8-0.2c0.3-0.1,0.7-0.3,1-0.4l9.4-5.4C1338.4,570.1,1337.8,570.3,1337.2,570.5
						C1337.2,570.5,1337.2,570.5,1337.2,570.5z"/>
					<linearGradient id="SVGID_15_" gradientUnits="userSpaceOnUse" x1="1307.7474" y1="577.7003" x2="1374.5792" y2="577.7003">
						<stop  offset="0" style="stop-color:#A0570E"/>
						<stop  offset="1" style="stop-color:#F79C45"/>
					</linearGradient>
					<path class="st30" d="M1374.6,594.6c0-0.2,0-0.4,0-0.6c0-0.2,0-0.4,0-0.6c0-0.2,0-0.4-0.1-0.6c0-0.2-0.1-0.4-0.1-0.6
						c0,0,0,0,0,0c0,0,0,0,0,0c0-0.2-0.1-0.4-0.1-0.6c0-0.2-0.1-0.4-0.1-0.7c0-0.2-0.1-0.4-0.2-0.7c-0.1-0.2-0.1-0.4-0.2-0.7
						c0-0.2-0.1-0.3-0.2-0.5c0,0,0,0,0,0c0,0,0-0.1,0-0.1c-0.1-0.2-0.1-0.4-0.2-0.6c-0.1-0.2-0.1-0.4-0.2-0.6
						c-0.1-0.2-0.2-0.4-0.2-0.6c-0.1-0.2-0.2-0.4-0.2-0.6c-0.1-0.2-0.1-0.3-0.2-0.5c0,0,0,0,0,0c0,0,0-0.1,0-0.1
						c-0.1-0.2-0.2-0.4-0.3-0.6c-0.1-0.2-0.2-0.4-0.3-0.7c-0.1-0.3-0.3-0.5-0.4-0.8c-0.1-0.3-0.3-0.5-0.4-0.8c0,0-0.1-0.1-0.1-0.1
						c0-0.1-0.1-0.1-0.1-0.2c-0.3-0.5-0.6-1-0.9-1.5c-0.3-0.4-0.5-0.7-0.8-1.1c0,0,0,0,0,0c0,0,0,0,0,0c-0.2-0.2-0.4-0.5-0.6-0.7
						c-0.2-0.2-0.3-0.4-0.5-0.6c-0.2-0.2-0.3-0.4-0.5-0.6c-0.2-0.2-0.3-0.4-0.5-0.5c0,0-0.1-0.1-0.1-0.1c0,0,0,0,0,0
						c-0.1-0.1-0.3-0.3-0.4-0.4c-0.2-0.2-0.3-0.4-0.5-0.5c-0.2-0.2-0.4-0.3-0.6-0.5c-0.2-0.2-0.4-0.3-0.6-0.5
						c-0.1-0.1-0.2-0.1-0.3-0.2c0,0,0,0-0.1-0.1c-0.1-0.1-0.1-0.1-0.2-0.2c-0.2-0.1-0.4-0.3-0.5-0.4c-0.2-0.1-0.4-0.3-0.5-0.4
						c-0.2-0.1-0.4-0.2-0.5-0.4c-0.2-0.1-0.4-0.2-0.5-0.3c0,0-0.1,0-0.1-0.1l-12.7-7.3c0-0.3,0-0.6,0-0.9c0-0.3,0-0.6,0-0.9
						c0-0.1,0-0.3,0-0.4c0-0.1,0-0.1,0-0.2c0-0.1,0-0.2,0-0.3c0-0.3-0.1-0.6-0.1-0.9c0-0.3-0.1-0.6-0.1-0.9c0,0,0,0,0,0c0,0,0,0,0,0
						c0-0.3-0.1-0.6-0.2-0.9c-0.1-0.3-0.1-0.7-0.2-1c0-0.1-0.1-0.2-0.1-0.3c0-0.1,0-0.1-0.1-0.2c0-0.1-0.1-0.3-0.1-0.4
						c-0.1-0.3-0.2-0.7-0.3-1c-0.1-0.2-0.1-0.5-0.2-0.7c0,0,0-0.1,0-0.1c0,0,0-0.1,0-0.1c-0.1-0.3-0.2-0.7-0.3-1
						c-0.1-0.3-0.2-0.6-0.3-1c0-0.1,0-0.1-0.1-0.2c0,0,0-0.1-0.1-0.1c-0.1-0.2-0.1-0.4-0.2-0.6c-0.1-0.3-0.2-0.6-0.4-0.9
						c-0.1-0.2-0.2-0.4-0.3-0.7c0,0,0-0.1,0-0.1c0,0,0-0.1-0.1-0.1c-0.1-0.3-0.3-0.6-0.4-0.9c-0.2-0.3-0.3-0.7-0.5-1
						c0-0.1-0.1-0.1-0.1-0.2c0-0.1-0.1-0.1-0.1-0.2c-0.1-0.3-0.3-0.5-0.4-0.8c-0.2-0.3-0.4-0.6-0.5-1c-0.1-0.2-0.2-0.3-0.3-0.5
						c0-0.1-0.1-0.1-0.1-0.2c-0.2-0.3-0.3-0.5-0.5-0.8c-0.3-0.4-0.5-0.8-0.8-1.2c0-0.1-0.1-0.1-0.1-0.2c-0.4-0.6-0.8-1.1-1.2-1.7
						c0,0,0,0,0,0v0c-0.3-0.4-0.6-0.7-0.8-1.1c-0.2-0.3-0.5-0.6-0.7-0.9c0,0,0,0,0,0c0,0,0,0,0,0c-0.2-0.3-0.5-0.6-0.7-0.9
						c-0.2-0.3-0.5-0.5-0.7-0.8c0,0-0.1-0.1-0.1-0.1c0,0-0.1-0.1-0.1-0.1c-0.2-0.2-0.3-0.4-0.5-0.5c-0.3-0.3-0.5-0.5-0.8-0.8
						c-0.1-0.1-0.2-0.2-0.2-0.2c-0.1-0.1-0.1-0.1-0.2-0.2c-0.1-0.1-0.3-0.2-0.4-0.4c-0.3-0.3-0.6-0.5-0.8-0.7
						c-0.1-0.1-0.2-0.2-0.4-0.3c-0.1-0.1-0.1-0.1-0.2-0.2c-0.1-0.1-0.2-0.2-0.3-0.2c-0.3-0.2-0.6-0.4-0.8-0.6
						c-0.2-0.1-0.4-0.3-0.6-0.4c0,0-0.1-0.1-0.1-0.1c0,0-0.1,0-0.1-0.1c-0.3-0.2-0.5-0.4-0.8-0.5c-0.3-0.2-0.5-0.3-0.8-0.5
						c-0.1,0-0.1-0.1-0.2-0.1c-0.2-0.1-0.4-0.2-0.6-0.3c-0.3-0.1-0.5-0.3-0.8-0.4c-0.2-0.1-0.3-0.2-0.5-0.2c0,0-0.1,0-0.1-0.1
						c0,0-0.1,0-0.1-0.1c-0.3-0.1-0.5-0.2-0.8-0.3c-0.3-0.1-0.5-0.2-0.8-0.3c0,0-0.1,0-0.1,0c0,0-0.1,0-0.1,0
						c-0.2-0.1-0.3-0.1-0.5-0.2c-0.3-0.1-0.5-0.2-0.8-0.2c-0.1,0-0.2-0.1-0.4-0.1c-0.1,0-0.1,0-0.2,0c-0.1,0-0.2,0-0.2-0.1
						c-0.3-0.1-0.6-0.1-0.8-0.1c-0.2,0-0.3,0-0.5-0.1c-0.1,0-0.1,0-0.2,0c-0.1,0-0.1,0-0.2,0c-0.3,0-0.6,0-0.9,0c-0.1,0-0.3,0-0.4,0
						c-0.1,0-0.2,0-0.3,0c-0.1,0-0.2,0-0.3,0c-0.4,0-0.7,0.1-1.1,0.2c0,0,0,0,0,0c-0.1,0-0.1,0-0.2,0.1c-0.4,0.1-0.7,0.2-1.1,0.3
						c0,0-0.1,0-0.1,0c-0.5,0.2-1,0.4-1.5,0.7l-9.4,5.4c0.5-0.3,0.9-0.5,1.5-0.7c0.4-0.1,0.8-0.2,1.2-0.3c0.1,0,0.1,0,0.2-0.1
						c0.5-0.1,0.9-0.1,1.4-0.2c0.1,0,0.2,0,0.3,0c0.5,0,0.9,0,1.4,0c0.1,0,0.1,0,0.2,0c0.5,0,1,0.1,1.6,0.2c0.1,0,0.1,0,0.2,0
						c0.5,0.1,1.1,0.3,1.7,0.5c0,0,0.1,0,0.1,0c0.6,0.2,1.2,0.4,1.8,0.7c0,0,0.1,0,0.1,0.1c0.6,0.3,1.2,0.6,1.9,1
						c0.6,0.4,1.3,0.8,1.9,1.2c0,0,0.1,0.1,0.1,0.1c0.6,0.4,1.2,0.8,1.7,1.3c0.1,0.1,0.1,0.1,0.2,0.2c0.5,0.4,1.1,0.9,1.6,1.4
						c0.1,0.1,0.1,0.1,0.2,0.2c0.5,0.5,1.1,1,1.6,1.6c0,0,0.1,0.1,0.1,0.1c0.5,0.6,1.1,1.2,1.6,1.8c0,0,0,0,0,0c1,1.2,2,2.5,2.9,3.9
						c0.3,0.4,0.5,0.8,0.8,1.2c0.2,0.3,0.4,0.7,0.6,1c0.1,0.2,0.2,0.3,0.3,0.5c0.3,0.6,0.7,1.2,1,1.8c0,0.1,0.1,0.1,0.1,0.2
						c0.4,0.7,0.7,1.5,1,2.2c0,0,0,0.1,0,0.1c0.3,0.7,0.6,1.5,0.9,2.2c0,0,0,0.1,0,0.1c0.3,0.8,0.5,1.5,0.8,2.3c0,0,0,0.1,0,0.1
						c0.2,0.7,0.4,1.5,0.6,2.2c0,0.1,0,0.1,0,0.2c0.2,0.7,0.3,1.5,0.4,2.2c0,0,0,0,0,0c0.1,0.7,0.2,1.5,0.3,2.2c0,0.1,0,0.1,0,0.2
						c0.1,0.7,0.1,1.5,0.1,2.2l12.7,7.3c0.9,0.5,1.7,1.1,2.5,1.7c0,0,0,0,0.1,0.1c0.8,0.6,1.6,1.4,2.3,2.1c0,0,0,0,0,0
						c0.7,0.8,1.4,1.6,2.1,2.5c0,0,0,0,0,0c0.6,0.9,1.3,1.8,1.8,2.8c0,0,0,0.1,0.1,0.1c0.5,0.9,1,1.9,1.5,2.9c0,0,0,0,0,0
						c0.4,1,0.8,2,1.1,3.1c0,0,0,0,0,0c0.3,1,0.6,2.1,0.7,3.1c0,0,0,0,0,0c0.2,1,0.2,2,0.2,3l-0.1,23.8l9.4-5.4l0.1-23.8
						C1374.6,595,1374.6,594.8,1374.6,594.6z"/>
				</g>
				<g>
					<linearGradient id="SVGID_16_" gradientUnits="userSpaceOnUse" x1="1276.9637" y1="580.4244" x2="1365.2043" y2="580.4244">
						<stop  offset="0" style="stop-color:#F9BF1E"/>
						<stop  offset="1" style="stop-color:#F79C45"/>
					</linearGradient>
					<path class="st31" d="M1352.7,579c6.9,4,12.5,13.7,12.5,21.6l-0.1,23.8l-88.2-50.9l0.1-23.8c0-7.9,5.6-11.1,12.5-7.1l12.7,7.3
						c0-12,8.5-16.8,19-10.8c10.4,6,18.9,20.7,18.9,32.7L1352.7,579z M1321.1,574.4c6.5,3.8,11.9,0.7,11.9-6.8
						c0-7.5-5.3-16.7-11.8-20.5c-6.6-3.8-11.9-0.7-11.9,6.8C1309.3,561.5,1314.6,570.6,1321.1,574.4"/>
				</g>
			</g>
			<g>
				<g>
					<g>
						<path class="st32" d="M1440.6,801.9l-156-88.8c-2.2-1.2-3.9-4.5-3.9-7.2l0,0c0-2.8,1.8-4,3.9-2.8l156,88.8
							c2.2,1.2,3.9,4.5,3.9,7.2l0,0C1444.5,801.9,1442.7,803.2,1440.6,801.9z"/>
						<path class="st32" d="M1420.3,729.7l-156-88.8c-2.2-1.2-3.9-4.5-3.9-7.2l0,0c0-2.8,1.8-4,3.9-2.8l156,88.8
							c2.2,1.2,3.9,4.5,3.9,7.2l0,0C1424.3,729.6,1422.5,730.9,1420.3,729.7z"/>
						<path class="st32" d="M1440.6,824.2l-156-88.8c-2.2-1.2-3.9-4.5-3.9-7.2l0,0c0-2.8,1.8-4,3.9-2.8l156,88.8
							c2.2,1.2,3.9,4.5,3.9,7.2l0,0C1444.5,824.2,1442.7,825.4,1440.6,824.2z"/>
						<path class="st32" d="M1395,820.6l-110.5-62.9c-2.2-1.2-3.9-4.5-3.9-7.2v0c0-2.8,1.8-4,3.9-2.8l110.5,62.9
							c2.2,1.2,3.9,4.5,3.9,7.2l0,0C1398.9,820.6,1397.2,821.8,1395,820.6z"/>
					</g>
					<g>
						
							<linearGradient id="SVGID_17_" gradientUnits="userSpaceOnUse" x1="1645.2197" y1="4560.0303" x2="1688.7312" y2="4560.0303" gradientTransform="matrix(1 0.5693 3.000000e-004 1.0395 -423.8995 -4981.5996)">
							<stop  offset="0" style="stop-color:#82FB7C"/>
							<stop  offset="1" style="stop-color:#0BA2B3"/>
						</linearGradient>
						<path class="st33" d="M1259.8,744.1l-30.7-17.5c-3.5-2-6.4-7.3-6.4-11.8l0-39.3c0-4.5,2.9-6.5,6.4-4.5l30.7,17.5
							c3.5,2,6.4,7.3,6.4,11.8l0,39.3C1266.2,744.1,1263.3,746.1,1259.8,744.1z"/>
						<polygon class="st23" points="1231.6,691.3 1240,715.8 1260.6,712.2 1256.9,703.2 1242.8,706.3 1236.3,689 						"/>
					</g>
				</g>
				<g>
					<g>
						<path class="st32" d="M1440.6,881.5l-156-88.8c-2.2-1.2-3.9-4.5-3.9-7.2l0,0c0-2.8,1.8-4,3.9-2.8l156,88.8
							c2.2,1.2,3.9,4.5,3.9,7.2l0,0C1444.5,881.5,1442.7,882.7,1440.6,881.5z"/>
						<path class="st32" d="M1440.6,903.8l-156-88.8c-2.2-1.2-3.9-4.5-3.9-7.2l0,0c0-2.8,1.8-4,3.9-2.8l156,88.8
							c2.2,1.2,3.9,4.5,3.9,7.2l0,0C1444.5,903.8,1442.7,905,1440.6,903.8z"/>
						<path class="st32" d="M1395.1,900.1l-110.5-62.9c-2.2-1.2-3.9-4.5-3.9-7.2l0,0c0-2.8,1.8-4,3.9-2.8l110.5,62.9
							c2.2,1.2,3.9,4.5,3.9,7.2l0,0C1399,900.1,1397.2,901.4,1395.1,900.1z"/>
					</g>
					<g>
						
							<linearGradient id="SVGID_18_" gradientUnits="userSpaceOnUse" x1="1645.2161" y1="4636.5776" x2="1688.7274" y2="4636.5776" gradientTransform="matrix(1 0.5693 3.000000e-004 1.0395 -423.8995 -4981.5996)">
							<stop  offset="0" style="stop-color:#82FB7C"/>
							<stop  offset="1" style="stop-color:#0BA2B3"/>
						</linearGradient>
						<path class="st34" d="M1259.8,823.7l-30.7-17.5c-3.5-2-6.4-7.3-6.4-11.8l0-39.3c0-4.5,2.9-6.5,6.4-4.5l30.7,17.5
							c3.5,2,6.4,7.3,6.4,11.8l0,39.3C1266.2,823.7,1263.4,825.7,1259.8,823.7z"/>
						<polygon class="st23" points="1231.6,770.9 1240,795.4 1260.6,791.7 1256.9,782.8 1242.8,785.8 1236.4,768.6 						"/>
					</g>
				</g>
				<g>
					<g>
						<path class="st32" d="M1440.6,961.1l-156-88.8c-2.2-1.2-3.9-4.5-3.9-7.2l0,0c0-2.8,1.8-4,3.9-2.8l156,88.8
							c2.2,1.2,3.9,4.5,3.9,7.2l0,0C1444.5,961,1442.8,962.3,1440.6,961.1z"/>
						<path class="st32" d="M1440.6,983.4l-156-88.8c-2.2-1.2-3.9-4.5-3.9-7.2v0c0-2.8,1.8-4,3.9-2.8l156,88.8
							c2.2,1.2,3.9,4.5,3.9,7.2l0,0C1444.5,983.3,1442.8,984.6,1440.6,983.4z"/>
						<path class="st32" d="M1395.1,979.7l-110.5-62.9c-2.2-1.2-3.9-4.5-3.9-7.2l0,0c0-2.8,1.8-4,3.9-2.8l110.5,62.9
							c2.2,1.2,3.9,4.5,3.9,7.2l0,0C1399,979.7,1397.2,980.9,1395.1,979.7z"/>
					</g>
					<g>
						
							<linearGradient id="SVGID_19_" gradientUnits="userSpaceOnUse" x1="1645.2123" y1="4713.1255" x2="1688.7238" y2="4713.1255" gradientTransform="matrix(1 0.5693 3.000000e-004 1.0395 -423.8995 -4981.5996)">
							<stop  offset="0" style="stop-color:#82FB7C"/>
							<stop  offset="1" style="stop-color:#0BA2B3"/>
						</linearGradient>
						<path class="st35" d="M1259.9,903.3l-30.7-17.5c-3.5-2-6.4-7.3-6.4-11.8l0-39.3c0-4.5,2.9-6.5,6.4-4.5l30.7,17.5
							c3.5,2,6.4,7.3,6.4,11.8l0,39.3C1266.2,903.3,1263.4,905.3,1259.9,903.3z"/>
						<polygon class="st23" points="1231.7,850.4 1240,874.9 1260.6,871.3 1256.9,862.4 1242.8,865.4 1236.4,848.2 						"/>
					</g>
				</g>
				<g>
					<g>
						<path class="st32" d="M1440.6,1040.6l-156-88.8c-2.2-1.2-3.9-4.5-3.9-7.2l0,0c0-2.8,1.8-4,3.9-2.8l156,88.8
							c2.2,1.2,3.9,4.5,3.9,7.2l0,0C1444.5,1040.6,1442.8,1041.9,1440.6,1040.6z"/>
						<path class="st32" d="M1440.6,1062.9l-156-88.8c-2.2-1.2-3.9-4.5-3.9-7.2l0,0c0-2.8,1.8-4,3.9-2.8l156,88.8
							c2.2,1.2,3.9,4.5,3.9,7.2l0,0C1444.5,1062.9,1442.8,1064.2,1440.6,1062.9z"/>
						<path class="st32" d="M1395.1,1059.3l-110.5-62.9c-2.2-1.2-3.9-4.5-3.9-7.2l0,0c0-2.8,1.8-4,3.9-2.8l110.5,62.9
							c2.2,1.2,3.9,4.5,3.9,7.2l0,0C1399,1059.3,1397.2,1060.5,1395.1,1059.3z"/>
					</g>
					<g>
						
							<linearGradient id="SVGID_20_" gradientUnits="userSpaceOnUse" x1="1645.2086" y1="4789.6729" x2="1688.72" y2="4789.6729" gradientTransform="matrix(1 0.5693 3.000000e-004 1.0395 -423.8995 -4981.5996)">
							<stop  offset="0" style="stop-color:#82FB7C"/>
							<stop  offset="1" style="stop-color:#0BA2B3"/>
						</linearGradient>
						<path class="st36" d="M1259.9,982.8l-30.7-17.5c-3.5-2-6.4-7.3-6.4-11.8l0-39.3c0-4.5,2.9-6.5,6.4-4.5l30.7,17.5
							c3.5,2,6.4,7.3,6.4,11.8l0,39.3C1266.3,982.8,1263.4,984.9,1259.9,982.8z"/>
						<polygon class="st23" points="1231.7,930 1240,954.5 1260.6,950.9 1257,941.9 1242.8,945 1236.4,927.8 						"/>
					</g>
				</g>
			</g>
		</g>
		<g>
			<g>
				<g>
					<linearGradient id="SVGID_21_" gradientUnits="userSpaceOnUse" x1="1237.0481" y1="1692.9459" x2="1317.0132" y2="1692.9459">
						<stop  offset="0" style="stop-color:#303030"/>
						<stop  offset="1" style="stop-color:#727272"/>
					</linearGradient>
					<path class="st37" d="M1317,1657.6c-0.1,0-0.1-0.1-0.2-0.1c-0.1,0-0.2-0.1-0.2-0.1c-0.4-0.2-0.8-0.4-1.3-0.6
						c-0.1-0.1-0.3-0.1-0.4-0.2c-0.3-0.1-0.5-0.2-0.8-0.3c-0.2-0.1-0.4-0.1-0.6-0.2c-0.1,0-0.2-0.1-0.2-0.1c0,0-0.1,0-0.1,0
						c-0.1,0-0.2-0.1-0.3-0.1c0,0,0,0,0,0c-0.2-0.1-0.5-0.1-0.8-0.2c-0.3-0.1-0.6-0.1-0.9-0.2c-0.1,0-0.2,0-0.3,0
						c-0.5-0.1-1-0.1-1.6-0.2c-0.1,0-0.3,0-0.4,0c-0.6,0-1.3,0-1.9,0c-0.5,0-0.9,0-1.4,0.1c-0.5,0-1,0.1-1.5,0.2
						c-0.3,0-0.6,0.1-0.8,0.1c-0.4,0.1-0.9,0.2-1.4,0.3c-0.2,0.1-0.4,0.1-0.6,0.2c-0.1,0-0.2,0-0.2,0.1c-0.3,0.1-0.6,0.2-0.9,0.3h0
						c-0.1,0-0.2,0.1-0.4,0.1c-0.2,0.1-0.4,0.1-0.6,0.2c-0.1,0-0.3,0.1-0.4,0.1c-0.3,0.1-0.5,0.2-0.8,0.3c-0.2,0.1-0.5,0.2-0.8,0.3
						c-0.5,0.2-0.9,0.4-1.4,0.6c-0.3,0.1-0.6,0.3-0.8,0.4c-0.2,0.1-0.4,0.2-0.6,0.3c-0.3,0.2-0.6,0.3-0.9,0.5
						c-0.4,0.2-0.9,0.5-1.3,0.7c-0.6,0.3-1.1,0.7-1.7,1s-1.1,0.7-1.7,1.1c-0.4,0.2-0.7,0.5-1.1,0.8c-0.7,0.5-1.5,1.1-2.2,1.7
						c-0.4,0.3-0.8,0.7-1.2,1c-0.7,0.6-1.3,1.1-2,1.7c-0.4,0.4-0.8,0.7-1.2,1.1c-0.5,0.5-1,1-1.5,1.5c-0.8,0.8-1.6,1.6-2.3,2.5
						c-0.4,0.5-0.9,1-1.3,1.5c-0.5,0.5-0.9,1.1-1.4,1.7c-0.5,0.7-1.1,1.3-1.6,2c-0.3,0.4-0.7,0.9-1,1.3c-0.6,0.8-1.2,1.6-1.7,2.5
						c-0.2,0.3-0.5,0.7-0.7,1c-0.4,0.6-0.8,1.2-1.1,1.8c-0.4,0.6-0.7,1.2-1.1,1.9c-0.1,0.2-0.2,0.4-0.3,0.5c-0.6,1-1.2,2.1-1.7,3.1
						c-0.2,0.3-0.4,0.7-0.5,1c-0.6,1.1-1.1,2.2-1.6,3.4c-0.1,0.2-0.1,0.3-0.2,0.5c-0.3,0.6-0.5,1.3-0.8,1.9
						c-0.3,0.6-0.5,1.3-0.7,1.9c-0.1,0.4-0.3,0.8-0.4,1.1c-0.3,0.9-0.6,1.9-0.9,2.8c-0.2,0.5-0.3,1-0.4,1.4
						c-0.2,0.8-0.5,1.7-0.7,2.5c-0.2,0.6-0.3,1.2-0.4,1.8c-0.1,0.6-0.2,1.1-0.4,1.7c0,0.2-0.1,0.3-0.1,0.5c-0.1,0.5-0.2,0.9-0.3,1.4
						c0,0.2-0.1,0.4-0.1,0.6c-0.2,1-0.3,2-0.4,3c0,0.4-0.1,0.8-0.1,1.2c0,0.4-0.1,0.8-0.1,1.2c0,0.5-0.1,1-0.1,1.5
						c0,0.4,0,0.8,0,1.2c0,0.4,0,0.7,0,1.1c0,0.3,0,0.5,0,0.8c0,0.1,0,0.2,0,0.3c0,0.3,0,0.5,0.1,0.8c0,0.5,0.1,1,0.1,1.5
						c0,0.4,0.1,0.7,0.1,1.1c0.1,0.4,0.1,0.8,0.2,1.2c0,0.1,0,0.2,0.1,0.3c0.1,0.3,0.1,0.7,0.2,1c0.1,0.4,0.2,0.8,0.3,1.2
						c0,0,0,0,0,0c0.1,0.4,0.2,0.8,0.3,1.1c0.1,0.3,0.2,0.5,0.2,0.7c0.1,0.2,0.1,0.3,0.2,0.5c0,0.1,0.1,0.2,0.1,0.2
						c0.1,0.2,0.2,0.4,0.2,0.7c0.4,0.9,0.8,1.8,1.3,2.7c0.1,0.2,0.2,0.4,0.3,0.6c0,0.1,0.1,0.1,0.1,0.2c0.2,0.3,0.3,0.5,0.5,0.8
						c0.1,0.2,0.2,0.4,0.4,0.5c0,0,0,0,0,0.1c0.2,0.3,0.4,0.5,0.6,0.8c0.2,0.2,0.4,0.4,0.6,0.7c0.5,0.6,1.1,1.2,1.7,1.7
						c0.2,0.1,0.3,0.3,0.5,0.4c0.1,0.1,0.3,0.2,0.4,0.3c0.4,0.3,0.7,0.5,1.1,0.8c0.1,0.1,0.3,0.2,0.5,0.3c-0.1,0-0.2-0.1-0.3-0.2
						l-20-11.6c-1.6-0.9-3-2.1-4.2-3.5c-3.7-4.2-5.9-10.6-5.9-18.9c0-1.3,0.1-2.6,0.2-3.9c0-0.4,0.1-0.8,0.1-1.2
						c0.1-0.6,0.1-1.2,0.2-1.7c0-0.3,0.1-0.5,0.1-0.8c0.1-0.9,0.3-1.8,0.5-2.8c0.1-0.4,0.1-0.9,0.2-1.3c0-0.2,0.1-0.4,0.2-0.6
						c0.1-0.6,0.3-1.2,0.4-1.8c0.1-0.5,0.2-1.1,0.4-1.6c0.1-0.3,0.2-0.6,0.3-0.9c0.1-0.5,0.3-1,0.4-1.4c0.1-0.4,0.2-0.8,0.4-1.2
						c0.2-0.5,0.4-1.1,0.6-1.6c0.1-0.4,0.3-0.8,0.4-1.1c0.1-0.2,0.1-0.4,0.2-0.6c0.4-1,0.8-2.1,1.3-3.1c0-0.1,0-0.1,0.1-0.1
						c0.1-0.1,0.1-0.3,0.2-0.4c0.4-0.8,0.7-1.6,1.1-2.4c0.1-0.3,0.3-0.6,0.5-0.9c0.2-0.4,0.4-0.7,0.5-1c0.2-0.3,0.3-0.7,0.5-1
						c0.4-0.7,0.8-1.4,1.2-2.2c0.1-0.2,0.2-0.4,0.3-0.6c0-0.1,0.1-0.1,0.1-0.2c0.6-1,1.2-2,1.8-3c0.1-0.1,0.2-0.3,0.3-0.4
						c0.2-0.3,0.4-0.7,0.7-1c0.4-0.5,0.7-1.1,1-1.6c0.2-0.3,0.4-0.6,0.7-0.9c0.3-0.4,0.6-0.9,1-1.3c0.2-0.3,0.4-0.6,0.7-0.9
						c0.3-0.4,0.6-0.7,0.9-1.1c0.4-0.6,0.9-1.1,1.4-1.7c0.2-0.2,0.4-0.5,0.6-0.7c0.2-0.3,0.5-0.5,0.7-0.8c0.8-0.9,1.5-1.7,2.3-2.5
						c0.3-0.3,0.5-0.5,0.7-0.8c0.2-0.2,0.5-0.5,0.7-0.7c0.4-0.4,0.8-0.7,1.2-1.1c0.6-0.6,1.3-1.2,2-1.7c0.4-0.3,0.8-0.7,1.2-1
						c0.7-0.6,1.5-1.1,2.2-1.7c0.4-0.2,0.7-0.5,1.1-0.8c1.1-0.7,2.2-1.5,3.3-2.1c0.7-0.4,1.5-0.8,2.2-1.2c0.2-0.1,0.4-0.2,0.6-0.3
						c0.6-0.3,1.1-0.5,1.7-0.8c0.1-0.1,0.2-0.1,0.4-0.2c0.1,0,0.1-0.1,0.2-0.1c0.5-0.2,1-0.4,1.5-0.6c0.1,0,0.3-0.1,0.4-0.1
						c0.6-0.2,1.3-0.4,1.9-0.6c0,0,0.1,0,0.1,0c0.1,0,0.1,0,0.2,0c1-0.3,1.9-0.5,2.9-0.6c0,0,0,0,0,0c0.8-0.1,1.6-0.2,2.3-0.2
						c0.1,0,0.2,0,0.3,0c0.1,0,0.1,0,0.2,0c0.7,0,1.4,0,2,0c0,0,0.1,0,0.1,0c0.1,0,0.2,0,0.3,0c0.5,0,1.1,0.1,1.6,0.2
						c0.1,0,0.2,0,0.3,0c0.1,0,0.1,0,0.2,0.1c0.6,0.1,1.2,0.2,1.7,0.4c0,0,0,0,0,0c0,0,0,0,0.1,0c0.5,0.2,1.1,0.3,1.6,0.6
						c0.1,0,0.1,0,0.2,0.1c0.1,0,0.2,0.1,0.2,0.1c0.3,0.1,0.6,0.3,0.9,0.4c0.1,0.1,0.2,0.1,0.4,0.2c0.1,0,0.1,0.1,0.2,0.1
						c0.1,0,0.1,0.1,0.2,0.1L1317,1657.6z"/>
					<g>
						<linearGradient id="SVGID_22_" gradientUnits="userSpaceOnUse" x1="1257.4438" y1="1700.084" x2="1327.1809" y2="1700.084">
							<stop  offset="0" style="stop-color:#303030"/>
							<stop  offset="1" style="stop-color:#4C4A4B"/>
						</linearGradient>
						<path class="st38" d="M1327.2,1679.9c0.1,22.1-15.5,49.1-34.8,60.2c-9.7,5.6-18.6,6.1-24.9,2.4c-0.1,0-0.2-0.1-0.3-0.2
							c-0.1,0-0.1-0.1-0.2-0.1c-0.4-0.2-0.7-0.5-1.1-0.8c-0.1-0.1-0.3-0.2-0.4-0.3c-0.2-0.1-0.3-0.2-0.5-0.4c-0.6-0.5-1.1-1-1.7-1.7
							c-0.2-0.2-0.4-0.4-0.6-0.7c-0.2-0.2-0.4-0.5-0.6-0.8c0,0,0,0,0-0.1c-0.1-0.2-0.2-0.3-0.4-0.5c-0.2-0.2-0.3-0.5-0.5-0.8
							c0-0.1-0.1-0.1-0.1-0.2c-0.1-0.2-0.2-0.4-0.3-0.6c-0.5-0.8-0.9-1.7-1.3-2.7c-0.1-0.2-0.2-0.4-0.2-0.7c0-0.1-0.1-0.2-0.1-0.2
							c-0.1-0.2-0.1-0.3-0.2-0.5c-0.1-0.2-0.2-0.5-0.2-0.7c-0.1-0.4-0.2-0.8-0.3-1.1c0,0,0,0,0,0c-0.1-0.4-0.2-0.8-0.3-1.2
							c-0.1-0.3-0.1-0.7-0.2-1c0-0.1,0-0.2-0.1-0.3c-0.1-0.4-0.1-0.8-0.2-1.2c-0.1-0.4-0.1-0.7-0.1-1.1c-0.1-0.5-0.1-1-0.1-1.5
							c0-0.3,0-0.5-0.1-0.8c0-0.1,0-0.2,0-0.3c0-0.2,0-0.5,0-0.8c0-0.4,0-0.7,0-1.1c0-0.4,0-0.8,0-1.2c0-0.5,0-1,0.1-1.5
							c0.1-2.4,0.4-4.9,0.9-7.4c0-0.2,0.1-0.3,0.1-0.5c0.7-3.8,1.8-7.6,3.2-11.3c0.2-0.6,0.5-1.3,0.7-1.9c0.3-0.6,0.5-1.3,0.8-1.9
							c1.3-2.9,2.7-5.8,4.3-8.5c0.4-0.6,0.7-1.3,1.1-1.9c5.8-9.5,13.4-17.7,21.8-23c0.6-0.4,1.1-0.7,1.7-1c0.4-0.2,0.9-0.5,1.3-0.7
							c0.8-0.4,1.6-0.8,2.4-1.2c0.3-0.1,0.6-0.2,0.8-0.4c0.2-0.1,0.4-0.2,0.6-0.3c0.3-0.1,0.5-0.2,0.8-0.3c0.3-0.1,0.5-0.2,0.8-0.3
							c0.1-0.1,0.3-0.1,0.4-0.1c0.2-0.1,0.4-0.1,0.6-0.2c0.1,0,0.2-0.1,0.4-0.1h0c0.3-0.1,0.6-0.2,0.9-0.3c0.3-0.1,0.6-0.2,0.9-0.2
							c0.5-0.1,0.9-0.2,1.4-0.3c0.3-0.1,0.6-0.1,0.8-0.1c0.5-0.1,1-0.1,1.5-0.2c0.3,0,0.6-0.1,0.9-0.1c0.2,0,0.3,0,0.5,0
							c0.7,0,1.3,0,1.9,0c0.1,0,0.3,0,0.4,0c0.6,0,1.2,0.1,1.8,0.2c0.1,0,0.1,0,0.2,0c0.2,0,0.4,0.1,0.6,0.1
							c0.3,0.1,0.5,0.1,0.8,0.2c0,0,0,0,0,0c0.2,0.1,0.4,0.1,0.6,0.2c0.2,0.1,0.4,0.1,0.6,0.2c0.4,0.1,0.8,0.3,1.2,0.5
							c0.5,0.2,1,0.5,1.5,0.7c5.5,3.1,9.2,9.4,10.2,18.3C1327.1,1677.1,1327.2,1678.5,1327.2,1679.9z"/>
					</g>
				</g>
				<g>
					<linearGradient id="SVGID_23_" gradientUnits="userSpaceOnUse" x1="1272.9913" y1="1700.1523" x2="1316.3829" y2="1700.1523">
						<stop  offset="0" style="stop-color:#303030"/>
						<stop  offset="1" style="stop-color:#3C3C3C"/>
					</linearGradient>
					<path class="st39" d="M1316.4,1686.2c0,15.3-10.7,33.9-24,41.6c-7.9,4.6-15,4.2-19.4-0.1c3.7,0.5,8-0.5,12.7-3.2
						c13.3-7.7,24-26.3,24-41.6c0-6.1-1.8-10.8-4.7-13.7C1311.8,1670.2,1316.3,1676.3,1316.4,1686.2z"/>
				</g>
				<g>
					<linearGradient id="SVGID_24_" gradientUnits="userSpaceOnUse" x1="1291.067" y1="1665.1499" x2="1287.3914" y2="1723.1716">
						<stop  offset="0" style="stop-color:#3F3F3F"/>
						<stop  offset="1" style="stop-color:#727272"/>
					</linearGradient>
					<path class="st40" d="M1309.7,1683c0,15.3-10.7,33.9-24,41.6c-4.6,2.7-9,3.7-12.7,3.2c-3-2.9-4.7-7.6-4.8-13.7
						c0-15.3,10.7-33.9,24-41.5c4.7-2.7,9-3.7,12.7-3.2C1307.9,1672.2,1309.7,1676.8,1309.7,1683z"/>
				</g>
				<g>
					<linearGradient id="SVGID_25_" gradientUnits="userSpaceOnUse" x1="1280.6392" y1="1696.9034" x2="1301.2406" y2="1696.9034">
						<stop  offset="0" style="stop-color:#303030"/>
						<stop  offset="1" style="stop-color:#231A1A"/>
					</linearGradient>
					<path class="st41" d="M1301.2,1687.8C1301.2,1687.8,1301.2,1687.8,1301.2,1687.8c-0.1,0-0.1,0-0.1-0.1
						c-0.1-0.1-0.2-0.1-0.3-0.2c0,0-0.1,0-0.1,0c-0.1,0-0.1-0.1-0.2-0.1c0,0-0.1,0-0.1,0c0,0,0,0-0.1,0c0,0,0,0,0,0c0,0-0.1,0-0.1,0
						c0,0,0,0,0,0c-0.1,0-0.1,0-0.2-0.1c-0.1,0-0.1,0-0.2,0c0,0,0,0-0.1,0c-0.1,0-0.3,0-0.4,0c0,0-0.1,0-0.1,0c-0.2,0-0.3,0-0.5,0
						c-0.1,0-0.2,0-0.4,0c-0.1,0-0.2,0-0.4,0c-0.1,0-0.1,0-0.2,0c-0.1,0-0.2,0-0.4,0.1c-0.1,0-0.1,0-0.2,0c0,0,0,0-0.1,0
						c-0.1,0-0.2,0-0.2,0.1h0c0,0-0.1,0-0.1,0c-0.1,0-0.1,0-0.2,0.1c0,0-0.1,0-0.1,0c-0.1,0-0.1,0-0.2,0.1c-0.1,0-0.1,0-0.2,0.1
						c-0.1,0-0.2,0.1-0.4,0.2c-0.1,0-0.1,0.1-0.2,0.1c-0.1,0-0.1,0.1-0.2,0.1c-0.1,0-0.2,0.1-0.2,0.1c-0.1,0.1-0.2,0.1-0.3,0.2
						c-0.1,0.1-0.3,0.2-0.4,0.3s-0.3,0.2-0.4,0.3c-0.1,0.1-0.2,0.1-0.3,0.2c-0.2,0.1-0.4,0.3-0.6,0.4c-0.1,0.1-0.2,0.2-0.3,0.3
						c-0.2,0.1-0.3,0.3-0.5,0.4c-0.1,0.1-0.2,0.2-0.3,0.3c-0.1,0.1-0.3,0.3-0.4,0.4c-0.2,0.2-0.4,0.4-0.6,0.6
						c-0.1,0.1-0.2,0.3-0.3,0.4c-0.1,0.1-0.2,0.3-0.4,0.4c-0.1,0.2-0.3,0.3-0.4,0.5c-0.1,0.1-0.2,0.2-0.3,0.3
						c-0.2,0.2-0.3,0.4-0.4,0.6c-0.1,0.1-0.1,0.2-0.2,0.3c-0.1,0.2-0.2,0.3-0.3,0.5c-0.1,0.2-0.2,0.3-0.3,0.5c0,0,0,0.1-0.1,0.1
						c-0.2,0.3-0.3,0.5-0.4,0.8c0,0.1-0.1,0.2-0.1,0.3c-0.1,0.3-0.3,0.6-0.4,0.9c0,0,0,0.1-0.1,0.1c-0.1,0.2-0.1,0.3-0.2,0.5
						c-0.1,0.2-0.1,0.3-0.2,0.5c0,0.1-0.1,0.2-0.1,0.3c-0.1,0.2-0.2,0.5-0.2,0.7c0,0.1-0.1,0.2-0.1,0.4c-0.1,0.2-0.1,0.4-0.2,0.6
						c0,0.2-0.1,0.3-0.1,0.5c0,0.1-0.1,0.3-0.1,0.4c0,0,0,0.1,0,0.1c0,0.1,0,0.2-0.1,0.4c0,0.1,0,0.1,0,0.2c0,0.3-0.1,0.5-0.1,0.8
						c0,0.1,0,0.2,0,0.3c0,0.1,0,0.2,0,0.3c0,0.1,0,0.3,0,0.4c0,0.1,0,0.2,0,0.3c0,0.1,0,0.2,0,0.3c0,0.1,0,0.1,0,0.2
						c0,0,0,0.1,0,0.1c0,0.1,0,0.1,0,0.2c0,0.1,0,0.3,0,0.4c0,0.1,0,0.2,0,0.3c0,0.1,0,0.2,0,0.3c0,0,0,0.1,0,0.1
						c0,0.1,0,0.2,0.1,0.3c0,0.1,0,0.2,0.1,0.3c0,0,0,0,0,0c0,0.1,0.1,0.2,0.1,0.3c0,0.1,0,0.1,0.1,0.2c0,0,0,0.1,0,0.1
						c0,0,0,0,0,0.1c0,0.1,0,0.1,0.1,0.2c0.1,0.2,0.2,0.5,0.3,0.7c0,0.1,0.1,0.1,0.1,0.2c0,0,0,0,0,0.1c0,0.1,0.1,0.1,0.1,0.2
						c0,0,0.1,0.1,0.1,0.1c0,0,0,0,0,0c0,0.1,0.1,0.1,0.2,0.2c0,0.1,0.1,0.1,0.1,0.2c0.1,0.2,0.3,0.3,0.4,0.4c0,0,0.1,0.1,0.1,0.1
						c0,0,0.1,0.1,0.1,0.1c0.1,0.1,0.2,0.1,0.3,0.2c0,0,0.1,0,0.1,0.1c0,0,0,0-0.1,0l-5.2-3c-0.4-0.2-0.8-0.5-1.1-0.9
						c-1-1.1-1.5-2.7-1.5-4.9c0-0.3,0-0.7,0-1c0-0.1,0-0.2,0-0.3c0-0.1,0-0.3,0-0.4c0-0.1,0-0.1,0-0.2c0-0.2,0.1-0.5,0.1-0.7
						c0-0.1,0-0.2,0.1-0.3c0-0.1,0-0.1,0-0.2c0-0.2,0.1-0.3,0.1-0.5c0-0.1,0.1-0.3,0.1-0.4c0-0.1,0-0.2,0.1-0.2
						c0-0.1,0.1-0.2,0.1-0.4c0-0.1,0.1-0.2,0.1-0.3c0-0.1,0.1-0.3,0.1-0.4c0-0.1,0.1-0.2,0.1-0.3c0,0,0-0.1,0.1-0.1
						c0.1-0.3,0.2-0.5,0.3-0.8c0,0,0,0,0,0c0,0,0-0.1,0.1-0.1c0.1-0.2,0.2-0.4,0.3-0.6c0-0.1,0.1-0.2,0.1-0.2c0-0.1,0.1-0.2,0.1-0.3
						c0-0.1,0.1-0.2,0.1-0.3c0.1-0.2,0.2-0.4,0.3-0.6c0-0.1,0.1-0.1,0.1-0.2c0,0,0,0,0,0c0.1-0.3,0.3-0.5,0.5-0.8
						c0,0,0.1-0.1,0.1-0.1c0.1-0.1,0.1-0.2,0.2-0.3c0.1-0.1,0.2-0.3,0.3-0.4c0.1-0.1,0.1-0.2,0.2-0.2c0.1-0.1,0.2-0.2,0.3-0.3
						c0.1-0.1,0.1-0.2,0.2-0.2c0.1-0.1,0.2-0.2,0.2-0.3c0.1-0.1,0.2-0.3,0.4-0.4c0.1-0.1,0.1-0.1,0.2-0.2c0.1-0.1,0.1-0.1,0.2-0.2
						c0.2-0.2,0.4-0.4,0.6-0.6c0.1-0.1,0.1-0.1,0.2-0.2c0.1-0.1,0.1-0.1,0.2-0.2c0.1-0.1,0.2-0.2,0.3-0.3c0.2-0.2,0.3-0.3,0.5-0.4
						c0.1-0.1,0.2-0.2,0.3-0.3c0.2-0.1,0.4-0.3,0.6-0.4c0.1-0.1,0.2-0.1,0.3-0.2c0.3-0.2,0.6-0.4,0.9-0.5c0.2-0.1,0.4-0.2,0.6-0.3
						c0.1,0,0.1-0.1,0.2-0.1c0.1-0.1,0.3-0.1,0.4-0.2c0,0,0.1,0,0.1,0c0,0,0,0,0.1,0c0.1-0.1,0.3-0.1,0.4-0.2c0,0,0.1,0,0.1,0
						c0.2-0.1,0.3-0.1,0.5-0.1c0,0,0,0,0,0c0,0,0,0,0,0c0.3-0.1,0.5-0.1,0.7-0.2h0c0.2,0,0.4,0,0.6-0.1c0,0,0,0,0.1,0c0,0,0,0,0,0
						c0.2,0,0.4,0,0.5,0c0,0,0,0,0,0c0,0,0.1,0,0.1,0c0.1,0,0.3,0,0.4,0c0,0,0,0,0.1,0c0,0,0,0,0.1,0c0.2,0,0.3,0.1,0.4,0.1
						c0,0,0,0,0,0c0,0,0,0,0,0c0.1,0,0.3,0.1,0.4,0.1c0,0,0,0,0.1,0c0,0,0,0,0.1,0c0.1,0,0.2,0.1,0.2,0.1c0,0,0.1,0,0.1,0.1
						c0,0,0,0,0.1,0c0,0,0,0,0,0L1301.2,1687.8z"/>
					<g>
						<linearGradient id="SVGID_26_" gradientUnits="userSpaceOnUse" x1="1285.8937" y1="1698.7426" x2="1303.8601" y2="1698.7426">
							<stop  offset="0" style="stop-color:#3F3F3F"/>
							<stop  offset="1" style="stop-color:#727272"/>
						</linearGradient>
						<path class="st42" d="M1303.9,1693.6c0,5.7-4,12.6-9,15.5c-2.5,1.5-4.8,1.6-6.4,0.6c0,0,0,0-0.1,0c0,0,0,0-0.1,0
							c-0.1-0.1-0.2-0.1-0.3-0.2c0,0-0.1-0.1-0.1-0.1c0,0-0.1-0.1-0.1-0.1c-0.2-0.1-0.3-0.3-0.4-0.4c0-0.1-0.1-0.1-0.1-0.2
							c-0.1-0.1-0.1-0.1-0.2-0.2c0,0,0,0,0,0c0,0-0.1-0.1-0.1-0.1c0-0.1-0.1-0.1-0.1-0.2c0,0,0,0,0-0.1c0,0-0.1-0.1-0.1-0.2
							c-0.1-0.2-0.2-0.4-0.3-0.7c0-0.1,0-0.1-0.1-0.2c0,0,0,0,0-0.1c0,0,0-0.1,0-0.1c0-0.1,0-0.1-0.1-0.2c0-0.1-0.1-0.2-0.1-0.3
							c0,0,0,0,0,0c0-0.1-0.1-0.2-0.1-0.3c0-0.1,0-0.2-0.1-0.3c0,0,0-0.1,0-0.1c0-0.1,0-0.2,0-0.3c0-0.1,0-0.2,0-0.3
							c0-0.1,0-0.2,0-0.4c0-0.1,0-0.1,0-0.2c0,0,0-0.1,0-0.1c0-0.1,0-0.1,0-0.2c0-0.1,0-0.2,0-0.3c0-0.1,0-0.2,0-0.3
							c0-0.1,0-0.3,0-0.4c0-0.6,0.1-1.3,0.2-1.9c0,0,0-0.1,0-0.1c0.2-1,0.5-1.9,0.8-2.9c0.1-0.2,0.1-0.3,0.2-0.5
							c0.1-0.2,0.1-0.3,0.2-0.5c0.3-0.7,0.7-1.5,1.1-2.2c0.1-0.2,0.2-0.3,0.3-0.5c1.5-2.4,3.5-4.6,5.6-5.9c0.1-0.1,0.3-0.2,0.4-0.3
							c0.1-0.1,0.2-0.1,0.3-0.2c0.2-0.1,0.4-0.2,0.6-0.3c0.1,0,0.1-0.1,0.2-0.1c0.1,0,0.1,0,0.2-0.1c0.1,0,0.1-0.1,0.2-0.1
							c0.1,0,0.1-0.1,0.2-0.1c0,0,0.1,0,0.1,0c0.1,0,0.1,0,0.2-0.1c0,0,0.1,0,0.1,0h0c0.1,0,0.2,0,0.2-0.1c0.1,0,0.2,0,0.2-0.1
							c0.1,0,0.2-0.1,0.4-0.1c0.1,0,0.1,0,0.2,0c0.1,0,0.3,0,0.4,0c0.1,0,0.2,0,0.2,0c0,0,0.1,0,0.1,0c0.2,0,0.3,0,0.5,0
							c0,0,0.1,0,0.1,0c0.2,0,0.3,0,0.5,0.1c0,0,0,0,0.1,0c0.1,0,0.1,0,0.2,0c0.1,0,0.1,0,0.2,0c0,0,0,0,0,0c0.1,0,0.1,0,0.2,0
							c0,0,0.1,0,0.1,0c0.1,0,0.2,0.1,0.3,0.1c0.1,0.1,0.3,0.1,0.4,0.2c1.4,0.8,2.4,2.4,2.6,4.7
							C1303.8,1692.8,1303.9,1693.2,1303.9,1693.6z"/>
					</g>
				</g>
			</g>
			<g>
				<g>
					<linearGradient id="SVGID_27_" gradientUnits="userSpaceOnUse" x1="932.4187" y1="1854.6681" x2="1012.3838" y2="1854.6681">
						<stop  offset="0" style="stop-color:#303030"/>
						<stop  offset="1" style="stop-color:#727272"/>
					</linearGradient>
					<path class="st43" d="M1012.4,1819.3c-0.1,0-0.1-0.1-0.2-0.1c-0.1,0-0.2-0.1-0.2-0.1c-0.4-0.2-0.8-0.4-1.3-0.6
						c-0.1-0.1-0.3-0.1-0.4-0.2c-0.3-0.1-0.5-0.2-0.8-0.3c-0.2-0.1-0.4-0.1-0.6-0.2c-0.1,0-0.2-0.1-0.2-0.1c0,0-0.1,0-0.1,0
						c-0.1,0-0.2-0.1-0.3-0.1c0,0,0,0,0,0c-0.2-0.1-0.5-0.1-0.8-0.2c-0.3-0.1-0.6-0.1-0.9-0.2c-0.1,0-0.2,0-0.3,0
						c-0.5-0.1-1-0.1-1.6-0.2c-0.1,0-0.3,0-0.4,0c-0.6,0-1.3,0-1.9,0c-0.5,0-0.9,0-1.4,0.1c-0.5,0-1,0.1-1.5,0.2
						c-0.3,0-0.6,0.1-0.8,0.1c-0.4,0.1-0.9,0.2-1.4,0.3c-0.2,0.1-0.4,0.1-0.6,0.2c-0.1,0-0.2,0-0.2,0.1c-0.3,0.1-0.6,0.2-0.9,0.3h0
						c-0.1,0-0.2,0.1-0.4,0.1c-0.2,0.1-0.4,0.1-0.6,0.2c-0.1,0-0.3,0.1-0.4,0.1c-0.3,0.1-0.5,0.2-0.8,0.3c-0.2,0.1-0.5,0.2-0.8,0.3
						c-0.5,0.2-0.9,0.4-1.4,0.6c-0.3,0.1-0.6,0.3-0.8,0.4c-0.2,0.1-0.4,0.2-0.6,0.3c-0.3,0.2-0.6,0.3-0.9,0.5
						c-0.4,0.2-0.9,0.5-1.3,0.7c-0.6,0.3-1.1,0.7-1.7,1c-0.6,0.4-1.1,0.7-1.7,1.1c-0.4,0.2-0.7,0.5-1.1,0.8
						c-0.7,0.5-1.5,1.1-2.2,1.7c-0.4,0.3-0.8,0.7-1.2,1c-0.7,0.6-1.3,1.1-2,1.7c-0.4,0.4-0.8,0.7-1.2,1.1c-0.5,0.5-1,1-1.5,1.5
						c-0.8,0.8-1.6,1.6-2.3,2.5c-0.4,0.5-0.9,1-1.3,1.5c-0.5,0.5-0.9,1.1-1.4,1.7c-0.5,0.7-1.1,1.3-1.6,2c-0.3,0.4-0.7,0.9-1,1.3
						c-0.6,0.8-1.2,1.6-1.7,2.5c-0.2,0.3-0.5,0.7-0.7,1c-0.4,0.6-0.8,1.2-1.1,1.8c-0.4,0.6-0.7,1.2-1.1,1.9
						c-0.1,0.2-0.2,0.4-0.3,0.5c-0.6,1-1.2,2.1-1.7,3.1c-0.2,0.3-0.4,0.7-0.5,1c-0.6,1.1-1.1,2.2-1.6,3.4c-0.1,0.2-0.1,0.3-0.2,0.5
						c-0.3,0.6-0.5,1.3-0.8,1.9c-0.3,0.6-0.5,1.3-0.7,1.9c-0.1,0.4-0.3,0.8-0.4,1.1c-0.3,0.9-0.6,1.9-0.9,2.8
						c-0.2,0.5-0.3,1-0.4,1.4c-0.2,0.8-0.5,1.7-0.7,2.5c-0.2,0.6-0.3,1.2-0.4,1.8c-0.1,0.6-0.2,1.1-0.4,1.7c0,0.2-0.1,0.3-0.1,0.5
						c-0.1,0.5-0.2,0.9-0.3,1.4c0,0.2-0.1,0.4-0.1,0.6c-0.2,1-0.3,2-0.4,3c0,0.4-0.1,0.8-0.1,1.2c0,0.4-0.1,0.8-0.1,1.2
						c0,0.5-0.1,1-0.1,1.5c0,0.4,0,0.8,0,1.2c0,0.4,0,0.7,0,1.1c0,0.3,0,0.5,0,0.8c0,0.1,0,0.2,0,0.3c0,0.3,0,0.5,0.1,0.8
						c0,0.5,0.1,1,0.1,1.5c0,0.4,0.1,0.7,0.1,1.1c0.1,0.4,0.1,0.8,0.2,1.2c0,0.1,0,0.2,0.1,0.3c0.1,0.3,0.1,0.7,0.2,1
						c0.1,0.4,0.2,0.8,0.3,1.2v0c0.1,0.4,0.2,0.8,0.3,1.1c0.1,0.3,0.2,0.5,0.2,0.7c0.1,0.2,0.1,0.3,0.2,0.5c0,0.1,0.1,0.2,0.1,0.2
						c0.1,0.2,0.2,0.4,0.2,0.7c0.4,0.9,0.8,1.8,1.3,2.7c0.1,0.2,0.2,0.4,0.3,0.6c0,0.1,0.1,0.1,0.1,0.2c0.2,0.3,0.3,0.5,0.5,0.8
						c0.1,0.2,0.2,0.4,0.4,0.5c0,0,0,0,0,0.1c0.2,0.3,0.4,0.5,0.6,0.8c0.2,0.2,0.4,0.4,0.6,0.7c0.5,0.6,1.1,1.2,1.7,1.7
						c0.2,0.1,0.3,0.3,0.5,0.4c0.1,0.1,0.3,0.2,0.4,0.3c0.4,0.3,0.7,0.5,1.1,0.8c0.1,0.1,0.3,0.2,0.5,0.3c-0.1,0-0.2-0.1-0.3-0.2
						l-20-11.6c-1.6-0.9-3-2.1-4.2-3.5c-3.7-4.2-5.9-10.6-5.9-18.9c0-1.3,0.1-2.6,0.2-3.9c0-0.4,0.1-0.8,0.1-1.2
						c0.1-0.6,0.1-1.2,0.2-1.7c0-0.3,0.1-0.5,0.1-0.8c0.1-0.9,0.3-1.8,0.5-2.8c0.1-0.4,0.1-0.9,0.2-1.3c0-0.2,0.1-0.4,0.2-0.6
						c0.1-0.6,0.3-1.2,0.4-1.8c0.1-0.5,0.2-1.1,0.4-1.6c0.1-0.3,0.2-0.6,0.3-0.9c0.1-0.5,0.3-1,0.4-1.4c0.1-0.4,0.2-0.8,0.4-1.2
						c0.2-0.5,0.4-1.1,0.6-1.6c0.1-0.4,0.3-0.8,0.4-1.1c0.1-0.2,0.1-0.4,0.2-0.6c0.4-1,0.8-2.1,1.3-3.1c0-0.1,0-0.1,0.1-0.1
						c0.1-0.1,0.1-0.3,0.2-0.4c0.4-0.8,0.7-1.6,1.1-2.4c0.1-0.3,0.3-0.6,0.5-0.9c0.2-0.4,0.4-0.7,0.5-1c0.2-0.3,0.3-0.7,0.5-1
						c0.4-0.7,0.8-1.4,1.2-2.2c0.1-0.2,0.2-0.4,0.3-0.6c0-0.1,0.1-0.1,0.1-0.2c0.6-1,1.2-2,1.8-3c0.1-0.1,0.2-0.3,0.3-0.4
						c0.2-0.3,0.4-0.7,0.7-1c0.4-0.5,0.7-1.1,1-1.6c0.2-0.3,0.4-0.6,0.7-0.9c0.3-0.4,0.6-0.9,1-1.3c0.2-0.3,0.4-0.6,0.7-0.9
						c0.3-0.4,0.6-0.7,0.9-1.1c0.4-0.6,0.9-1.1,1.4-1.7c0.2-0.2,0.4-0.5,0.6-0.7c0.2-0.3,0.5-0.5,0.7-0.8c0.8-0.9,1.5-1.7,2.3-2.5
						c0.3-0.3,0.5-0.5,0.7-0.8c0.2-0.2,0.5-0.5,0.7-0.7c0.4-0.4,0.8-0.7,1.2-1.1c0.6-0.6,1.3-1.2,2-1.7c0.4-0.3,0.8-0.7,1.2-1
						c0.7-0.6,1.5-1.1,2.2-1.7c0.4-0.2,0.7-0.5,1.1-0.8c1.1-0.7,2.2-1.5,3.3-2.1c0.7-0.4,1.5-0.8,2.2-1.2c0.2-0.1,0.4-0.2,0.6-0.3
						c0.6-0.3,1.1-0.5,1.7-0.8c0.1-0.1,0.2-0.1,0.4-0.2c0.1,0,0.1-0.1,0.2-0.1c0.5-0.2,1-0.4,1.5-0.6c0.1,0,0.3-0.1,0.4-0.1
						c0.6-0.2,1.3-0.4,1.9-0.6c0,0,0.1,0,0.1,0c0.1,0,0.1,0,0.2,0c1-0.3,1.9-0.5,2.9-0.6c0,0,0,0,0,0c0.8-0.1,1.6-0.2,2.3-0.2
						c0.1,0,0.2,0,0.3,0c0.1,0,0.1,0,0.2,0c0.7,0,1.4,0,2,0c0,0,0.1,0,0.1,0c0.1,0,0.2,0,0.3,0c0.5,0,1.1,0.1,1.6,0.2
						c0.1,0,0.2,0,0.3,0c0.1,0,0.1,0,0.2,0.1c0.6,0.1,1.2,0.2,1.7,0.4l0,0c0,0,0,0,0.1,0c0.5,0.2,1.1,0.3,1.6,0.6
						c0.1,0,0.1,0,0.2,0.1c0.1,0,0.2,0.1,0.2,0.1c0.3,0.1,0.6,0.3,0.9,0.4c0.1,0.1,0.2,0.1,0.4,0.2c0.1,0,0.1,0.1,0.2,0.1
						c0.1,0,0.1,0.1,0.2,0.1L1012.4,1819.3z"/>
					<g>
						<linearGradient id="SVGID_28_" gradientUnits="userSpaceOnUse" x1="952.8144" y1="1861.8063" x2="1022.5515" y2="1861.8063">
							<stop  offset="0" style="stop-color:#303030"/>
							<stop  offset="1" style="stop-color:#4C4A4B"/>
						</linearGradient>
						<path class="st44" d="M1022.6,1841.7c0.1,22.1-15.5,49.1-34.8,60.2c-9.7,5.6-18.6,6.1-24.9,2.4c-0.1,0-0.2-0.1-0.3-0.2
							c-0.1,0-0.1-0.1-0.2-0.1c-0.4-0.2-0.7-0.5-1.1-0.8c-0.1-0.1-0.3-0.2-0.4-0.3c-0.2-0.1-0.3-0.2-0.5-0.4c-0.6-0.5-1.1-1-1.7-1.7
							c-0.2-0.2-0.4-0.4-0.6-0.7c-0.2-0.2-0.4-0.5-0.6-0.8c0,0,0,0,0-0.1c-0.1-0.2-0.2-0.3-0.4-0.5c-0.2-0.2-0.3-0.5-0.5-0.8
							c0-0.1-0.1-0.1-0.1-0.2c-0.1-0.2-0.2-0.4-0.3-0.6c-0.5-0.8-0.9-1.7-1.3-2.7c-0.1-0.2-0.2-0.4-0.2-0.7c0-0.1-0.1-0.2-0.1-0.2
							c-0.1-0.2-0.1-0.3-0.2-0.5c-0.1-0.2-0.2-0.5-0.2-0.7c-0.1-0.4-0.2-0.8-0.3-1.1v0c-0.1-0.4-0.2-0.8-0.3-1.2
							c-0.1-0.3-0.1-0.7-0.2-1c0-0.1,0-0.2-0.1-0.3c-0.1-0.4-0.1-0.8-0.2-1.2c-0.1-0.4-0.1-0.7-0.1-1.1c-0.1-0.5-0.1-1-0.1-1.5
							c0-0.3,0-0.5-0.1-0.8c0-0.1,0-0.2,0-0.3c0-0.2,0-0.5,0-0.8c0-0.4,0-0.7,0-1.1c0-0.4,0-0.8,0-1.2c0-0.5,0-1,0.1-1.5
							c0.1-2.4,0.4-4.9,0.9-7.4c0-0.2,0.1-0.3,0.1-0.5c0.7-3.8,1.8-7.6,3.2-11.3c0.2-0.6,0.5-1.3,0.7-1.9c0.3-0.6,0.5-1.3,0.8-1.9
							c1.3-2.9,2.7-5.8,4.3-8.5c0.4-0.6,0.7-1.3,1.1-1.9c5.8-9.5,13.4-17.7,21.8-23c0.6-0.4,1.1-0.7,1.7-1c0.4-0.2,0.9-0.5,1.3-0.7
							c0.8-0.4,1.6-0.8,2.4-1.2c0.3-0.1,0.6-0.2,0.8-0.4c0.2-0.1,0.4-0.2,0.6-0.3c0.3-0.1,0.5-0.2,0.8-0.3c0.3-0.1,0.5-0.2,0.8-0.3
							c0.1-0.1,0.3-0.1,0.4-0.1c0.2-0.1,0.4-0.1,0.6-0.2c0.1,0,0.2-0.1,0.4-0.1h0c0.3-0.1,0.6-0.2,0.9-0.3c0.3-0.1,0.6-0.2,0.9-0.2
							c0.5-0.1,0.9-0.2,1.4-0.3c0.3-0.1,0.6-0.1,0.8-0.1c0.5-0.1,1-0.1,1.5-0.2c0.3,0,0.6-0.1,0.9-0.1c0.2,0,0.3,0,0.5,0
							c0.7,0,1.3,0,1.9,0c0.1,0,0.3,0,0.4,0c0.6,0,1.2,0.1,1.8,0.2c0.1,0,0.1,0,0.2,0c0.2,0,0.4,0.1,0.6,0.1
							c0.3,0.1,0.5,0.1,0.8,0.2c0,0,0,0,0,0c0.2,0.1,0.4,0.1,0.6,0.2c0.2,0.1,0.4,0.1,0.6,0.2c0.4,0.1,0.8,0.3,1.2,0.5
							c0.5,0.2,1,0.5,1.5,0.7c5.5,3.1,9.2,9.4,10.2,18.3C1022.5,1838.8,1022.5,1840.2,1022.6,1841.7z"/>
					</g>
				</g>
				<g>
					<linearGradient id="SVGID_29_" gradientUnits="userSpaceOnUse" x1="968.3619" y1="1861.8745" x2="1011.7535" y2="1861.8745">
						<stop  offset="0" style="stop-color:#303030"/>
						<stop  offset="1" style="stop-color:#3C3C3C"/>
					</linearGradient>
					<path class="st45" d="M1011.8,1847.9c0,15.3-10.7,33.9-24,41.6c-7.9,4.6-15,4.2-19.4-0.1c3.7,0.5,8-0.5,12.7-3.2
						c13.3-7.7,24-26.3,24-41.6c0-6.1-1.8-10.8-4.7-13.7C1007.2,1831.9,1011.7,1838,1011.8,1847.9z"/>
				</g>
				<g>
					<linearGradient id="SVGID_30_" gradientUnits="userSpaceOnUse" x1="986.4376" y1="1826.8722" x2="982.762" y2="1884.8938">
						<stop  offset="0" style="stop-color:#3F3F3F"/>
						<stop  offset="1" style="stop-color:#727272"/>
					</linearGradient>
					<path class="st46" d="M1005,1844.7c0,15.3-10.7,33.9-24,41.6c-4.6,2.7-9,3.7-12.7,3.2c-3-2.9-4.7-7.6-4.8-13.7
						c0-15.3,10.7-33.9,24-41.5c4.7-2.7,9-3.7,12.7-3.2C1003.3,1833.9,1005,1838.6,1005,1844.7z"/>
				</g>
				<g>
					<linearGradient id="SVGID_31_" gradientUnits="userSpaceOnUse" x1="976.0097" y1="1858.6257" x2="996.6112" y2="1858.6257">
						<stop  offset="0" style="stop-color:#303030"/>
						<stop  offset="1" style="stop-color:#231A1A"/>
					</linearGradient>
					<path class="st47" d="M996.6,1849.5C996.6,1849.5,996.6,1849.5,996.6,1849.5C996.5,1849.5,996.5,1849.5,996.6,1849.5
						c-0.2-0.1-0.3-0.2-0.4-0.2c0,0-0.1,0-0.1,0c-0.1,0-0.1-0.1-0.2-0.1c0,0-0.1,0-0.1,0c0,0,0,0-0.1,0l0,0c0,0,0,0-0.1,0l0,0
						c-0.1,0-0.1,0-0.2,0c-0.1,0-0.1,0-0.2,0c0,0,0,0,0,0c-0.2,0-0.3,0-0.4-0.1c0,0-0.1,0-0.1,0c-0.2,0-0.3,0-0.5,0
						c-0.1,0-0.2,0-0.4,0c-0.1,0-0.2,0-0.4,0c-0.1,0-0.1,0-0.2,0c-0.1,0-0.2,0-0.4,0.1c-0.1,0-0.1,0-0.2,0c0,0,0,0-0.1,0
						c-0.1,0-0.2,0-0.2,0.1h0c0,0-0.1,0-0.1,0c-0.1,0-0.1,0-0.2,0.1c0,0-0.1,0-0.1,0c-0.1,0-0.1,0-0.2,0.1c-0.1,0-0.1,0-0.2,0.1
						c-0.1,0-0.2,0.1-0.4,0.2c-0.1,0-0.1,0.1-0.2,0.1c-0.1,0-0.1,0.1-0.2,0.1c-0.1,0-0.2,0.1-0.2,0.1c-0.1,0.1-0.2,0.1-0.3,0.2
						c-0.1,0.1-0.3,0.2-0.4,0.3c-0.1,0.1-0.3,0.2-0.4,0.3c-0.1,0.1-0.2,0.1-0.3,0.2c-0.2,0.1-0.4,0.3-0.6,0.4
						c-0.1,0.1-0.2,0.2-0.3,0.3c-0.2,0.1-0.3,0.3-0.5,0.4c-0.1,0.1-0.2,0.2-0.3,0.3c-0.1,0.1-0.3,0.3-0.4,0.4
						c-0.2,0.2-0.4,0.4-0.6,0.6c-0.1,0.1-0.2,0.3-0.3,0.4c-0.1,0.1-0.2,0.3-0.4,0.4c-0.1,0.2-0.3,0.3-0.4,0.5
						c-0.1,0.1-0.2,0.2-0.3,0.3c-0.2,0.2-0.3,0.4-0.4,0.6c-0.1,0.1-0.1,0.2-0.2,0.3c-0.1,0.2-0.2,0.3-0.3,0.5
						c-0.1,0.2-0.2,0.3-0.3,0.5c0,0,0,0.1-0.1,0.1c-0.2,0.3-0.3,0.5-0.4,0.8c0,0.1-0.1,0.2-0.1,0.3c-0.1,0.3-0.3,0.6-0.4,0.9
						c0,0,0,0.1-0.1,0.1c-0.1,0.2-0.1,0.3-0.2,0.5c-0.1,0.2-0.1,0.3-0.2,0.5c0,0.1-0.1,0.2-0.1,0.3c-0.1,0.2-0.2,0.5-0.2,0.7
						c0,0.1-0.1,0.2-0.1,0.4c-0.1,0.2-0.1,0.4-0.2,0.6c0,0.2-0.1,0.3-0.1,0.5c0,0.1-0.1,0.3-0.1,0.4c0,0,0,0.1,0,0.1
						c0,0.1,0,0.2-0.1,0.4c0,0.1,0,0.1,0,0.2c0,0.3-0.1,0.5-0.1,0.8c0,0.1,0,0.2,0,0.3c0,0.1,0,0.2,0,0.3c0,0.1,0,0.3,0,0.4
						c0,0.1,0,0.2,0,0.3c0,0.1,0,0.2,0,0.3c0,0.1,0,0.1,0,0.2c0,0,0,0.1,0,0.1c0,0.1,0,0.1,0,0.2c0,0.1,0,0.3,0,0.4
						c0,0.1,0,0.2,0,0.3c0,0.1,0,0.2,0,0.3c0,0,0,0.1,0,0.1c0,0.1,0,0.2,0.1,0.3c0,0.1,0,0.2,0.1,0.3v0c0,0.1,0.1,0.2,0.1,0.3
						c0,0.1,0,0.1,0.1,0.2c0,0,0,0.1,0,0.1c0,0,0,0,0,0c0,0.1,0,0.1,0.1,0.2c0.1,0.2,0.2,0.5,0.3,0.7c0,0.1,0.1,0.1,0.1,0.2
						c0,0,0,0,0,0.1c0,0.1,0.1,0.1,0.1,0.2c0,0,0.1,0.1,0.1,0.1l0,0c0,0.1,0.1,0.1,0.2,0.2c0,0.1,0.1,0.1,0.1,0.2
						c0.1,0.2,0.3,0.3,0.4,0.4c0,0,0.1,0.1,0.1,0.1c0,0,0.1,0.1,0.1,0.1c0.1,0.1,0.2,0.1,0.3,0.2c0,0,0.1,0,0.1,0.1c0,0,0,0-0.1,0
						l-5.2-3c-0.4-0.2-0.8-0.5-1.1-0.9c-1-1.1-1.5-2.7-1.5-4.9c0-0.3,0-0.7,0-1c0-0.1,0-0.2,0-0.3c0-0.1,0-0.3,0-0.4
						c0-0.1,0-0.1,0-0.2c0-0.2,0.1-0.5,0.1-0.7c0-0.1,0-0.2,0.1-0.3c0-0.1,0-0.1,0-0.2c0-0.2,0.1-0.3,0.1-0.5c0-0.1,0.1-0.3,0.1-0.4
						c0-0.1,0-0.2,0.1-0.2c0-0.1,0.1-0.2,0.1-0.4c0-0.1,0.1-0.2,0.1-0.3c0-0.1,0.1-0.3,0.1-0.4c0-0.1,0.1-0.2,0.1-0.3
						c0,0,0-0.1,0.1-0.1c0.1-0.3,0.2-0.5,0.3-0.8c0,0,0,0,0,0c0-0.1,0-0.1,0.1-0.1c0.1-0.2,0.2-0.4,0.3-0.6c0-0.1,0.1-0.2,0.1-0.2
						c0-0.1,0.1-0.2,0.1-0.3c0-0.1,0.1-0.2,0.1-0.3c0.1-0.2,0.2-0.4,0.3-0.6c0-0.1,0.1-0.1,0.1-0.2c0,0,0,0,0,0
						c0.2-0.3,0.3-0.5,0.5-0.8c0,0,0.1-0.1,0.1-0.1c0.1-0.1,0.1-0.2,0.2-0.3c0.1-0.1,0.2-0.3,0.3-0.4c0.1-0.1,0.1-0.2,0.2-0.2
						c0.1-0.1,0.2-0.2,0.3-0.3c0.1-0.1,0.1-0.2,0.2-0.2c0.1-0.1,0.2-0.2,0.2-0.3c0.1-0.1,0.2-0.3,0.4-0.4c0.1-0.1,0.1-0.1,0.2-0.2
						c0.1-0.1,0.1-0.1,0.2-0.2c0.2-0.2,0.4-0.4,0.6-0.6c0.1-0.1,0.1-0.1,0.2-0.2c0.1-0.1,0.1-0.1,0.2-0.2c0.1-0.1,0.2-0.2,0.3-0.3
						c0.2-0.2,0.3-0.3,0.5-0.4c0.1-0.1,0.2-0.2,0.3-0.3c0.2-0.1,0.4-0.3,0.6-0.4c0.1-0.1,0.2-0.1,0.3-0.2c0.3-0.2,0.6-0.4,0.9-0.5
						c0.2-0.1,0.4-0.2,0.6-0.3c0.1,0,0.1-0.1,0.2-0.1c0.1-0.1,0.3-0.1,0.4-0.2c0,0,0.1,0,0.1,0c0,0,0,0,0.1,0
						c0.1-0.1,0.3-0.1,0.4-0.2c0,0,0.1,0,0.1,0c0.2-0.1,0.3-0.1,0.5-0.1c0,0,0,0,0,0c0,0,0,0,0,0c0.3-0.1,0.5-0.1,0.8-0.2h0
						c0.2,0,0.4,0,0.6-0.1c0,0,0,0,0,0c0,0,0.1,0,0.1,0c0.2,0,0.4,0,0.5,0c0,0,0,0,0,0c0,0,0.1,0,0.1,0c0.1,0,0.3,0,0.4,0
						c0,0,0,0,0.1,0c0,0,0,0,0.1,0c0.2,0,0.3,0.1,0.4,0.1l0,0l0,0c0.1,0,0.3,0.1,0.4,0.1c0,0,0,0,0,0c0,0,0.1,0,0.1,0
						c0.1,0,0.2,0.1,0.3,0.1c0,0,0.1,0,0.1,0.1c0,0,0,0,0.1,0c0,0,0,0,0,0L996.6,1849.5z"/>
					<g>
						<linearGradient id="SVGID_32_" gradientUnits="userSpaceOnUse" x1="981.2643" y1="1860.4647" x2="999.2307" y2="1860.4647">
							<stop  offset="0" style="stop-color:#3F3F3F"/>
							<stop  offset="1" style="stop-color:#727272"/>
						</linearGradient>
						<path class="st48" d="M999.2,1855.3c0,5.7-4,12.6-9,15.5c-2.5,1.5-4.8,1.6-6.4,0.6c0,0,0,0-0.1,0c0,0,0,0-0.1,0
							c-0.1-0.1-0.2-0.1-0.3-0.2c0,0-0.1-0.1-0.1-0.1c0,0-0.1-0.1-0.1-0.1c-0.2-0.1-0.3-0.3-0.4-0.4c0-0.1-0.1-0.1-0.1-0.2
							c-0.1-0.1-0.1-0.1-0.2-0.2l0,0c0,0-0.1-0.1-0.1-0.1c0-0.1-0.1-0.1-0.1-0.2c0,0,0,0,0-0.1c0,0-0.1-0.1-0.1-0.2
							c-0.1-0.2-0.2-0.4-0.3-0.7c0-0.1,0-0.1-0.1-0.2c0,0,0,0,0-0.1c0,0,0-0.1,0-0.1c0-0.1,0-0.1-0.1-0.2c0-0.1-0.1-0.2-0.1-0.3v0
							c0-0.1-0.1-0.2-0.1-0.3c0-0.1,0-0.2-0.1-0.3c0,0,0-0.1,0-0.1c0-0.1,0-0.2,0-0.3c0-0.1,0-0.2,0-0.3c0-0.1,0-0.2,0-0.4
							c0-0.1,0-0.1,0-0.2c0,0,0-0.1,0-0.1c0-0.1,0-0.1,0-0.2c0-0.1,0-0.2,0-0.3c0-0.1,0-0.2,0-0.3c0-0.1,0-0.3,0-0.4
							c0-0.6,0.1-1.3,0.2-1.9c0,0,0-0.1,0-0.1c0.2-1,0.5-1.9,0.8-2.9c0.1-0.2,0.1-0.3,0.2-0.5c0.1-0.2,0.1-0.3,0.2-0.5
							c0.3-0.7,0.7-1.5,1.1-2.2c0.1-0.2,0.2-0.3,0.3-0.5c1.5-2.4,3.5-4.6,5.6-5.9c0.1-0.1,0.3-0.2,0.4-0.3c0.1-0.1,0.2-0.1,0.3-0.2
							c0.2-0.1,0.4-0.2,0.6-0.3c0.1,0,0.1-0.1,0.2-0.1c0.1,0,0.1,0,0.2-0.1c0.1,0,0.1-0.1,0.2-0.1c0.1,0,0.1-0.1,0.2-0.1
							c0,0,0.1,0,0.1,0c0.1,0,0.1,0,0.2-0.1c0,0,0.1,0,0.1,0h0c0.1,0,0.2,0,0.2-0.1c0.1,0,0.2,0,0.2-0.1c0.1,0,0.2-0.1,0.4-0.1
							c0.1,0,0.1,0,0.2,0c0.1,0,0.3,0,0.4,0c0.1,0,0.2,0,0.2,0c0,0,0.1,0,0.1,0c0.2,0,0.3,0,0.5,0c0,0,0.1,0,0.1,0
							c0.2,0,0.3,0,0.5,0.1c0,0,0,0,0,0c0.1,0,0.1,0,0.2,0c0.1,0,0.1,0,0.2,0l0,0c0.1,0,0.1,0,0.2,0c0,0,0.1,0,0.1,0
							c0.1,0,0.2,0.1,0.3,0.1c0.1,0.1,0.3,0.1,0.4,0.2c1.4,0.8,2.4,2.4,2.6,4.7C999.2,1854.5,999.2,1854.9,999.2,1855.3z"/>
					</g>
				</g>
			</g>
			<g>
				<path class="st49" d="M915.4,1874.3l427.5-246.3c8.4-4.8,8.4-16.8,0.1-21.8l-231.1-136.7c-10.8-6.4-24.2-6.4-35-0.1
					l-415.7,243.6"/>
				<g>
					<g>
						<g class="st12">
							<g>
								<polygon class="st25" points="1107.9,1723.8 1313.2,1601.5 1313.2,1386.7 1107.9,1509 								"/>
							</g>
							<g>
								<polygon class="st20" points="1107.9,1509 1313.2,1386.7 1103.2,1266.7 898,1389 								"/>
							</g>
							<g>
								<polygon class="st21" points="898,1389 898,1603.7 1107.9,1723.8 1107.9,1509 								"/>
							</g>
						</g>
					</g>
					<g class="st22">
						<polygon class="st23" points="1189.3,1461.7 1231.8,1436.3 1021.9,1316.3 979.3,1341.6 						"/>
					</g>
					<polygon class="st24" points="1231.8,1499 1189.3,1524.3 1189.3,1461.7 1231.8,1436.3 					"/>
					<g>
						<polygon class="st24" points="908.1,1473.6 950.6,1499 950.6,1436.3 908.1,1411 						"/>
						<g>
							<path class="st23" d="M915.1,1435.9l28.4,16.7c1,0.6,1.8,0.3,1.8-0.8l0,0c0-1-0.8-2.3-1.8-2.9l-28.4-16.7
								c-1-0.6-1.8-0.3-1.8,0.8l0,0C913.3,1434,914.1,1435.3,915.1,1435.9z"/>
							<path class="st23" d="M915.1,1448.4l28.4,16.7c1,0.6,1.8,0.3,1.8-0.8l0,0c0-1-0.8-2.3-1.8-2.9l-28.4-16.7
								c-1-0.6-1.8-0.3-1.8,0.8v0C913.3,1446.5,914.1,1447.8,915.1,1448.4z"/>
							<path class="st23" d="M915.1,1460.9l28.4,16.7c1,0.6,1.8,0.3,1.8-0.8l0,0c0-1-0.8-2.3-1.8-2.9l-28.4-16.7
								c-1-0.6-1.8-0.3-1.8,0.8l0,0C913.3,1459,914.1,1460.3,915.1,1460.9z"/>
						</g>
					</g>
				</g>
				<g>
					<g>
						<g class="st12">
							<g>
								<polygon class="st25" points="889,1855.9 1094.2,1733.6 1094.2,1518.8 889,1641.1 								"/>
							</g>
							<g>
								<polygon class="st20" points="889,1641.1 1094.2,1518.8 884.3,1398.8 679,1521.1 								"/>
							</g>
							<g>
								<polygon class="st21" points="679,1521.1 679,1735.8 889,1855.9 889,1641.1 								"/>
							</g>
						</g>
					</g>
					<g class="st22">
						<polygon class="st23" points="970.3,1593.8 1012.9,1568.4 802.9,1448.4 760.4,1473.7 						"/>
					</g>
					<polygon class="st24" points="1012.9,1631.1 970.3,1656.4 970.3,1593.8 1012.9,1568.4 					"/>
					<g>
						<polygon class="st24" points="689.1,1605.7 731.7,1631.1 731.7,1568.4 689.1,1543.1 						"/>
						<g>
							<path class="st23" d="M696.2,1568l28.4,16.7c1,0.6,1.8,0.3,1.8-0.8l0,0c0-1-0.8-2.3-1.8-2.9l-28.4-16.7
								c-1-0.6-1.8-0.3-1.8,0.8l0,0C694.4,1566.1,695.2,1567.4,696.2,1568z"/>
							<path class="st23" d="M696.2,1580.5l28.4,16.7c1,0.6,1.8,0.3,1.8-0.8l0,0c0-1-0.8-2.3-1.8-2.9l-28.4-16.7
								c-1-0.6-1.8-0.3-1.8,0.8l0,0C694.4,1578.6,695.2,1579.9,696.2,1580.5z"/>
							<path class="st23" d="M696.2,1593l28.4,16.7c1,0.6,1.8,0.3,1.8-0.8l0,0c0-1-0.8-2.3-1.8-2.9l-28.4-16.7
								c-1-0.6-1.8-0.3-1.8,0.8l0,0C694.4,1591.1,695.2,1592.5,696.2,1593z"/>
						</g>
					</g>
				</g>
				<g>
					<g>
						<g class="st12">
							<g>
								<polygon class="st25" points="889,1640.6 1094.2,1518.3 1094.2,1303.5 889,1425.8 								"/>
							</g>
							<g>
								<polygon class="st20" points="889,1425.8 1094.2,1303.5 884.3,1183.5 679,1305.8 								"/>
							</g>
							<g>
								<polygon class="st21" points="679,1305.8 679,1520.5 889,1640.6 889,1425.8 								"/>
							</g>
						</g>
					</g>
					<g class="st22">
						<polygon class="st23" points="970.3,1378.5 1012.9,1353.1 802.9,1233.1 760.4,1258.4 						"/>
					</g>
					<polygon class="st24" points="1012.9,1415.8 970.3,1441.1 970.3,1378.5 1012.9,1353.1 					"/>
					<g>
						<polygon class="st24" points="689.1,1390.4 731.7,1415.8 731.7,1353.1 689.1,1327.8 						"/>
						<g>
							<path class="st23" d="M696.2,1352.7l28.4,16.7c1,0.6,1.8,0.3,1.8-0.8l0,0c0-1-0.8-2.3-1.8-2.9l-28.4-16.7
								c-1-0.6-1.8-0.3-1.8,0.8l0,0C694.4,1350.8,695.2,1352.1,696.2,1352.7z"/>
							<path class="st23" d="M696.2,1365.2l28.4,16.7c1,0.6,1.8,0.3,1.8-0.8l0,0c0-1-0.8-2.3-1.8-2.9l-28.4-16.7
								c-1-0.6-1.8-0.3-1.8,0.8l0,0C694.4,1363.3,695.2,1364.6,696.2,1365.2z"/>
							<path class="st23" d="M696.2,1377.7l28.4,16.7c1,0.6,1.8,0.3,1.8-0.8l0,0c0-1-0.8-2.3-1.8-2.9l-28.4-16.7
								c-1-0.6-1.8-0.3-1.8,0.8l0,0C694.4,1375.8,695.2,1377.1,696.2,1377.7z"/>
						</g>
					</g>
				</g>
				<g>
					<line class="st50" x1="665.7" y1="1402.2" x2="921" y2="1544.8"/>
					<line class="st50" x1="665.7" y1="1580.1" x2="921" y2="1722.7"/>
					<path class="st50" d="M921,1861.4v-300.1c0-10.7-3.3-21.2-9.5-30l-91-129c-4.9-7-11.3-12.7-18.8-16.9L591.4,1268
						c-8.1-4.5-16.8,5.1-11.4,12.7l73.8,104.6c7.8,11,12,24.2,12,37.7v300.4c0,15.9,8.6,30.5,22.4,38.2l206.4,115.3
						C906.4,1883.5,921,1874.9,921,1861.4z"/>
					<line class="st50" x1="729.1" y1="1437.6" x2="729.1" y2="1783.7"/>
					<line class="st50" x1="828.3" y1="1495.2" x2="828.3" y2="1841.3"/>
				</g>
			</g>
		</g>
		<g>
			
				<linearGradient id="SVGID_33_" gradientUnits="userSpaceOnUse" x1="12523.4092" y1="2070.8032" x2="12411.2139" y2="2077.782" gradientTransform="matrix(-1 0 0 1 12841.8877 0)">
				<stop  offset="0" style="stop-color:#303030"/>
				<stop  offset="1" style="stop-color:#4C4A4B"/>
			</linearGradient>
			<path class="st51" d="M300,2059.1c0,0-11.6,26.5-3.7,35.9c7.9,9.5,37.7,22.6,53,18.9c15.3-3.6,42.9-34.9,66.2-45.1
				c23.3-10.2,26.9-32.7,0-34.2c-26.9-1.5-67.7,9.5-67.7,9.5L300,2059.1z"/>
			
				<linearGradient id="SVGID_34_" gradientUnits="userSpaceOnUse" x1="12358.6934" y1="2145.5415" x2="12216.2998" y2="2154.3987" gradientTransform="matrix(-1 0 0 1 12841.8877 0)">
				<stop  offset="0" style="stop-color:#303030"/>
				<stop  offset="1" style="stop-color:#4C4A4B"/>
			</linearGradient>
			<path class="st52" d="M535.6,2105.2c0,0,39.3,2.9,64,0c24.7-2.9,43.7,15.3,18.2,36.4c-25.5,21.1-58.2,25.5-82.2,41.5
				c-24,16-48,15.3-73.5,0c-25.5-15.3,4.4-74.2,4.4-74.2L535.6,2105.2z"/>
			
				<linearGradient id="SVGID_35_" gradientUnits="userSpaceOnUse" x1="12392.7227" y1="1821.9625" x2="12545.5674" y2="1821.9625" gradientTransform="matrix(-1 0 0 1 12841.8877 0)">
				<stop  offset="0" style="stop-color:#303030"/>
				<stop  offset="1" style="stop-color:#4C4A4B"/>
			</linearGradient>
			<path class="st53" d="M326.2,1575.1c0,0-25.7,40.7-22.8,71.8c2.9,31.1,20.3,83.5,22.8,86.5c2.5,2.9,0,116.6,0,116.6
				s-25.7,33-28.6,84.5c-2.9,51.5,0,114.6,0,114.6s-4.9,13.6,20.4,18.5c25.3,4.9,40.8-5.8,40.8-5.8s18.5-136,43.2-182.6
				c24.8-46.6,47.1-236.1,47.1-236.1L326.2,1575.1z"/>
			
				<linearGradient id="SVGID_36_" gradientUnits="userSpaceOnUse" x1="12589.7607" y1="1254.2876" x2="12516.9424" y2="1270.3077" gradientTransform="matrix(-1 0 0 1 12841.8877 0)">
				<stop  offset="0" style="stop-color:#F9BF1E"/>
				<stop  offset="1" style="stop-color:#F79C45"/>
			</linearGradient>
			<path class="st54" d="M290.8,1136c0,0-26.4,22.8-33.6,80.5c-7.2,57.6-26.4,163.2,8.4,167.5c34.8,4.2,73.3-6.6,73.3-6.6
				L290.8,1136z"/>
			
				<linearGradient id="SVGID_37_" gradientUnits="userSpaceOnUse" x1="12371.6787" y1="1188.1594" x2="12344.1807" y2="1008.0447" gradientTransform="matrix(-1 0 0 1 12841.8877 0)">
				<stop  offset="0" style="stop-color:#DE8B8B"/>
				<stop  offset="1" style="stop-color:#FFC5C5"/>
			</linearGradient>
			<path class="st55" d="M547.6,1030.3c0,0,6.6,31.7,4,37c-2.7,5.3-8.3,10.6-8.3,10.6s8.9,9.3,8.9,17.9s-4.7,43.2-11.9,47.5
				c-7.2,4.2-22.1,1.6-29.7,6.9c-7.6,5.3-10.7,61.6-10.7,61.6l-98.1-26.5l24.5-90.8c0,0-8.6-73.6,32.5-96.1
				C499.9,975.9,547.6,1030.3,547.6,1030.3z"/>
			
				<linearGradient id="SVGID_38_" gradientUnits="userSpaceOnUse" x1="12378.1025" y1="1106.8472" x2="12356.7471" y2="966.9636" gradientTransform="matrix(-1 0 0 1 12841.8877 0)">
				<stop  offset="0" style="stop-color:#303030"/>
				<stop  offset="1" style="stop-color:#4C4A4B"/>
			</linearGradient>
			<path class="st56" d="M559.6,1016.3c-1.3,15.8-10.2,23-16.3,26.7c-18.6,11.5-8.4,44.1-15.6,46.9c-7.2,2.7-19.2-28.5-31.1-21.9
				c-11.9,6.6,12.6,33.8,0,45.1c-12.6,11.3-66.9,7.7-78.2-2.8c-11.3-10.5-26.5-43-25.2-74.8c1.3-31.8,14.6-37.8,14.6-37.8
				s-8.6-31.1,26.5-37.8S564.9,952,559.6,1016.3z"/>
			
				<linearGradient id="SVGID_39_" gradientUnits="userSpaceOnUse" x1="12515.0234" y1="1395.5446" x2="12252.3691" y2="1411.8821" gradientTransform="matrix(-1 0 0 1 12841.8877 0)">
				<stop  offset="0" style="stop-color:#F9BF1E"/>
				<stop  offset="1" style="stop-color:#F79C45"/>
			</linearGradient>
			<path class="st57" d="M532.6,1188.8c0,0-114.5-68.5-133.7-58.8s-19.2,21.6-19.2,21.6s-68.5-30-88.9-15.6
				c-20.4,14.4,24,186.1,32.4,291.8c8.4,105.7,4.8,132.6,4.8,132.6s-23.3,94,92.5,111.2s160.1-45.6,160.1-45.6s18.4-348.3,0-367.5
				c-18.4-19.2-18.9-28.8-37.9-42C523.8,1203.3,532.6,1188.8,532.6,1188.8z"/>
			
				<linearGradient id="SVGID_40_" gradientUnits="userSpaceOnUse" x1="12176.6963" y1="1359.5231" x2="12226.2129" y2="1421.4193" gradientTransform="matrix(-1 0 0 1 12841.8877 0)">
				<stop  offset="0" style="stop-color:#F9BF1E"/>
				<stop  offset="1" style="stop-color:#F79C45"/>
			</linearGradient>
			<path class="st58" d="M570.6,1263.6c-49,12.4-42.1,55.5-19.2,103c22.9,47.5,83.8,152.5,99.6,148.9
				c15.7-3.6,153.8-97.3,153.8-97.3s8.4-24-16.8-43.2c-25.2-19.2-37.7-10.8-37.7-10.8l-79.3,52.8
				C670.9,1417,617.1,1251.8,570.6,1263.6z"/>
			
				<linearGradient id="SVGID_41_" gradientUnits="userSpaceOnUse" x1="12263.9219" y1="1887.2085" x2="12439.832" y2="1887.2085" gradientTransform="matrix(-1 0 0 1 12841.8877 0)">
				<stop  offset="0" style="stop-color:#303030"/>
				<stop  offset="1" style="stop-color:#4C4A4B"/>
			</linearGradient>
			<path class="st59" d="M403.7,1668.4c0,0-10.9,45.5,23.1,74.7c34,29.1,34,29.1,34,29.1l8.7,141.8c0,0-9.7,25.8-13.6,87.7
				c-3.9,61.9,4.9,123.1,4.9,123.1s12.3,19.4,41.6,19.4c29.3,0,40-23.3,40-23.3s-1.3-134.1,19.7-205.9c21.1-71.9,15-284.9,15-284.9
				S521.5,1686,403.7,1668.4z"/>
			<linearGradient id="SVGID_42_" gradientUnits="userSpaceOnUse" x1="842.188" y1="1375.4756" x2="772.169" y2="1379.8309">
				<stop  offset="0" style="stop-color:#DE8B8B"/>
				<stop  offset="1" style="stop-color:#FFC5C5"/>
			</linearGradient>
			<path class="st60" d="M770.1,1364.7c0,0,6.5-14,17.5-15.9c11-1.9,21.1-0.5,21.6,4.3c0.5,4.8,10.5-6.7,22.1-2.2
				c11.6,4.5,41.2,36.4,17.6,43.8c-23.6,7.4-42.7,13.4-42.7,13.4S796.7,1376.4,770.1,1364.7z"/>
		</g>
	</g>
</g>
</svg>
