<svg width="100" height="26" viewBox="0 0 100 26" fill="none" xmlns="http://www.w3.org/2000/svg">
<g clip-path="url(#clip0_13_1385)">
<path fill-rule="evenodd" clip-rule="evenodd" d="M31.9843 19.9344L33.2258 17.038C34.5852 18.0427 36.3588 18.5747 38.1321 18.5747C39.4326 18.5747 40.2603 18.0723 40.2603 17.3038C40.2307 15.1759 32.4277 16.831 32.3686 11.4811C32.3388 8.76194 34.7626 6.66333 38.1913 6.66333C40.2307 6.66333 42.2701 7.16609 43.7184 8.31881L42.5583 11.2771C41.2257 10.422 39.5803 9.82591 38.014 9.82591C36.9497 9.82591 36.2404 10.3283 36.2404 10.9787C36.27 13.0773 44.1322 11.9245 44.2211 17.038C44.2211 19.8163 41.8562 21.7668 38.4867 21.7668C36.0042 21.7668 33.7283 21.176 31.9843 19.9344Z" fill="black"/>
<path fill-rule="evenodd" clip-rule="evenodd" d="M79.9226 15.9891C79.3034 17.0827 78.1302 17.821 76.7835 17.821C74.792 17.821 73.1779 16.2068 73.1779 14.2153C73.1779 12.2238 74.792 10.6092 76.7835 10.6092C78.1302 10.6092 79.3034 11.3476 79.9226 12.4411L83.3743 10.529C82.0817 8.22287 79.6153 6.66354 76.7835 6.66354C72.613 6.66354 69.2318 10.0443 69.2318 14.2153C69.2318 18.386 72.613 21.767 76.7835 21.767C79.6153 21.767 82.0817 20.2074 83.3743 17.9013L79.9226 15.9891Z" fill="black"/>
<mask id="mask0_13_1385" style="mask-type:alpha" maskUnits="userSpaceOnUse" x="0" y="0" width="100" height="26">
<path d="M0 25.3208H99.9981V0H0V25.3208Z" fill="white"/>
</mask>
<g mask="url(#mask0_13_1385)">
<path fill-rule="evenodd" clip-rule="evenodd" d="M45.9611 21.4714H50.2766V0.377394H45.9611V21.4714Z" fill="black"/>
<path fill-rule="evenodd" clip-rule="evenodd" d="M85.0533 0.377413V21.4714H89.3688V15.1515L94.4825 21.4714H99.9981L93.4951 13.9636L99.525 6.95826H94.2458L89.3688 12.7822V0.377413H85.0533Z" fill="black"/>
<path fill-rule="evenodd" clip-rule="evenodd" d="M63.0708 6.95899V8.67331C62.3615 7.49098 60.6175 6.66354 58.7851 6.66354C55.0018 6.66354 52.0166 10.0034 52.0166 14.2004C52.0166 18.3976 55.0018 21.767 58.7851 21.767C60.6175 21.767 62.3615 20.9394 63.0708 19.7569V21.4712H67.3862V6.95899H63.0708ZM63.0708 16.0181C62.4501 17.0528 61.1496 17.821 59.7013 17.821C57.7098 17.821 56.0954 16.2068 56.0954 14.2153C56.0954 12.2239 57.7098 10.6093 59.7013 10.6093C61.1496 10.6093 62.4501 11.4074 63.0708 12.4713V16.0181Z" fill="black"/>
<path fill-rule="evenodd" clip-rule="evenodd" d="M5.3307 15.9921C5.3307 17.4642 4.13741 18.6575 2.66535 18.6575C1.19329 18.6575 0 17.4642 0 15.9921C0 14.52 1.19329 13.3268 2.66535 13.3268H5.3307V15.9921Z" fill="#E01E5A"/>
<path fill-rule="evenodd" clip-rule="evenodd" d="M6.66333 15.9921C6.66333 14.52 7.85662 13.3268 9.32868 13.3268C10.8007 13.3268 11.994 14.52 11.994 15.9921V22.6555C11.994 24.1275 10.8007 25.3208 9.32868 25.3208C7.85662 25.3208 6.66333 24.1275 6.66333 22.6555V15.9921Z" fill="#E01E5A"/>
<path fill-rule="evenodd" clip-rule="evenodd" d="M9.32868 5.3307C7.85662 5.3307 6.66333 4.13741 6.66333 2.66535C6.66333 1.19329 7.85662 0 9.32868 0C10.8007 0 11.994 1.19329 11.994 2.66535V5.3307H9.32868Z" fill="#36C5F0"/>
<path fill-rule="evenodd" clip-rule="evenodd" d="M9.32873 6.66338C10.8008 6.66338 11.9941 7.85666 11.9941 9.32873C11.9941 10.8008 10.8008 11.9941 9.32873 11.9941H2.66535C1.19329 11.9941 0 10.8008 0 9.32873C0 7.85666 1.19329 6.66338 2.66535 6.66338H9.32873Z" fill="#36C5F0"/>
<path fill-rule="evenodd" clip-rule="evenodd" d="M19.9901 9.32873C19.9901 7.85666 21.1834 6.66338 22.6555 6.66338C24.1275 6.66338 25.3208 7.85666 25.3208 9.32873C25.3208 10.8008 24.1275 11.9941 22.6555 11.9941H19.9901V9.32873Z" fill="#2EB67D"/>
<path fill-rule="evenodd" clip-rule="evenodd" d="M18.6575 9.32873C18.6575 10.8008 17.4642 11.9941 15.9921 11.9941C14.5201 11.9941 13.3268 10.8008 13.3268 9.32873V2.66535C13.3268 1.19329 14.5201 0 15.9921 0C17.4642 0 18.6575 1.19329 18.6575 2.66535V9.32873Z" fill="#2EB67D"/>
<path fill-rule="evenodd" clip-rule="evenodd" d="M15.9921 19.9901C17.4642 19.9901 18.6575 21.1834 18.6575 22.6555C18.6575 24.1275 17.4642 25.3208 15.9921 25.3208C14.5201 25.3208 13.3268 24.1275 13.3268 22.6555V19.9901H15.9921Z" fill="#ECB22E"/>
<path fill-rule="evenodd" clip-rule="evenodd" d="M15.9921 18.6575C14.5201 18.6575 13.3268 17.4642 13.3268 15.9921C13.3268 14.52 14.5201 13.3268 15.9921 13.3268H22.6555C24.1276 13.3268 25.3209 14.52 25.3209 15.9921C25.3209 17.4642 24.1276 18.6575 22.6555 18.6575H15.9921Z" fill="#ECB22E"/>
</g>
</g>
<defs>
<clipPath id="clip0_13_1385">
<rect width="100" height="25.3702" fill="white"/>
</clipPath>
</defs>
</svg>
