<svg width="100" height="72" viewBox="0 0 100 72" fill="none" xmlns="http://www.w3.org/2000/svg">
<g clip-path="url(#clip0_13_1418)">
<path d="M47.8843 11.157V42.2479H22.1322L47.8843 11.157ZM47.8843 0C47.8843 3.41494 46.5277 6.69001 44.113 9.10473C41.6983 11.5195 38.4232 12.876 35.0083 12.876C31.5933 12.876 28.3183 11.5195 25.9035 9.10473C23.4888 6.69001 22.1322 3.41494 22.1322 0L47.8843 0ZM52.1267 42.2507C52.1267 38.8358 53.4833 35.5607 55.898 33.146C58.3127 30.7312 61.5878 29.3747 65.0028 29.3747C68.4177 29.3747 71.6928 30.7312 74.1075 33.146C76.5222 35.5607 77.8788 38.8358 77.8788 42.2507H52.1267V42.2507ZM52.1267 31.0937V0H77.8843L52.1267 31.0909V31.0937ZM66.5289 68.8512C67.8533 68.8808 69.1356 68.3857 70.0964 67.4738L71.865 69.3829C70.697 70.584 69.0771 71.4766 66.5592 71.4766C62.2424 71.4766 59.4518 68.6116 59.4518 64.7383C59.4343 63.8506 59.5958 62.9684 59.9266 62.1445C60.2575 61.3205 60.7509 60.5716 61.3774 59.9425C62.004 59.3134 62.7508 58.8169 63.5734 58.4827C64.396 58.1485 65.2775 57.9834 66.1653 57.9972C70.4518 57.9972 72.8815 61.259 72.6667 65.7824H62.5344C62.8926 67.6612 64.2149 68.8595 66.5207 68.8595M69.6061 63.6253C69.3306 61.8705 68.2837 60.5785 66.1901 60.5785C64.2424 60.5785 62.8843 61.6804 62.5344 63.6253H69.6088H69.6061ZM0 68.7052L7.79614 60.7824H0.184573V58.2975H11.4132V60.832L3.61708 68.7521H11.5234V71.2397H0V68.7052V68.7052ZM20.2755 68.8485C21.5998 68.8781 22.8822 68.383 23.843 67.4711L25.6116 69.3802C24.4435 70.5813 22.8237 71.4738 20.3058 71.4738C15.989 71.4738 13.1983 68.6088 13.1983 64.7355C13.1809 63.8478 13.3423 62.9657 13.6732 62.1417C14.004 61.3177 14.4974 60.5689 15.124 59.9398C15.7505 59.3106 16.4974 58.8142 17.32 58.4799C18.1426 58.1457 19.0241 57.9806 19.9118 57.9945C24.1983 57.9945 26.6281 61.2562 26.4132 65.7796H16.2865C16.6446 67.6584 17.9669 68.8567 20.2727 68.8567M23.3581 63.6226C23.0826 61.8678 22.0358 60.5758 19.9421 60.5758C17.9945 60.5758 16.6364 61.6777 16.2865 63.6226H23.3609H23.3581ZM40.1736 69.9587C40.1736 65.8264 43.2672 63.2259 46.6749 63.2259C47.4926 63.215 48.3027 63.3832 49.0485 63.7187C49.7942 64.0543 50.4575 64.5489 50.9917 65.168V57.5317H53.7466V76.4298H50.9917V69.4215C50.4677 70.066 49.8054 70.5844 49.0539 70.9383C48.3023 71.2921 47.4808 71.4723 46.6501 71.4656C43.3444 71.4656 40.1763 68.8485 40.1763 64.7355M51.146 64.708C51.1243 63.9 50.8649 63.1163 50.4002 62.455C49.9355 61.7937 49.2861 61.2841 48.5332 60.9899C47.7804 60.6957 46.9575 60.63 46.1675 60.8011C45.3775 60.9721 44.6555 61.3723 44.0918 61.9515C43.5281 62.5308 43.1476 63.2634 42.9981 64.0577C42.8485 64.852 42.9365 65.6728 43.251 66.4174C43.5655 67.162 44.0925 67.7973 44.7662 68.2439C45.4399 68.6906 46.2303 68.9286 47.0386 68.9284C49.4077 68.9284 51.1432 67.0386 51.1432 64.708M71.3857 68.4545L73.8815 67.1598C74.2115 67.748 74.6959 68.2349 75.2824 68.568C75.8688 68.901 76.5351 69.0676 77.2094 69.0496C78.7686 69.0496 79.5785 68.2507 79.5785 67.3416C79.5785 66.3058 78.0716 66.0744 76.4325 65.7355C74.2287 65.2672 71.9339 64.5427 71.9339 61.8788C71.9339 59.832 73.8815 57.9394 76.9477 57.9669C79.3636 57.9669 81.1625 58.9256 82.1818 60.4738L79.8678 61.741C79.5481 61.2676 79.1129 60.8835 78.6034 60.6251C78.0938 60.3667 77.5268 60.2426 76.9559 60.2645C75.4738 60.2645 74.719 60.989 74.719 61.8182C74.719 62.7493 75.9146 63.0083 77.7879 63.4242C79.9201 63.8926 82.3333 64.5895 82.3333 67.281C82.3333 69.0661 80.7741 71.4738 77.0826 71.449C74.3829 71.449 72.4821 70.3609 71.3884 68.4463M89.8182 65.4518L87.6336 67.8347V71.1956H84.8788V52.2975H87.6336V64.6749L93.4821 58.2562H96.8375L91.7686 63.7934L96.9697 71.1983H93.8512L89.8209 65.4518H89.8182ZM34.9311 57.9972C31.6529 57.9972 28.9118 60.1185 28.9118 63.6446V71.2066H31.7218V63.9945C31.7218 61.8733 32.9421 60.6005 35.0275 60.6005C37.1129 60.6005 38.1488 61.8678 38.1488 63.9945V71.2066H40.9421V63.6446C40.9421 60.124 38.1873 57.9972 34.9229 57.9972" fill="#03363D"/>
</g>
<defs>
<clipPath id="clip0_13_1418">
<rect width="100" height="71.3499" fill="white"/>
</clipPath>
</defs>
</svg>
