<svg width="100" height="50" viewBox="0 0 100 50" fill="none" xmlns="http://www.w3.org/2000/svg">
<path fill-rule="evenodd" clip-rule="evenodd" d="M0 49.469H50.5398L100 0H0V49.469" fill="url(#paint0_linear_13_1402)"/>
<path fill-rule="evenodd" clip-rule="evenodd" d="M59.3452 9.89381H49.469L49.502 33.1223L40.9021 9.88501H32.3747L25.0335 29.2912C24.253 24.3531 19.1478 22.6491 15.1309 21.3728C12.4783 20.5209 9.66294 19.2676 9.69153 17.8825C9.71351 16.7458 11.1976 15.6916 14.147 15.8488C16.1258 15.9554 17.8737 16.1148 21.3508 17.7946L24.7697 11.8363C21.5993 10.2225 17.2152 9.20344 13.6205 9.20014H13.5985C9.4068 9.20014 5.91649 10.5578 3.75304 12.7949C2.24479 14.3559 1.4313 16.3413 1.39832 18.5366C1.34335 21.5575 2.45036 23.699 4.7765 25.4106C6.74207 26.8507 9.2562 27.7851 11.4713 28.4711C14.2031 29.3175 16.4347 30.0541 16.4072 31.6217C16.3852 32.1933 16.1698 32.7276 15.7586 33.1585C15.0771 33.8621 14.0327 34.1259 12.5871 34.1545C9.79816 34.2139 7.73145 33.7753 4.43791 31.8284L1.39612 37.8636C4.68636 39.7346 8.17887 40.6734 12.1474 40.6734L13.04 40.6668C16.4941 40.6042 19.2973 39.7764 21.5245 37.9845C21.652 37.8823 21.7664 37.7789 21.8851 37.6745L21.5113 39.6005L29.8441 39.5741L31.3392 35.7463C32.9112 36.2828 34.6987 36.5796 36.5961 36.5796C38.4451 36.5796 40.1842 36.2982 41.7266 35.7925L42.7687 39.5741L57.7194 39.5884L57.7556 30.8621H60.9371C68.6267 30.8621 73.1724 26.9485 73.1724 20.3856C73.1699 13.0763 68.751 9.89271 59.3452 9.89271L59.3452 9.89381ZM36.5961 29.7496C35.4473 29.7496 34.37 29.5495 33.4432 29.1977L36.5609 19.3534H36.6213L39.6884 29.2252C38.765 29.555 37.713 29.7496 36.595 29.7496H36.5961ZM59.9235 24.0936H57.7534V16.1599H59.9246C62.8157 16.1599 65.1243 17.1229 65.1243 20.0756C65.1218 23.1317 62.8157 24.0936 59.9246 24.0936" fill="white"/>
<defs>
<linearGradient id="paint0_linear_13_1402" x1="50" y1="0" x2="50" y2="49.4701" gradientUnits="userSpaceOnUse">
<stop stop-color="#00AEEF"/>
<stop offset="0.212" stop-color="#0097DC"/>
<stop offset="0.519" stop-color="#007CC5"/>
<stop offset="0.792" stop-color="#006CB8"/>
<stop offset="1" stop-color="#0066B3"/>
</linearGradient>
</defs>
</svg>
