<svg width="100" height="80" viewBox="0 0 100 80" fill="none" xmlns="http://www.w3.org/2000/svg">
<path fill-rule="evenodd" clip-rule="evenodd" d="M62.035 48.4912C56.2456 52.7719 47.8245 55.0526 40.5613 55.0526C30.3859 55.0526 21.2631 51.2982 14.3157 45.0526C13.7894 44.5614 14.2456 43.8947 14.9122 44.2807C22.3859 48.6316 31.614 51.2281 41.1578 51.2281C47.5789 51.2281 54.6666 49.8947 61.1929 47.1228C62.1754 46.7368 62.9824 47.7895 62.035 48.4912Z" fill="#FF9900"/>
<path fill-rule="evenodd" clip-rule="evenodd" d="M64.4561 45.7193C63.7193 44.7719 59.5438 45.2632 57.6842 45.5088C57.1228 45.579 57.0175 45.0877 57.5438 44.7368C60.8771 42.386 66.3157 43.0877 66.9473 43.8597C67.5789 44.6316 66.7719 50.1053 63.6491 52.7018C63.1578 53.0877 62.7017 52.8772 62.9122 52.3509C63.614 50.5965 65.1929 46.7018 64.4561 45.7193Z" fill="#FF9900"/>
<path fill-rule="evenodd" clip-rule="evenodd" d="M57.7895 28.2456V25.9649C57.7895 25.614 58.0351 25.4035 58.3509 25.4035H68.5263C68.8421 25.4035 69.1228 25.6491 69.1228 25.9649V27.8947C69.1228 28.2105 68.8421 28.6316 68.3509 29.3333L63.0877 36.8421C65.0526 36.807 67.1228 37.0877 68.8772 38.0702C69.2632 38.2807 69.3684 38.6316 69.4035 38.9474V41.3684C69.4035 41.7193 69.0526 42.1053 68.6667 41.8947C65.5439 40.2456 61.3684 40.0702 57.9298 41.9298C57.5789 42.1053 57.193 41.7544 57.193 41.4035V39.0877C57.193 38.7368 57.193 38.1053 57.5789 37.5439L63.6842 28.807H58.386C58.0702 28.807 57.7895 28.5614 57.7895 28.2456V28.2456ZM20.7018 42.386H17.614C17.3333 42.3509 17.0877 42.1403 17.0526 41.8596V26C17.0526 25.6842 17.3333 25.4386 17.6491 25.4386H20.5263C20.8421 25.4386 21.0526 25.6842 21.0877 25.9649V28.0351H21.1579C21.8947 26.0351 23.3333 25.0877 25.2281 25.0877C27.1579 25.0877 28.386 26.0351 29.2281 28.0351C29.9649 26.0351 31.6842 25.0877 33.5088 25.0877C34.807 25.0877 36.2105 25.614 37.0877 26.8421C38.0702 28.1754 37.8596 30.1053 37.8596 31.8246V41.8596C37.8596 42.1754 37.579 42.4211 37.2632 42.4211H34.2105C33.8947 42.386 33.6491 42.1403 33.6491 41.8596V33.4386C33.6491 32.7719 33.7193 31.0877 33.579 30.4561C33.3333 29.4035 32.6667 29.0877 31.7544 29.0877C31.0175 29.0877 30.2105 29.579 29.8947 30.386C29.5789 31.193 29.614 32.5263 29.614 33.4386V41.8596C29.614 42.1754 29.3333 42.4211 29.0175 42.4211H25.9298C25.614 42.386 25.3684 42.1403 25.3684 41.8596V33.4386C25.3684 31.6842 25.6491 29.0526 23.4737 29.0526C21.2632 29.0526 21.3333 31.5789 21.3333 33.4386V41.8596C21.2982 42.1403 21.0526 42.386 20.7018 42.386V42.386ZM77.8947 25.0877C82.4912 25.0877 84.9825 29.0175 84.9825 34.0351C84.9825 38.8772 82.2456 42.7368 77.8947 42.7368C73.4035 42.7368 70.9474 38.807 70.9474 33.8947C70.9123 28.9474 73.4035 25.0877 77.8947 25.0877ZM77.8947 28.3509C75.614 28.3509 75.4737 31.4737 75.4737 33.4035C75.4737 35.3333 75.4386 39.4737 77.8596 39.4737C80.2456 39.4737 80.386 36.1404 80.386 34.1053C80.386 32.7719 80.3158 31.1579 79.9298 29.8947C79.5789 28.7719 78.8772 28.3509 77.8947 28.3509ZM90.9123 42.386H87.8246C87.5088 42.3509 87.2632 42.1053 87.2632 41.8246V25.9298C87.2983 25.6491 87.5439 25.4035 87.8596 25.4035H90.7368C91.0175 25.4035 91.2281 25.614 91.2983 25.8597V28.2807H91.3684C92.2456 26.1053 93.4386 25.0877 95.5789 25.0877C96.9474 25.0877 98.3158 25.5789 99.193 26.9474C100 28.2105 100 30.3509 100 31.8947V41.8947C99.9649 42.1754 99.7193 42.386 99.4035 42.386H96.3158C96.0351 42.3509 95.7895 42.1404 95.7544 41.8947V33.2632C95.7544 31.5088 95.9649 28.9825 93.8246 28.9825C93.0877 28.9825 92.386 29.4737 92.0351 30.2456C91.614 31.2281 91.5439 32.1754 91.5439 33.2632V41.8246C91.5088 42.1404 91.2281 42.386 90.9123 42.386V42.386ZM49.6842 34.807C49.6842 36 49.7193 37.0175 49.1228 38.1053C48.6316 38.9825 47.8596 39.5088 46.9825 39.5088C45.7895 39.5088 45.0877 38.5965 45.0877 37.2632C45.0877 34.6316 47.4386 34.1403 49.6842 34.1403V34.807ZM52.807 42.3509C52.5965 42.5263 52.3158 42.5614 52.0702 42.4211C51.0526 41.5789 50.8421 41.1579 50.2807 40.3509C48.5965 42.0702 47.3684 42.5965 45.193 42.5965C42.5965 42.5965 40.5614 40.9825 40.5614 37.7895C40.5614 35.2632 41.9298 33.5789 43.8596 32.7368C45.5439 32 47.8947 31.8597 49.6842 31.6491V31.2632C49.6842 30.5263 49.7544 29.6491 49.2982 29.0176C48.9123 28.4561 48.2105 28.2105 47.5789 28.2105C46.386 28.2105 45.3333 28.807 45.0877 30.0702C45.0175 30.3509 44.8421 30.6316 44.5614 30.6316L41.5789 30.3158C41.3333 30.2456 41.0526 30.0702 41.1228 29.6842C41.8246 26.0351 45.0877 24.9474 48.0351 24.9474C49.5439 24.9474 51.5088 25.3333 52.7018 26.4912C54.2105 27.8947 54.0702 29.7895 54.0702 31.8246V36.6316C54.0702 38.0702 54.6667 38.7018 55.2281 39.5088C55.4386 39.7895 55.4737 40.1404 55.2281 40.3158C54.5614 40.8421 53.4386 41.8246 52.807 42.3509V42.3509ZM9.1579 34.807C9.1579 36 9.19298 37.0175 8.59649 38.1053C8.10526 38.9825 7.33333 39.5088 6.45614 39.5088C5.26316 39.5088 4.5614 38.5965 4.5614 37.2632C4.5614 34.6316 6.91228 34.1403 9.1579 34.1403V34.807ZM12.2456 42.3509C12.0351 42.5263 11.7544 42.5614 11.5088 42.4211C10.4912 41.5789 10.2807 41.1579 9.7193 40.3509C8.03509 42.0702 6.80702 42.5965 4.63158 42.5965C2.03509 42.5965 0 40.9825 0 37.7895C0 35.2632 1.36842 33.5789 3.29824 32.7368C4.98245 32 7.33333 31.8597 9.12281 31.6491V31.2632C9.12281 30.5263 9.19298 29.6491 8.73684 29.0176C8.35088 28.4561 7.64912 28.2105 7.01754 28.2105C5.82456 28.2105 4.77193 28.807 4.52631 30.0702C4.45614 30.3509 4.2807 30.6316 4 30.6316L1.01754 30.3158C0.771928 30.2456 0.49123 30.0702 0.561406 29.6842C1.26316 26.0351 4.52632 24.9474 7.47369 24.9474C8.98246 24.9474 10.9474 25.3333 12.1404 26.4912C13.6491 27.8947 13.5088 29.7895 13.5088 31.8246V36.6316C13.5088 38.0702 14.1053 38.7018 14.6667 39.5088C14.8772 39.7895 14.9123 40.1404 14.6667 40.3158C14 40.8421 12.8772 41.8246 12.2456 42.3509V42.3509Z" fill="black"/>
</svg>
