<svg width="100" height="23" viewBox="0 0 100 23" fill="none" xmlns="http://www.w3.org/2000/svg">
<path d="M12.0352 19.2681C12.0684 19.0592 12.0769 3.95499 12.0454 3.62538C9.47892 4.23669 6.91625 4.84746 4.34307 5.4604V16.1077C3.01832 16.6256 1.69828 17.1412 0.378786 17.6563C0.37029 17.6515 0.363008 17.6489 0.356131 17.644C0.350333 17.6398 0.342916 17.6334 0.342376 17.6276C0.338196 17.5877 0.332937 17.5478 0.332937 17.5074C0.332398 13.2052 0.332397 8.9025 0.332397 4.61094C0.391461 4.53813 0.467786 4.52901 0.534132 4.50465C4.30572 3.09218 8.07838 1.68121 11.8504 0.268879C11.981 0.219886 12.0996 0.195936 12.2444 0.238532C14.3141 0.839229 16.3857 1.43298 18.4569 2.02892C18.487 2.03804 18.517 2.04865 18.5596 2.0624V20.1957C17.965 20.3611 17.3755 20.5264 16.7856 20.689C15.2838 21.1032 13.781 21.5141 12.2803 21.9314C12.1333 21.9724 12.0048 21.9692 11.8603 21.916C8.15052 20.5451 4.43895 19.1783 0.728583 17.811C0.65536 17.7839 0.583621 17.7536 0.521995 17.6883C4.35993 18.2151 8.19786 18.7413 12.0352 19.2681Z" fill="#DC3E15"/>
<path d="M40.0981 9.58077H38.5209V8.31664H40.0332C40.1222 8.23539 40.097 8.15823 40.097 8.08964C40.0995 7.63892 40.0981 7.18751 40.0986 6.73624C40.0991 6.19719 40.1887 5.6757 40.4425 5.19517C40.9603 4.21641 41.7773 3.6907 42.8866 3.62742C43.2507 3.60674 43.6141 3.62157 43.9692 3.72051C44.0303 3.73752 44.0897 3.76147 44.1571 3.78488V5.0931C44.0855 5.12876 44.0361 5.07133 43.9808 5.04942C43.5788 4.8906 43.167 4.84583 42.7439 4.93619C42.3419 5.02288 42.0407 5.24566 41.8479 5.61241C41.7262 5.84472 41.6546 6.09349 41.632 6.35029C41.5745 6.9925 41.6146 7.63619 41.6051 8.29432H45.2171C45.2682 8.229 45.2486 8.16204 45.2486 8.10026C45.2508 7.6166 45.2434 7.1328 45.2513 6.64955C45.2655 5.79423 45.5321 5.03785 46.1541 4.42586C46.6408 3.94805 47.2302 3.69179 47.905 3.63436C48.2922 3.60143 48.6809 3.61041 49.0617 3.70554C49.1471 3.72636 49.2372 3.73697 49.3109 3.80393V5.11964C49.0655 5.02615 48.8342 4.93837 48.585 4.90761C48.3322 4.87672 48.0837 4.88842 47.8392 4.94898C47.4294 5.05105 47.1376 5.30145 46.9621 5.68373C46.84 5.9506 46.772 6.23448 46.7651 6.52571C46.753 7.08925 46.7577 7.65375 46.7562 8.21784C46.7562 8.24016 46.7673 8.26248 46.7794 8.3082H48.9338V9.57437H46.7557V17.6281H45.255C45.2439 17.2518 45.2513 16.869 45.2497 16.4867C45.2486 16.1083 45.2497 15.7293 45.2497 15.3508V9.5888H41.6066V17.6276H40.1039C40.0917 17.3422 40.1001 17.0481 40.0986 16.7547C40.097 16.4571 40.0981 16.1588 40.0981 15.8606V9.58077V9.58077Z" fill="#DC3E15"/>
<path d="M25.1335 11.2654C25.1478 9.99816 25.3405 8.79772 25.8863 7.6724C26.7296 5.93359 28.1182 4.89006 30.0024 4.4988C31.1274 4.26487 32.2553 4.27072 33.3599 4.61257C35.1645 5.17122 36.3744 6.36949 37.0492 8.11415C37.4849 9.23906 37.5949 10.4123 37.5191 11.6073C37.4686 12.3982 37.3348 13.1745 37.0593 13.9213C36.2602 16.0907 34.7225 17.3975 32.4333 17.7748C31.1602 17.9848 29.9002 17.8822 28.7018 17.3587C27.1795 16.6936 26.1808 15.5432 25.6034 14.0075C25.2679 13.1138 25.142 12.1846 25.1335 11.2654V11.2654ZM35.9283 11.0501C35.9189 10.8678 35.9125 10.602 35.891 10.3373C35.8256 9.54526 35.6623 8.77595 35.3063 8.05889C34.8327 7.10518 34.1242 6.39548 33.1112 6.01647C32.6151 5.83098 32.0988 5.7496 31.5695 5.73844C29.799 5.70129 28.4473 6.42419 27.5434 7.94825C27.0963 8.70205 26.8628 9.53083 26.7881 10.3979C26.6917 11.5089 26.7854 12.602 27.2047 13.6502C27.6578 14.7841 28.4047 15.6464 29.5446 16.135C30.2658 16.4437 31.0221 16.5193 31.8002 16.4512C33.4983 16.3029 34.7009 15.4576 35.4052 13.9144C35.8076 13.0325 35.9146 12.0905 35.9283 11.0501V11.0501Z" fill="#DC3E15"/>
<path d="M90.0864 4.72362V6.08451C90.0242 6.12697 89.9778 6.08342 89.9289 6.0611C89.3953 5.81601 88.8364 5.67094 88.2491 5.63052C87.2124 5.55975 86.3217 5.8703 85.6048 6.63308C85.0928 7.17798 84.753 7.82386 84.5217 8.52826C84.2321 9.40862 84.1351 10.3186 84.1251 11.2543C84.2342 11.2341 84.241 11.1405 84.2763 11.0788C84.6113 10.4984 85.0564 10.0342 85.6764 9.75306C86.033 9.59139 86.4081 9.50102 86.7984 9.47557C87.351 9.43937 87.8978 9.47027 88.4276 9.64514C89.5149 10.0051 90.245 10.7445 90.6216 11.8061C91.0378 12.9799 91.0146 14.1679 90.5553 15.3274C89.8946 16.9956 88.3961 17.9323 86.5662 17.8584C85.3515 17.8094 84.3996 17.2837 83.6963 16.3029C83.2133 15.6294 82.9342 14.8697 82.7698 14.0649C82.5423 12.9506 82.5249 11.8262 82.6181 10.6971C82.7056 9.63929 82.9278 8.61277 83.3492 7.63361C83.7405 6.72399 84.2821 5.92338 85.0727 5.30676C85.884 4.67422 86.8084 4.36421 87.836 4.35101C88.4287 4.34407 89.015 4.38707 89.5891 4.54289C89.7524 4.58753 89.9137 4.63965 90.0864 4.72362V4.72362ZM84.2199 13.6012C84.2284 14.2855 84.4644 15.0935 85.0622 15.7766C85.8318 16.6564 86.9669 16.7644 87.8451 16.3821C88.5657 16.0684 88.9971 15.4864 89.2115 14.7496C89.4395 13.9643 89.4185 13.1723 89.1651 12.3956C88.9371 11.6955 88.5025 11.1628 87.794 10.8981C87.2588 10.6987 86.7047 10.6733 86.1504 10.8141C84.9928 11.1081 84.2136 12.1553 84.2199 13.6012V13.6012Z" fill="#DC3E15"/>
<path d="M92.6073 11.0805C92.7543 8.93176 92.9018 6.7655 93.0514 4.5844H99.1049V5.88732C99.1038 5.88881 99.1002 5.89575 99.0944 5.90052C99.0886 5.90582 99.0811 5.91072 99.0737 5.91276C99.0585 5.91753 99.0427 5.92284 99.0269 5.92284C97.4831 5.92284 95.939 5.92284 94.3631 5.92284C94.2645 7.19391 94.1797 8.45708 94.0997 9.71591C94.2008 9.76789 94.2813 9.74027 94.3593 9.73823C94.9888 9.72013 95.6188 9.67753 96.2472 9.76694C97.0537 9.88221 97.7995 10.1401 98.4406 10.6574C99.098 11.1873 99.4889 11.8784 99.6358 12.6991C99.7849 13.5268 99.7686 14.355 99.4826 15.1557C99.0565 16.3497 98.2052 17.1242 97.0258 17.558C96.2852 17.8306 95.514 17.8802 94.7334 17.8584C94.1497 17.8423 93.5728 17.7834 93.0124 17.6095C92.827 17.5516 92.649 17.4772 92.4768 17.3879C92.4094 17.3528 92.3566 17.3161 92.3572 17.2257C92.3603 16.7441 92.3588 16.2619 92.3588 15.767C92.4451 15.7607 92.492 15.809 92.5426 15.8388C93.2036 16.2316 93.9096 16.4937 94.6801 16.5639C95.3338 16.6239 95.9754 16.5708 96.5781 16.2949C97.5125 15.8675 98.0455 15.1425 98.1577 14.1159C98.2015 13.7188 98.1852 13.3259 98.0808 12.9416C97.868 12.1548 97.3576 11.627 96.6123 11.317C96.1672 11.132 95.6989 11.0443 95.22 11.0278C94.4036 11.0007 93.5877 11.0183 92.7744 11.1086C92.7291 11.1139 92.68 11.1331 92.6073 11.0805V11.0805Z" fill="#DC3E15"/>
<path d="M69.6099 13.3541H63.0255C62.997 13.6854 63.0545 13.9925 63.1166 14.2978C63.2098 14.7527 63.3816 15.1759 63.6698 15.5458C64.1253 16.1311 64.7375 16.4432 65.4638 16.5405C66.6559 16.7 67.7388 16.4134 68.7228 15.7329C68.7824 15.6921 68.8435 15.6543 68.9046 15.616C68.9099 15.6124 68.9193 15.6155 68.9289 15.6155C68.9736 15.6804 68.9515 15.7549 68.9525 15.8249C68.9546 16.1311 68.943 16.4379 68.9572 16.743C68.9662 16.92 68.8999 17.0199 68.7523 17.1099C68.2719 17.4044 67.7568 17.6063 67.2058 17.7179C66.3746 17.8866 65.5359 17.9327 64.7011 17.7733C63.3089 17.5065 62.3813 16.6718 61.8502 15.3784C61.6438 14.875 61.5332 14.3472 61.4852 13.8081C61.4031 12.8862 61.4431 11.9735 61.7554 11.0889C62.1574 9.95134 62.8322 9.03492 63.9395 8.49369C65.0346 7.95832 66.1703 7.92756 67.3038 8.34644C68.2904 8.71116 68.9077 9.45434 69.2754 10.4181C69.4871 10.9731 69.5809 11.5531 69.6062 12.1421C69.6236 12.5343 69.6099 12.9277 69.6099 13.3541V13.3541ZM68.0692 12.0702C68.0634 11.3967 67.9464 10.7737 67.5645 10.2224C67.3527 9.91732 67.08 9.6744 66.7307 9.54525C65.8915 9.2347 65.0746 9.27307 64.3281 9.79606C63.5475 10.3437 63.1819 11.1399 63.0307 12.0702C64.7105 12.0702 66.3725 12.0702 68.0692 12.0702Z" fill="#DC3E15"/>
<path d="M74.7388 11.4877V10.2746C74.8358 10.2294 74.9253 10.2495 75.0123 10.2491C75.5132 10.2442 76.0146 10.2607 76.5145 10.2065C76.9344 10.1608 77.3453 10.0794 77.7324 9.9067C78.5136 9.55791 78.9255 8.94986 78.9861 8.10244C79.0097 7.77174 79.0019 7.44118 78.9213 7.11797C78.7222 6.31953 78.1886 5.86976 77.3995 5.70809C76.2759 5.4785 75.234 5.6938 74.2726 6.31259C74.2184 6.34716 74.1653 6.38431 74.112 6.42051C74.0662 6.45181 74.0198 6.4827 73.9366 6.53959C73.9346 6.27326 73.9324 6.03824 73.9313 5.80335C73.9303 5.5705 73.9313 5.33711 73.9313 5.09895C74.3749 4.82569 74.8457 4.64224 75.3441 4.52751C76.2776 4.31263 77.2172 4.25847 78.1522 4.5003C79.0867 4.74226 79.8221 5.25899 80.2598 6.14139C80.5489 6.72508 80.5795 7.34973 80.5142 7.98281C80.4762 8.35338 80.383 8.71116 80.2224 9.04975C79.908 9.71264 79.3907 10.1698 78.738 10.4834C78.5421 10.5771 78.3345 10.6466 78.1317 10.7269C78.0817 10.7466 78.0179 10.7408 77.9821 10.8162C78.2913 10.8699 78.5968 10.9221 78.8881 11.0294C79.8863 11.3967 80.6459 12.0336 80.8992 13.0872C81.2347 14.4811 80.9029 15.7245 79.8215 16.7175C79.1915 17.2954 78.433 17.6239 77.5938 17.7616C76.5282 17.9365 75.4694 17.9045 74.4254 17.6063C74.1215 17.5197 73.834 17.3938 73.5585 17.238C73.4757 17.1911 73.4209 17.1417 73.422 17.0338C73.4278 16.567 73.4262 16.0998 73.4284 15.632C73.4284 15.6192 73.443 15.6065 73.4599 15.5798C73.531 15.6277 73.6022 15.6761 73.6732 15.7245C74.8774 16.5368 76.1895 16.7717 77.6023 16.4395C77.9837 16.3497 78.3277 16.171 78.6336 15.9239C79.1382 15.5151 79.4075 14.9824 79.4618 14.3424C79.4907 14.0042 79.4728 13.6678 79.3838 13.336C79.2363 12.7869 78.9176 12.37 78.4341 12.0746C78.0063 11.8136 77.5338 11.6843 77.0439 11.6041C76.3782 11.4951 75.707 11.5147 75.0366 11.5121C74.9416 11.5121 74.8437 11.5323 74.7388 11.4877V11.4877Z" fill="#DC3E15"/>
<path d="M60.3948 8.55425V10.0439C60.2928 10.0439 60.2311 9.97203 60.1583 9.92902C59.482 9.52443 58.7562 9.32248 57.9634 9.36548C56.7967 9.42931 55.9559 10.0029 55.3855 10.9976C55.1295 11.4446 54.992 11.9327 54.9383 12.4414C54.8645 13.1361 54.8919 13.8257 55.11 14.4964C55.5256 15.7739 56.6038 16.5602 57.9518 16.5846C58.7536 16.5996 59.4815 16.3794 60.1489 15.9435C60.2152 15.9005 60.2716 15.8394 60.3722 15.8202V17.2023C60.3422 17.2518 60.2721 17.2784 60.2085 17.3097C58.7514 18.0141 57.2697 18.0891 55.7873 17.4165C54.7234 16.9339 54.0243 16.0881 53.6598 14.9947C53.1574 13.4854 53.2305 11.9826 53.9411 10.5557C54.6643 9.10446 55.8843 8.31351 57.495 8.11945C58.3411 8.01793 59.1728 8.07427 59.9798 8.36563C60.1162 8.41503 60.2522 8.46607 60.3948 8.55425V8.55425Z" fill="#DC3E15"/>
<path d="M51.7993 17.6435H50.3613C50.3071 17.4613 50.2861 8.82806 50.335 8.34481C50.5083 8.30181 51.4638 8.28956 51.7988 8.3263C51.832 8.51343 51.8363 17.3847 51.7993 17.6435V17.6435Z" fill="#DC3E15"/>
<path d="M50.1117 4.94585C50.1222 4.39674 50.561 3.98466 51.1214 3.998C51.6813 4.01133 52.1011 4.4445 52.0858 4.99267C52.0706 5.53485 51.6218 5.95427 51.0692 5.94312C50.5066 5.93141 50.101 5.50926 50.1117 4.94585Z" fill="#DC3E15"/>
</svg>
