<svg width="100" height="27" viewBox="0 0 100 27" fill="none" xmlns="http://www.w3.org/2000/svg">
<g clip-path="url(#clip0_13_1421)">
<path d="M99.9806 4.56858C99.9694 4.53131 99.9582 4.49404 99.9433 4.45678C91.1146 4.4605 82.2896 4.45678 73.4646 4.4605C73.4422 4.48659 73.4273 4.51268 73.4236 4.54622C73.4236 11.3923 73.4236 18.2346 73.4198 25.0807C73.4757 25.4459 73.6769 25.7776 73.9453 26.0273C73.9565 26.0311 73.9826 26.0347 73.9938 26.0385C74.1317 26.1838 74.3292 26.2547 74.5155 26.3217C74.6534 26.3143 74.7876 26.3739 74.9255 26.359H85.8822C85.9866 26.3553 86.0946 26.3739 86.1952 26.3329C86.199 26.3181 86.2026 26.2919 86.2064 26.277C86.2102 26.2584 86.2138 26.2174 86.2176 26.1951C86.4524 24.8833 86.6797 23.5677 86.9294 22.2559L86.9518 22.0882C85.9381 22.0844 84.9207 22.0882 83.9071 22.0844C83.6611 22.077 83.4077 22.0844 83.1617 22.0546C82.7406 22.0359 82.3158 22.0508 81.8946 22.0099C81.3729 22.0099 80.8549 21.9614 80.3331 21.9614C79.9232 21.9204 79.5095 21.9353 79.0958 21.9167C78.8276 21.8832 78.5517 21.8981 78.2797 21.8869C77.8363 21.8385 77.3853 21.872 76.9418 21.8235C76.4723 21.8273 76.0027 21.7863 75.5331 21.7751C75.5368 21.7713 75.5406 21.7564 75.5406 21.7527C75.6971 21.7564 75.8499 21.7453 76.0064 21.7416C76.353 21.6968 76.7033 21.7266 77.0499 21.6782C77.4114 21.6782 77.7692 21.6298 78.1307 21.6298C78.4512 21.585 78.7754 21.6111 79.0958 21.5664C79.4723 21.5664 79.8412 21.5179 80.2177 21.5142C80.527 21.4732 80.84 21.4955 81.1494 21.4546C81.5109 21.4583 81.8686 21.4024 82.2301 21.4061C82.5842 21.3651 82.9456 21.3762 83.2996 21.3389C83.2662 21.2012 83.24 21.0632 83.2103 20.9253C83.1842 20.8396 83.0798 20.8582 83.0127 20.847C82.204 20.7314 81.399 20.616 80.5941 20.5042C80.6462 20.4631 80.717 20.4818 80.7767 20.4743C81.4028 20.4259 82.0251 20.37 82.6512 20.3253C82.7929 20.3179 82.9308 20.2917 83.0724 20.288C83.009 20.0942 82.9717 19.8818 82.886 19.7029C81.5482 19.498 80.2102 19.3153 78.876 19.0954C79.2226 19.0395 79.5729 19.0135 79.9195 18.9762L79.9493 18.965C81.0562 18.8494 82.1668 18.719 83.2736 18.611C84.6785 18.6035 86.0799 18.6071 87.4849 18.611C87.5295 18.6035 87.6079 18.6258 87.6153 18.5625C87.7308 17.9588 87.8426 17.3551 87.9581 16.7513C88.1183 15.9128 88.3718 15.0854 88.7631 14.3214C89.378 13.0916 90.3507 12.0481 91.5357 11.355C92.6426 10.7065 93.9247 10.3935 95.1992 10.3338C95.6129 10.2966 96.0303 10.3077 96.4402 10.3599C96.7086 10.4233 96.9843 10.4978 97.1968 10.6804C97.3719 10.822 97.4763 11.0307 97.5545 11.2394C97.726 11.7351 97.8229 12.2494 97.9049 12.7674C97.9086 12.9761 97.9458 13.2109 97.834 13.401C97.7297 13.5873 97.5211 13.6767 97.3235 13.7326C96.6042 13.919 95.8514 13.7438 95.1321 13.919C94.5397 14.0457 93.9881 14.3736 93.6116 14.8469C93.1682 15.3985 92.9333 16.0841 92.8029 16.77C92.7023 17.3812 92.5756 17.9923 92.4749 18.6072C93.183 18.611 93.8949 18.6035 94.6067 18.611C94.8899 18.611 95.1806 18.7675 95.2961 19.0358C95.4452 19.3787 95.4116 19.7663 95.3632 20.1278C95.3036 20.534 95.2067 20.9365 95.0241 21.3091C94.8712 21.6259 94.6178 21.9166 94.2712 22.0284C94.0924 22.0993 93.8986 22.0843 93.7085 22.0843C93.0823 22.0843 92.4562 22.0918 91.8302 22.0843C91.7296 22.5428 91.6625 23.0123 91.5731 23.4782C91.4092 24.3837 91.2489 25.2931 91.0849 26.2024C91.0811 26.2323 91.0774 26.2956 91.0774 26.3291C91.3718 26.344 91.6662 26.3291 91.9606 26.3366C94.1445 26.3366 96.3322 26.3328 98.5198 26.3366C98.7546 26.344 98.9931 26.2881 99.198 26.1726C99.321 26.1279 99.3956 26.0198 99.5036 25.9602C99.608 25.9006 99.6378 25.7777 99.7272 25.6993C99.8241 25.5279 99.9248 25.3491 99.9322 25.1477C99.9434 25.1477 99.9732 25.144 99.9881 25.1403C99.9768 18.2831 99.988 11.4258 99.9806 4.56858Z" fill="url(#paint0_linear_13_1421)" stroke="#FCD109" stroke-width="0.094"/>
<path d="M76.897 0.0591803C77.2137 -0.0414426 77.5454 0.0256393 77.8697 0.00327865C83.9556 0.00700543 90.0414 0.00327865 96.1271 0.00327865C96.4886 -0.0116284 96.8054 0.193344 97.1408 0.297694C97.4091 0.40577 97.6886 0.491486 97.957 0.607016C98.0129 0.629377 98.0539 0.677825 98.0948 0.718819C98.0911 1.21075 98.0948 1.70641 98.0948 2.20208C98.0986 2.33251 98.0762 2.46668 98.1209 2.59339C98.1992 2.60457 98.2401 2.6642 98.2924 2.71264C98.5383 2.82445 98.747 3.00706 98.9706 3.15613C99.306 3.39464 99.6638 3.60334 99.9917 3.84931C100.007 3.94621 99.9954 4.04683 99.9656 4.13627C99.9322 4.24062 99.9544 4.35242 99.9433 4.45677C91.1145 4.4605 82.2895 4.45677 73.4645 4.4605C73.4459 4.33752 73.4794 4.21453 73.4273 4.099C73.4198 4.00211 73.3863 3.8754 73.4794 3.80831C73.8521 3.54744 74.2472 3.31265 74.6123 3.03687C74.8397 2.89153 75.0595 2.74246 75.2794 2.59339C75.3241 2.51885 75.3092 2.42568 75.3092 2.34369C75.3092 1.80331 75.3092 1.26293 75.3129 0.722546C75.4397 0.558568 75.6596 0.539934 75.8347 0.457945C76.1889 0.323781 76.5467 0.193344 76.897 0.0591803M76.9193 0.122535C76.4423 0.305147 75.9616 0.480306 75.4845 0.662918C75.4212 0.674098 75.3876 0.73 75.3541 0.778448C75.3578 0.808262 75.3615 0.860437 75.3615 0.890251C75.3577 1.33746 75.3615 1.78468 75.3577 2.23189C75.3615 2.34369 75.3466 2.4555 75.3876 2.55612C75.3391 2.60457 75.287 2.65301 75.2273 2.69028C74.6869 3.0406 74.1652 3.42073 73.6248 3.76732C73.5316 3.82322 73.4273 3.89776 73.4571 4.02074C73.4385 4.08782 73.472 4.14372 73.5428 4.12509C74.713 4.11764 75.8795 4.13254 77.0498 4.11391C78.7902 4.11391 80.5268 4.11764 82.2673 4.11391L82.2933 4.10273C82.3716 4.12136 82.4498 4.11391 82.5318 4.11391C85.6846 4.11391 88.8375 4.11764 91.994 4.11391C92.9854 4.11764 93.9804 4.11391 94.9754 4.11391C96.6152 4.11391 98.2588 4.12882 99.8985 4.12136C99.947 4.11018 99.9619 4.07664 99.9433 4.01701C99.9395 3.95739 99.9619 3.8754 99.8985 3.83813C99.6377 3.71515 99.4141 3.52508 99.1644 3.37601C99.075 3.30147 98.9594 3.26048 98.8923 3.15986C98.6352 3.01451 98.3967 2.83563 98.1432 2.67538C98.0947 2.64556 98.0574 2.59711 98.0165 2.55612C98.0389 2.47786 98.0463 2.39214 98.0463 2.31015C98.0426 1.83685 98.0463 1.36355 98.0426 0.890251C98.0538 0.815715 98.05 0.73 97.9829 0.681552C97.5357 0.5213 97.0923 0.349869 96.6487 0.185891C96.5108 0.118809 96.358 0.0815409 96.209 0.0591803H77.1614C77.0796 0.062907 77.0013 0.103902 76.9193 0.122535V0.122535Z" fill="#F8F3B5"/>
<path d="M76.897 0.0591803C77.2137 -0.0414426 77.5454 0.0256393 77.8697 0.00327865C83.9556 0.00700543 90.0414 0.00327865 96.1271 0.00327865C96.4886 -0.0116284 96.8054 0.193344 97.1408 0.297694C97.4091 0.40577 97.6886 0.491486 97.957 0.607016C98.0129 0.629377 98.0539 0.677825 98.0948 0.718819C98.0911 1.21075 98.0948 1.70641 98.0948 2.20208C98.0986 2.33251 98.0762 2.46668 98.1209 2.59339C98.1992 2.60457 98.2401 2.6642 98.2924 2.71264C98.5383 2.82445 98.747 3.00706 98.9706 3.15613C99.306 3.39464 99.6638 3.60334 99.9917 3.84931C100.007 3.94621 99.9954 4.04683 99.9656 4.13627C99.9322 4.24062 99.9544 4.35242 99.9433 4.45677C91.1145 4.4605 82.2895 4.45677 73.4645 4.4605C73.4459 4.33752 73.4794 4.21453 73.4273 4.099C73.4198 4.00211 73.3863 3.8754 73.4794 3.80831C73.8521 3.54744 74.2472 3.31265 74.6123 3.03687C74.8397 2.89153 75.0595 2.74246 75.2794 2.59339C75.3241 2.51885 75.3092 2.42568 75.3092 2.34369C75.3092 1.80331 75.3092 1.26293 75.3129 0.722546C75.4397 0.558568 75.6596 0.539934 75.8347 0.457945C76.1889 0.323781 76.5467 0.193344 76.897 0.0591803M76.9193 0.122535C76.4423 0.305147 75.9616 0.480306 75.4845 0.662918C75.4212 0.674098 75.3876 0.73 75.3541 0.778448C75.3578 0.808262 75.3615 0.860437 75.3615 0.890251C75.3577 1.33746 75.3615 1.78468 75.3577 2.23189C75.3615 2.34369 75.3466 2.4555 75.3876 2.55612C75.3391 2.60457 75.287 2.65301 75.2273 2.69028C74.6869 3.0406 74.1652 3.42073 73.6248 3.76732C73.5316 3.82322 73.4273 3.89776 73.4571 4.02074C73.4385 4.08782 73.472 4.14372 73.5428 4.12509C74.713 4.11764 75.8795 4.13254 77.0498 4.11391C78.7902 4.11391 80.5268 4.11764 82.2673 4.11391L82.2933 4.10273C82.3716 4.12136 82.4498 4.11391 82.5318 4.11391C85.6846 4.11391 88.8375 4.11764 91.994 4.11391C92.9854 4.11764 93.9804 4.11391 94.9754 4.11391C96.6152 4.11391 98.2588 4.12882 99.8985 4.12136C99.947 4.11018 99.9619 4.07664 99.9433 4.01701C99.9395 3.95739 99.9619 3.8754 99.8985 3.83813C99.6377 3.71515 99.4141 3.52508 99.1644 3.37601C99.075 3.30147 98.9594 3.26048 98.8923 3.15986C98.6352 3.01451 98.3967 2.83563 98.1432 2.67538C98.0947 2.64556 98.0574 2.59711 98.0165 2.55612C98.0389 2.47786 98.0463 2.39214 98.0463 2.31015C98.0426 1.83685 98.0463 1.36355 98.0426 0.890251C98.0538 0.815715 98.05 0.73 97.9829 0.681552C97.5357 0.5213 97.0923 0.349869 96.6487 0.185891C96.5108 0.118809 96.358 0.0815409 96.209 0.0591803H77.1614C77.0796 0.062907 77.0013 0.103902 76.9193 0.122535V0.122535Z" stroke="#F8F3B5" stroke-width="0.094"/>
<path d="M75.3615 0.890251C75.6894 1.02814 76.0397 1.1064 76.3714 1.24057C76.5503 1.31138 76.6062 1.50517 76.6845 1.66169C76.6061 1.73996 76.513 1.80331 76.4198 1.86294C76.0769 2.094 75.7266 2.31761 75.3875 2.55612C75.3465 2.4555 75.3615 2.34369 75.3577 2.23189C75.3615 1.78468 75.3577 1.33746 75.3615 0.890251V0.890251ZM97.0326 1.24057C97.3643 1.11013 97.7109 1.02069 98.0426 0.890251C98.0463 1.36355 98.0426 1.83685 98.0463 2.31015C98.0463 2.39214 98.0389 2.47786 98.0165 2.55612C97.7258 2.35487 97.4314 2.16481 97.1407 1.96729C96.9991 1.86294 96.8426 1.78468 96.7159 1.65797C96.7941 1.50144 96.8538 1.31138 97.0326 1.24057V1.24057Z" fill="#F7B402" stroke="#F7B402" stroke-width="0.094"/>
<path d="M81.0486 1.39337C81.4585 1.29647 81.9169 1.66169 81.8834 2.09027C81.8871 2.5114 81.4435 2.85426 81.0374 2.75737C80.8734 2.70146 80.7168 2.61575 80.6163 2.4704C80.4858 2.27289 80.4559 2.00828 80.5603 1.79213C80.6349 1.58343 80.8361 1.44181 81.0486 1.39337V1.39337ZM91.681 1.62815C91.8525 1.43809 92.1245 1.33001 92.3779 1.39709C92.568 1.453 92.7544 1.57598 92.8363 1.76232C93.0003 2.08282 92.8736 2.51513 92.5531 2.68283C92.2698 2.83935 91.9121 2.76482 91.6959 2.53749C91.4761 2.28779 91.4611 1.87785 91.681 1.62815V1.62815Z" fill="#BDA727" stroke="#BDA727" stroke-width="0.094"/>
<path d="M76.4199 1.86294C76.513 1.80331 76.6062 1.73996 76.6846 1.66169L76.7106 1.68778C76.7367 1.88157 76.718 2.07909 76.7255 2.27288C76.7143 2.85426 76.7367 3.43936 76.7106 4.02074C75.6261 4.02074 74.5417 4.01329 73.4571 4.02074C73.4273 3.89776 73.5316 3.82322 73.6248 3.76732C74.1652 3.42073 74.6869 3.0406 75.2273 2.69028C75.287 2.65302 75.3391 2.60457 75.3876 2.55612C75.7267 2.31761 76.077 2.094 76.4199 1.86294V1.86294ZM96.6785 1.7884C96.6785 1.73996 96.6898 1.69896 96.7158 1.65797C96.8425 1.78468 96.9991 1.86294 97.1407 1.96729C97.4314 2.16481 97.7258 2.35487 98.0165 2.55612C98.0575 2.59711 98.0947 2.64556 98.1431 2.67538C98.3966 2.83563 98.635 3.01451 98.8923 3.15986C98.9593 3.26048 99.0748 3.30147 99.1643 3.37601C99.414 3.52508 99.6376 3.71515 99.8985 3.83813C99.9618 3.8754 99.9395 3.95739 99.9432 4.01701C98.8586 4.02074 97.7779 4.01329 96.6935 4.02074C96.6748 3.87167 96.686 3.7226 96.6823 3.57726C96.6823 2.98097 96.6749 2.38469 96.6785 1.7884V1.7884Z" fill="#F7E62D" stroke="#F7E62D" stroke-width="0.094"/>
<path d="M99.9433 4.01702C98.8587 4.02074 97.778 4.01329 96.6936 4.02074C96.6749 3.87167 96.6861 3.7226 96.6824 3.57726C96.6824 2.98097 96.6749 2.38469 96.6786 1.7884C96.6786 1.73996 96.6898 1.69896 96.7159 1.65797C96.7942 1.50144 96.8537 1.31138 97.0326 1.24057C97.3643 1.11013 97.7109 1.02069 98.0427 0.890252C98.0538 0.815716 98.0501 0.730001 97.983 0.681553C97.5357 0.521301 97.0923 0.34987 96.6488 0.185892C96.5109 0.11881 96.3581 0.0815419 96.209 0.0591812H77.1615C77.0795 0.062908 77.0012 0.103903 76.9192 0.122536C76.4422 0.305148 75.9615 0.480307 75.4844 0.662919C75.4211 0.674099 75.3875 0.730001 75.354 0.778449C75.3577 0.808263 75.3614 0.860438 75.3614 0.890252C75.6894 1.02814 76.0396 1.1064 76.3714 1.24057C76.5503 1.31138 76.6062 1.50517 76.6844 1.66169L76.7105 1.68778C76.7365 1.88157 76.7179 2.07909 76.7254 2.27289C76.7142 2.85426 76.7365 3.43937 76.7105 4.02074C75.626 4.02074 74.5415 4.01329 73.457 4.02074C73.4383 4.08782 73.4719 4.14373 73.5427 4.12509C74.7129 4.11764 75.8794 4.13255 77.0497 4.11391C78.7901 4.11391 80.5267 4.11764 82.2672 4.11391L82.2932 4.10273C82.3715 4.12137 82.4497 4.11391 82.5317 4.11391C85.6845 4.11391 88.8374 4.11764 91.9939 4.11391C92.9853 4.11764 93.9803 4.11391 94.9753 4.11391C96.6151 4.11391 98.2587 4.12882 99.8984 4.12137C99.947 4.11018 99.9619 4.07664 99.9433 4.01702V4.01702ZM80.5604 1.79213C80.6349 1.58343 80.8361 1.44181 81.0486 1.39337C81.4585 1.29647 81.9169 1.66169 81.8834 2.09027C81.8871 2.5114 81.4435 2.85426 81.0374 2.75737C80.8734 2.70146 80.7168 2.61575 80.6163 2.4704C80.4858 2.27289 80.456 2.00828 80.5604 1.79213ZM91.6811 1.62815C91.8525 1.43809 92.1245 1.33001 92.378 1.39709C92.568 1.45299 92.7544 1.57598 92.8364 1.76232C93.0003 2.08282 92.8736 2.51513 92.5531 2.68283C92.2698 2.83935 91.9121 2.76482 91.696 2.53749C91.4761 2.28779 91.4611 1.87785 91.6811 1.62815Z" fill="url(#paint1_radial_13_1421)" stroke="#FCD109" stroke-width="0.094"/>
<path d="M92.6309 5.65478C92.683 5.66596 92.3593 5.34375 92.4227 5.32884C92.4823 5.33629 92.7084 5.1608 92.9817 5.30398C93.2549 5.44716 93.1872 5.78224 93.1562 5.90649C93.1193 6.05437 93.0252 6.14873 92.9506 6.22327C92.9096 6.25681 92.8177 6.30898 92.7618 6.30525C92.7954 6.12264 92.6873 6.09283 92.6798 5.90649L92.6309 5.65478Z" fill="url(#paint2_linear_13_1421)" stroke="#FCD109" stroke-width="0.094"/>
<path d="M80.7175 5.85681C80.71 6.04315 80.6019 6.07297 80.6355 6.25558C80.5796 6.2593 80.4876 6.20713 80.4467 6.17359C80.3721 6.09905 80.2781 6.00469 80.2411 5.85681C80.2101 5.7326 80.1423 5.39752 80.4156 5.25431C80.6889 5.11109 80.915 5.28658 80.9746 5.27916C81.038 5.29407 80.7143 5.61629 80.7664 5.60511L80.7175 5.85681Z" fill="url(#paint3_linear_13_1421)" stroke="#FCD109" stroke-width="0.094"/>
<path d="M92.143 8.04216C92.1991 7.99348 92.2363 7.99348 92.3109 7.99348C91.8637 8.96245 91.3419 9.93141 90.5575 10.6858C90.4736 10.7607 90.3849 10.8301 90.2921 10.8937C90.2023 10.9594 90.1143 11.021 90.0268 11.0838C89.941 11.1434 89.8559 11.2032 89.7729 11.2656C89.5605 11.3812 89.3741 11.5414 89.1393 11.6122C88.7108 11.8172 88.2487 11.9551 87.7829 12.052C87.6003 12.0818 87.4139 12.1265 87.2276 12.1302C86.9965 12.1974 86.7506 12.1489 86.5158 12.1638C86.3853 12.1861 86.2697 12.1116 86.1431 12.1265C86.0332 12.111 85.9235 12.0923 85.8145 12.0706C85.7038 12.048 85.594 12.0219 85.485 11.9924C83.7766 11.4594 82.0995 10.155 81.6109 8.39095C81.5889 8.27214 81.5778 8.15158 81.5778 8.03075C81.6299 8.1351 81.684 8.23871 81.7399 8.34134C82.4349 9.85687 83.8138 11.0494 85.4429 11.409C85.5751 11.4693 85.7182 11.4482 85.845 11.5004C85.9605 11.5004 86.0723 11.4967 86.1841 11.5339C86.5679 11.5413 86.9518 11.5376 87.3357 11.5376C87.3878 11.5414 87.4362 11.5153 87.4885 11.5041C88.1282 11.4824 88.755 11.3079 89.3387 11.0433C89.4555 10.9904 89.5705 10.9339 89.6835 10.8742C89.7825 10.8222 89.8791 10.7657 89.973 10.7051C90.0653 10.6456 90.155 10.5823 90.242 10.5152C90.932 9.96868 91.5282 9.26059 91.9332 8.44632C92.0102 8.29979 92.0807 8.1641 92.143 8.04216Z" fill="#BDA727" stroke="#BDA727" stroke-width="0.094"/>
<path d="M91.5356 11.355C92.6424 10.7066 93.9245 10.3935 95.1991 10.3339C95.6128 10.2966 96.0302 10.3078 96.4401 10.36C96.7084 10.4233 96.9842 10.4979 97.1966 10.6805C97.0886 10.6879 96.9842 10.6395 96.8761 10.6246C96.5705 10.565 96.2538 10.5873 95.9444 10.5799C95.0462 10.5799 94.1407 10.6507 93.2723 10.8966C92.8177 11.0345 92.363 11.1948 91.9493 11.4333C91.2338 11.8283 90.5891 12.3501 90.0673 12.9762C89.1356 14.0458 88.5878 15.4023 88.3232 16.785C88.1965 17.5265 88.0511 18.2644 87.9356 19.0098C87.7493 19.0284 87.5592 19.0172 87.3729 19.0172C86.553 19.0135 85.7331 19.0098 84.9132 19.0024C84.738 19.0098 84.5665 18.9689 84.3914 18.98C82.9007 18.9874 81.41 18.9762 79.9193 18.9762L79.9491 18.965C81.056 18.8494 82.1666 18.719 83.2734 18.611C84.6783 18.6036 86.0797 18.6072 87.4847 18.611C87.5293 18.6036 87.6076 18.6258 87.6151 18.5625C87.7306 17.9588 87.8424 17.3551 87.9579 16.7513C88.1182 15.9129 88.3716 15.0855 88.7629 14.3215C89.3779 13.0917 90.3506 12.0482 91.5356 11.355Z" fill="#0D69B3" stroke="#0D69B3" stroke-width="0.094"/>
<path d="M93.2724 10.8966C94.1408 10.6507 95.0464 10.5799 95.9445 10.5799C96.2538 10.5873 96.5706 10.565 96.8762 10.6246C96.9842 10.6395 97.0886 10.6879 97.1967 10.6805C97.3719 10.8221 97.4762 11.0308 97.5545 11.2395C97.726 11.7352 97.8228 12.2495 97.9048 12.7675C97.9085 12.9762 97.9458 13.211 97.834 13.401C97.7296 13.5874 97.521 13.6768 97.3235 13.7327C96.6042 13.9191 95.8514 13.7439 95.1321 13.9191C94.5396 14.0458 93.988 14.3737 93.6116 14.847C93.1681 15.3985 92.9333 16.0842 92.8029 16.77C92.7023 17.3812 92.5755 17.9924 92.4749 18.6073C92.4302 18.7452 92.4041 18.8943 92.378 19.0397C93.0823 19.0509 93.7867 19.0397 94.4911 19.0471C94.7593 19.0397 95.0277 19.0545 95.2961 19.0359C95.4451 19.3788 95.4116 19.7664 95.3631 20.1279C95.3035 20.5341 95.2066 20.9365 95.024 21.3092C94.8711 21.626 94.6178 21.9167 94.2712 22.0285C94.0923 22.0993 93.8985 22.0844 93.7085 22.0844C93.0823 22.0844 92.4562 22.0918 91.8302 22.0844C91.7295 22.5428 91.6625 23.0124 91.573 23.4782C91.4091 24.3838 91.2488 25.2931 91.0848 26.2025C91.0811 26.2324 91.0774 26.2957 91.0774 26.3292V26.3329C89.4488 26.3329 87.8239 26.3367 86.1953 26.3329C86.199 26.3181 86.2027 26.2919 86.2065 26.277C86.2103 26.2584 86.2139 26.2174 86.2177 26.1951C86.2214 26.2249 86.2251 26.2808 86.2289 26.3069C86.3295 26.3181 86.5121 26.3702 86.5382 26.2249C86.7916 24.8534 87.0264 23.4745 87.2873 22.103C87.1867 22.0807 87.0823 22.0807 86.978 22.0993C86.9631 22.1515 86.9482 22.2036 86.9295 22.2558L86.9519 22.0881C85.9383 22.0843 84.9208 22.0881 83.9072 22.0843C83.6611 22.077 83.4078 22.0843 83.1618 22.0545C82.7407 22.0359 82.3159 22.0508 81.8947 22.0098C81.373 22.0098 80.855 21.9614 80.3332 21.9614C79.9233 21.9204 79.5096 21.9352 79.0959 21.9166C78.8277 21.8831 78.5518 21.898 78.2798 21.8868C77.8363 21.8383 77.3854 21.872 76.9419 21.8234C76.4724 21.8272 76.0028 21.7862 75.5332 21.775C75.5369 21.7713 75.5407 21.7564 75.5407 21.7527C75.6972 21.7564 75.85 21.7452 76.0065 21.7414C76.3531 21.6968 76.7034 21.7265 77.05 21.6781C77.4115 21.6781 77.7693 21.6296 78.1308 21.6296C78.4513 21.585 78.7755 21.611 79.0959 21.5663C79.4724 21.5663 79.8413 21.5178 80.2178 21.5141C80.5271 21.4731 80.8401 21.4955 81.1495 21.4545C81.5109 21.4582 81.8687 21.4023 82.2302 21.406C82.5843 21.365 82.9457 21.3762 83.2997 21.3389C83.2663 21.2011 83.2401 21.0632 83.2104 20.9252C83.1843 20.8395 83.0799 20.8581 83.0128 20.847C82.2041 20.7314 81.3991 20.6159 80.5942 20.5041C80.6463 20.463 80.7171 20.4816 80.7768 20.4743C81.4029 20.4257 82.0252 20.3698 82.6513 20.3252C82.793 20.3177 82.9308 20.2917 83.0725 20.288C83.0091 20.0941 82.9718 19.8817 82.8861 19.7028C81.5483 19.4978 80.2103 19.3152 78.8761 19.0954C79.2227 19.0395 79.573 19.0134 79.9196 18.9761C81.4103 18.9761 82.901 18.9873 84.3917 18.9798C84.5668 18.9687 84.7383 19.0097 84.9135 19.0023C85.7334 19.0097 86.5533 19.0135 87.3732 19.0171C87.5595 19.0171 87.7496 19.0283 87.9359 19.0097C88.0514 18.2643 88.1968 17.5264 88.3235 16.7848C88.5881 15.4021 89.1359 14.0457 90.0676 12.9761C90.5894 12.35 91.2341 11.8282 91.9496 11.4332C92.3631 11.1948 92.8178 11.0345 93.2724 10.8966Z" fill="#107BD4" stroke="#107BD4" stroke-width="0.094"/>
<path d="M92.4749 18.6073C93.183 18.6111 93.8949 18.6036 94.6066 18.6111C94.8899 18.6111 95.1805 18.7676 95.2961 19.0359C95.0277 19.0545 94.7594 19.0397 94.4911 19.0471C93.7867 19.0397 93.0823 19.0509 92.378 19.0397C92.4041 18.8943 92.4301 18.7452 92.4749 18.6073V18.6073ZM86.9779 22.0993C87.0823 22.0807 87.1867 22.0807 87.2872 22.103C87.0264 23.4745 86.7916 24.8534 86.5382 26.2249C86.5121 26.3702 86.3294 26.3181 86.2288 26.3069C86.225 26.2808 86.2214 26.2249 86.2177 26.1951C86.4524 24.8833 86.6797 23.5677 86.9295 22.2559C86.9481 22.2036 86.963 22.1515 86.9779 22.0993Z" fill="#0D69B3" stroke="#0D69B3" stroke-width="0.094"/>
<path d="M92.8008 5.75913C92.771 5.70323 92.7673 5.63615 92.7673 5.57279L92.7374 5.57652C92.6927 5.41254 92.5549 5.25602 92.376 5.24856C92.2418 5.23738 92.074 5.24111 91.9959 5.36782C91.8468 5.56907 91.9175 5.82621 91.9101 6.05355C91.9101 6.06845 91.9139 6.09454 91.9139 6.10945C91.9139 6.26225 91.8952 6.41132 91.8692 6.56039C91.8468 6.60511 91.8356 6.65356 91.8356 6.70573C91.7723 7.05605 91.6455 7.40264 91.4742 7.71942C91.4406 7.76414 91.4145 7.81258 91.4034 7.86476C91.2916 8.05855 91.1574 8.23744 91.0195 8.41632C90.9971 8.43496 90.9785 8.45732 90.9599 8.47968C90.8629 8.59893 90.7586 8.69956 90.6505 8.80391C90.6244 8.81881 90.6058 8.83745 90.5834 8.85235C90.4567 8.97534 90.3151 9.09087 90.1623 9.18404C90.1437 9.19522 90.125 9.21012 90.1026 9.22503C89.1485 9.85486 87.9896 10.1157 86.8603 10.1269C85.9026 10.1567 84.9373 9.95175 84.0727 9.53808C84.0578 9.53063 84.0206 9.51572 84.0056 9.50827C83.8603 9.43 83.7112 9.36292 83.577 9.26603C83.5472 9.25112 83.5174 9.23249 83.4838 9.21758C83.3459 9.13559 83.2155 9.04615 83.0925 8.9418C83.0515 8.90453 83.0068 8.87472 82.9621 8.84117C82.8279 8.7331 82.69 8.61757 82.5746 8.48713C82.5448 8.45359 82.5149 8.42378 82.4851 8.39396C82.079 7.97284 81.7622 7.45854 81.5945 6.89953C81.4342 6.45604 81.4566 5.97156 81.438 5.50571C81.3037 5.30074 81.0206 5.18521 80.797 5.31192C80.7038 5.379 80.6926 5.50199 80.6218 5.5877C80.5063 6.81754 81.0318 8.04364 81.8703 8.93062C81.8703 8.96043 81.8852 8.97907 81.9114 8.99025C82.0604 9.12814 82.2057 9.26975 82.3548 9.40392C82.3809 9.43001 82.4107 9.45609 82.4442 9.47845C82.5933 9.60144 82.7535 9.71324 82.9101 9.82877C82.9399 9.85113 82.9697 9.86976 83.0032 9.8884C83.2082 10.0077 83.4019 10.1493 83.6219 10.2313C83.6368 10.2424 83.6629 10.2611 83.6778 10.2685C84.3859 10.6077 85.1499 10.8387 85.9325 10.9133C86.0182 10.9133 86.1039 10.9207 86.1896 10.9393C86.5623 10.9617 86.935 10.9505 87.3077 10.9431C88.4592 10.8425 89.6481 10.5629 90.6096 9.88467L90.6208 9.89958C90.6506 9.87349 90.6767 9.85113 90.7065 9.82877C90.8593 9.71697 91.0084 9.59771 91.1575 9.47473C91.191 9.44864 91.2282 9.41882 91.2618 9.38528C91.4258 9.2064 91.6159 9.04242 91.7538 8.83745L91.7761 8.84863C91.7873 8.82999 91.8059 8.79273 91.8172 8.77409C91.9438 8.60266 92.0594 8.42378 92.1712 8.24489C92.1786 8.23371 92.1973 8.21508 92.2047 8.2039L92.1899 8.18899C92.2011 8.17408 92.2271 8.14427 92.2383 8.12936C92.4433 7.71196 92.6258 7.27593 92.6893 6.81381C92.7154 6.80263 92.7303 6.78027 92.7303 6.75418C92.7341 6.60511 92.7862 6.46349 92.7713 6.31442C92.8045 6.13181 92.8082 5.94547 92.8008 5.75913V5.75913Z" fill="white" stroke="white" stroke-width="0.094"/>
<path d="M80.3356 5.63324C80.6377 5.72801 81.3317 5.48958 81.5281 5.70778M80.5095 6.55249C80.799 6.45175 81.4198 6.21324 81.6772 6.35374M80.8076 7.47177C80.9476 7.51709 81.2234 7.27123 81.3605 7.1992C81.5643 7.09198 81.7735 7.0098 82.0002 6.97488M81.2549 8.44073C81.3992 8.23561 81.572 8.06526 81.7805 7.91954C81.9872 7.77517 82.5526 7.38941 82.7952 7.52145M81.6772 9.13641C81.841 9.00616 81.9077 8.77577 82.0798 8.63892C82.2879 8.47338 82.6067 8.44368 82.8201 8.34134M82.3791 9.6519C82.4281 9.29159 82.7939 8.85679 83.1431 8.88791M82.9195 10.1551C83.1039 10.1366 83.26 9.72364 83.3847 9.5837C83.5717 9.37407 83.7653 9.30959 84.0126 9.23577M83.9878 10.6023C83.9758 10.3415 84.2453 9.59398 84.5592 9.6333M84.7828 10.8507C84.7698 10.5426 84.9291 9.61579 85.3046 9.58362M85.6027 11.3476C85.5315 10.9167 85.5361 10.2934 85.876 9.98112M86.6214 11.447C86.5835 11.0878 86.2266 10.3617 86.6214 10.0805M87.7145 11.1985C87.5442 11.001 87.4451 10.2217 87.5158 10.006M88.758 11.0246C88.6266 10.786 88.4638 10.5619 88.414 10.2849C88.3842 10.1193 88.4364 9.88352 88.4102 9.75752M89.6276 10.6519C89.3426 10.4655 89.2635 9.78021 89.3543 9.48423M90.4724 10.2793C90.2696 9.84431 90.0534 9.50708 90.05 9.01216M91.2923 9.48423C90.9772 9.27229 90.5751 8.88701 90.6214 8.46559M92.1619 8.81341C91.6832 8.70735 91.1087 8.27903 90.8202 7.89413M92.5594 7.99352C92.214 7.91947 91.073 7.47431 91.1432 7.02456M92.932 7.12395C92.4509 6.94756 91.7509 6.78899 91.3668 6.45313M93.1805 6.32888C92.8774 6.35482 92.4432 6.2081 92.1352 6.15495C91.7932 6.09596 91.476 5.98069 91.1432 5.90649M92.8823 5.55871C92.2978 5.5937 91.7493 5.39369 91.2177 5.21089" stroke="#D1D1D1" stroke-width="2"/>
<path d="M18.0875 7.35062C18.6277 7.26911 19.2492 7.21817 19.7077 7.5544C19.993 7.76831 20.0949 8.15549 20.0745 8.502C20.0949 9.07257 19.83 9.68395 19.3206 9.97948C18.8722 10.224 18.3322 10.2443 17.8329 10.1934C17.4966 10.1527 17.1604 9.96935 16.9872 9.66364C16.5999 8.77715 17.0788 7.52384 18.0875 7.35062ZM1.92717 7.99255C1.95769 7.68685 2.23284 7.41173 2.54868 7.42198C4.90251 7.42198 7.24606 7.43212 9.58964 7.42198C9.84437 7.4016 10.1195 7.51363 10.2417 7.73779C10.4149 8.0435 10.2621 8.37973 10.2417 8.69565C10.1705 9.12352 10.1908 9.6942 9.69157 9.85717C7.97971 9.90811 6.26786 9.85717 4.556 9.87755C4.39299 10.9576 4.24016 12.0275 4.07708 13.0973C4.07708 13.1381 4.08732 13.2299 4.08732 13.2705C5.3406 13.2604 6.59388 13.2705 7.84715 13.2604C8.19363 13.24 8.56038 13.5356 8.52982 13.9023C8.4993 14.2794 8.41776 14.6461 8.36685 15.0232C8.32601 15.2779 8.12226 15.5123 7.85733 15.5632C6.46135 15.5938 5.04499 15.5326 3.64917 15.5938C3.42493 17.1324 3.15999 18.6709 2.92561 20.2096C2.89513 20.5153 2.6505 20.7802 2.34483 20.7903C1.7641 20.8005 1.18323 20.8005 0.602491 20.7903C0.225491 20.8005 -0.0802187 20.3826 0.0216341 20.026C0.643372 16.0116 1.28527 12.0072 1.92717 7.99255V7.99255ZM12.2796 7.44226C12.8095 7.40156 13.3494 7.43212 13.8793 7.42198C14.2054 7.4016 14.5315 7.65629 14.562 7.99255C14.562 8.25741 14.4906 8.52239 14.4601 8.78729C14.0321 11.5181 13.594 14.2489 13.166 16.9796C13.1049 17.4178 12.9928 17.8864 13.1253 18.3348C13.2781 18.7831 13.9607 18.5895 14.1238 19.0582C14.2257 19.4352 14.1136 19.8326 14.083 20.2198C14.0525 20.7293 13.4717 20.8413 13.0744 20.9535C12.2083 21.1165 11.1587 20.9942 10.5371 20.2809C10.0888 19.7613 10.0582 19.0276 10.15 18.3756C10.69 14.9112 11.23 11.4468 11.7803 7.97217C11.8109 7.71741 12.0147 7.48307 12.2796 7.44226V7.44226ZM32.5055 7.99255C32.536 7.68685 32.8112 7.42198 33.1169 7.42198H34.6657C35.0529 7.41173 35.3688 7.82954 35.2771 8.19629C34.9205 10.4584 34.5537 12.7205 34.197 14.9824C34.7371 14.9009 35.3485 14.799 35.7255 14.3609C36.3571 13.6476 36.8769 12.8224 37.264 11.9563C37.3964 11.62 37.4678 11.1309 37.906 11.0698C38.4868 11.0494 39.0777 11.0595 39.6585 11.0698C40.0559 11.0595 40.3514 11.5079 40.219 11.8747C40.0661 12.4148 39.8114 12.914 39.5465 13.3929C38.9555 14.3508 38.3034 15.2983 37.4474 16.0523C37.8244 17.1833 38.3034 18.2838 38.7211 19.3945C38.8434 19.7613 39.139 20.1892 38.8638 20.5459C38.5478 20.9738 37.9569 20.7598 37.5188 20.8107C37.0602 20.7598 36.3979 20.9941 36.1432 20.4745C35.6642 19.3638 35.2669 18.2227 34.7778 17.112C34.4925 17.1221 34.197 17.1324 33.9117 17.1019C33.8914 17.1426 33.8506 17.2241 33.8301 17.2649C33.6773 18.2838 33.5143 19.3028 33.3512 20.3217C33.2901 20.5662 33.0965 20.7802 32.8316 20.8006C32.2916 20.821 31.7413 20.8107 31.1911 20.8107C30.9567 20.8107 30.7428 20.6579 30.6408 20.4541C30.539 20.2502 30.6 20.016 30.6308 19.7919C31.2624 15.8587 31.8839 11.9256 32.5055 7.99255V7.99255ZM60.8219 9.10321C60.8932 8.81781 61.1683 8.62428 61.4537 8.63441C61.8613 8.64466 62.279 8.62428 62.6967 8.64466C63.033 8.6548 63.2979 8.99107 63.2571 9.31712C63.196 9.89794 63.0533 10.4788 63.0126 11.0595C63.4099 11.0595 63.8175 11.0493 64.2149 11.0595C64.5716 11.0595 64.8671 11.4263 64.8059 11.7727C64.7549 12.0887 64.6836 12.3944 64.6326 12.7101C64.5817 12.9751 64.3576 13.1891 64.1029 13.2298C63.6137 13.2604 63.1349 13.2094 62.656 13.2604C62.4522 14.6257 62.228 15.991 62.014 17.3566C61.9834 17.6724 61.9631 18.029 62.1465 18.3041C62.4216 18.6404 62.9004 18.518 63.2877 18.5589C63.5934 18.6505 63.787 18.9869 63.736 19.2926C63.685 19.6389 63.6749 19.9854 63.5934 20.3216C63.4711 20.6986 63.033 20.77 62.6967 20.8616C61.7694 21.1063 60.6996 21.1063 59.8743 20.5662C59.1101 20.0465 58.9878 19.0377 59.0693 18.1818C59.2832 16.5311 59.6196 14.8907 59.8029 13.2298C59.5176 13.2399 59.1712 13.2807 58.9572 13.026C58.7127 12.7713 58.835 12.3942 58.8757 12.0783C58.9369 11.7421 58.9267 11.3039 59.2935 11.1205C59.5889 11.0084 59.9253 11.09 60.2411 11.0492C60.4347 10.3972 60.6181 9.74511 60.8219 9.10321V9.10321ZM55.0649 12.4045C55.7068 11.7626 56.4811 11.2327 57.3676 10.9679C57.7548 10.7946 58.2541 11.1207 58.244 11.5486C58.1727 12.1091 58.0402 12.6592 57.9485 13.2094C57.9076 13.4846 57.6733 13.719 57.3982 13.7495C56.3996 13.9227 55.5335 14.5238 54.8407 15.2371C54.6675 15.4512 54.4127 15.6549 54.3822 15.9504C54.1682 17.3769 53.944 18.8034 53.7199 20.2299C53.6893 20.5355 53.4243 20.8311 53.1085 20.8108H51.5596C51.2031 20.8311 50.8872 20.4746 50.928 20.1179C51.3763 17.2954 51.8247 14.4832 52.2628 11.6606C52.2832 11.3754 52.487 11.1003 52.7824 11.0697C53.1594 11.0493 53.5364 11.0595 53.9236 11.0595C54.2293 11.0595 54.5146 11.3346 54.5146 11.6505C54.5146 12.0886 54.4739 12.5369 54.4637 12.9852C54.7082 12.8325 54.8611 12.5879 55.0649 12.4045V12.4045ZM16.9769 11.1104C17.5271 10.9984 18.0977 11.0901 18.6479 11.0595C18.9639 11.0188 19.3001 11.2225 19.351 11.5385C19.3918 11.8237 19.3102 12.0989 19.2796 12.374C18.8619 14.9927 18.4441 17.6114 18.0365 20.23C18.006 20.5256 17.7615 20.821 17.4456 20.8108C16.8954 20.8108 16.3451 20.821 15.7848 20.8007C15.4383 20.7598 15.1835 20.3626 15.2753 20.0262C15.7134 17.3058 16.1313 14.5953 16.5694 11.8747C16.5898 11.5792 16.6713 11.2327 16.9769 11.1104V11.1104ZM49.9497 11.243C48.4315 10.9576 46.8828 10.7538 45.3441 10.9067C43.9686 11.0799 42.5828 11.7015 41.7372 12.8325C40.5654 14.3201 40.1679 16.3173 40.4328 18.1718C40.5755 19.0582 40.9627 19.9549 41.6862 20.5051C42.3586 21.0248 43.2655 21.0961 44.0807 20.9636C45.2218 20.7394 46.1898 20.006 46.9847 19.1907C47.0253 19.5371 46.9438 19.8836 46.9643 20.2199C46.9847 20.5356 47.2699 20.8311 47.5858 20.8108H48.6252C48.9308 20.8108 49.1856 20.5256 49.206 20.23C49.6441 17.4687 50.0822 14.7175 50.5102 11.9664C50.5713 11.6199 50.2963 11.2837 49.9497 11.243V11.243ZM47.0866 16.0422C46.679 16.8064 46.1083 17.4993 45.4664 18.0901C45.0996 18.3958 44.6309 18.7118 44.1317 18.6099C43.6426 18.508 43.4082 17.9986 43.2962 17.5604C43.0414 16.4192 43.2758 15.176 43.9176 14.1877C44.203 13.7291 44.6615 13.3827 45.1913 13.24C45.9351 13.0566 46.7198 13.1483 47.4433 13.3521L47.484 13.3929C47.3923 14.2794 47.219 15.1557 47.0866 16.0422V16.0422ZM29.948 14.5138C29.9378 13.4948 29.6627 12.425 28.9495 11.6607C28.4604 11.1207 27.7267 10.8456 27.0135 10.8557C25.8315 10.815 24.7209 11.3958 23.8548 12.1702C23.6611 12.3231 23.5287 12.5472 23.3148 12.6695C23.3148 12.3331 23.3453 11.9969 23.3351 11.6505C23.3453 11.3346 23.0498 11.0595 22.7441 11.0595H21.7048C21.3788 11.0595 21.1138 11.3449 21.0934 11.6607C20.4515 15.7365 19.7994 19.8122 19.1575 23.888C19.0658 24.265 19.3919 24.6522 19.7791 24.642C20.3497 24.6318 20.9305 24.6828 21.4909 24.6011C21.9392 24.4789 21.929 23.9592 22.0004 23.5822C22.1633 22.6855 22.2755 21.7889 22.3774 20.882C24.3847 21.2692 26.718 21.0044 28.2159 19.4861C29.4386 18.1514 30.0091 16.3071 29.948 14.5138V14.5138ZM27.095 15.5428C27.0339 16.4803 26.6976 17.4279 26.0455 18.1105C25.1999 18.9156 23.9159 18.8034 22.8766 18.5284C22.8563 18.4978 22.8257 18.4366 22.8155 18.4061C22.9785 17.5196 23.06 16.6229 23.2638 15.7467C23.8345 14.8093 24.5273 13.8616 25.5156 13.342C25.8825 13.1688 26.3817 13.2096 26.6467 13.5458C27.095 14.1062 27.1358 14.8602 27.095 15.5428V15.5428Z" fill="#107BD4" stroke="#107BD4" stroke-width="0.101"/>
</g>
<defs>
<linearGradient id="paint0_linear_13_1421" x1="86.704" y1="4.45674" x2="86.704" y2="26.3614" gradientUnits="userSpaceOnUse">
<stop stop-color="#F7E830"/>
<stop offset="1" stop-color="#FDCB06"/>
</linearGradient>
<radialGradient id="paint1_radial_13_1421" cx="0" cy="0" r="1" gradientUnits="userSpaceOnUse" gradientTransform="translate(86.5897 14.4474) scale(17.817 17.817)">
<stop offset="0.596" stop-color="#F29405"/>
<stop offset="0.736" stop-color="#F7D01E"/>
<stop offset="1" stop-color="#FDCB06"/>
</radialGradient>
<linearGradient id="paint2_linear_13_1421" x1="92.7991" y1="5.2473" x2="92.8053" y2="6.28457" gradientUnits="userSpaceOnUse">
<stop stop-color="#FADA1C"/>
<stop offset="1" stop-color="#FDCB06"/>
</linearGradient>
<linearGradient id="paint3_linear_13_1421" x1="80.5982" y1="5.19762" x2="80.592" y2="6.23489" gradientUnits="userSpaceOnUse">
<stop stop-color="#FADA1C"/>
<stop offset="1" stop-color="#FDCB06"/>
</linearGradient>
<clipPath id="clip0_13_1421">
<rect width="100" height="26.3631" fill="white"/>
</clipPath>
</defs>
</svg>
