<?xml version="1.0" standalone="no"?>
<!DOCTYPE svg PUBLIC "-//W3C//DTD SVG 20010904//EN"
 "http://www.w3.org/TR/2001/REC-SVG-20010904/DTD/svg10.dtd">
<svg version="1.0" xmlns="http://www.w3.org/2000/svg"
 width="360.000000pt" height="235.000000pt" viewBox="0 0 360.000000 235.000000"
 preserveAspectRatio="xMidYMid meet">

<g transform="translate(0.000000,235.000000) scale(0.100000,-0.100000)"
fill="#000000" stroke="none">
<path d="M1242 2332 c-28 -11 -60 -26 -70 -35 -21 -19 -100 -38 -129 -31 -17
5 -22 0 -27 -30 -9 -46 13 -97 53 -125 27 -19 31 -29 32 -69 0 -26 4 -65 8
-87 l9 -40 1 49 c0 27 6 65 13 83 11 29 16 33 48 33 59 0 108 19 144 56 22 22
42 34 54 32 11 -2 29 5 39 15 19 16 21 16 38 -3 10 -11 28 -20 40 -20 32 0 38
-21 45 -140 l5 -105 13 100 c15 114 6 201 -26 245 -11 13 -43 38 -71 53 -69
38 -147 45 -219 19z"/>
<path d="M2145 2320 c-67 -14 -135 -58 -152 -99 -18 -41 -13 -214 6 -265 17
-42 24 -25 10 23 -15 49 -1 124 34 185 35 62 47 65 114 31 l57 -29 48 27 c63
35 80 34 116 -8 46 -51 68 -132 55 -192 -12 -50 -9 -68 7 -43 26 42 24 218 -4
283 -16 39 -81 74 -163 87 -65 11 -72 11 -128 0z"/>
<path d="M693 1891 c-45 -21 -67 -39 -79 -63 -34 -65 -28 -264 11 -405 12 -40
26 -61 68 -99 84 -76 133 -89 202 -54 48 24 45 24 45 0 0 -19 -96 -150 -109
-150 -3 1 -28 30 -56 65 -27 36 -52 60 -54 53 -2 -7 -10 -19 -19 -25 -14 -12
-14 -16 2 -49 9 -20 21 -66 26 -103 6 -36 13 -81 16 -100 5 -23 1 -45 -9 -65
-32 -62 -56 -126 -49 -129 4 -2 70 -4 146 -3 168 1 172 4 131 90 -26 55 -26
59 -12 89 8 18 20 51 26 74 6 22 19 51 29 62 15 19 21 20 56 10 28 -8 51 -8
81 0 23 6 77 11 120 12 76 1 80 1 106 -29 28 -31 48 -85 50 -132 1 -24 1 -24
14 5 33 72 26 215 -11 246 -8 6 -14 15 -14 19 0 3 54 6 120 5 l120 -1 0 31 c0
22 -10 41 -35 65 -19 18 -40 50 -46 69 -6 20 -20 51 -31 69 -17 27 -19 44 -14
87 3 29 9 60 12 69 4 12 -6 21 -41 36 -26 11 -48 20 -50 20 -2 0 -5 -12 -7
-27 -4 -38 -69 -75 -120 -69 -51 6 -98 41 -98 72 0 30 -12 28 -102 -17 l-58
-29 0 52 c1 29 5 72 9 96 8 40 7 43 -30 77 -46 41 -95 67 -168 89 -76 22 -107
20 -178 -13z m274 -147 c25 -7 73 -93 73 -131 0 -20 -4 -22 -32 -17 -28 4 -30
3 -10 -5 12 -6 22 -15 22 -20 0 -6 6 -8 13 -5 19 7 6 -100 -18 -146 -18 -37
-54 -80 -65 -80 -4 0 -10 13 -13 29 -11 53 -105 73 -176 36 -28 -14 -35 -27
-34 -62 2 -34 -44 10 -76 74 -47 94 -47 175 -1 280 l19 43 38 -26 c46 -31 96
-28 171 10 51 27 57 29 89 20z m113 -213 c0 -15 -7 -36 -15 -47 -14 -19 -14
-19 -15 2 0 38 12 84 21 78 5 -3 9 -18 9 -33z m-203 -151 c18 0 43 -29 43 -50
0 -24 -47 -50 -89 -50 -65 0 -99 37 -72 78 10 17 60 32 86 27 11 -3 25 -5 32
-5z m123 -170 c0 -5 -6 -10 -14 -10 -8 0 -18 5 -21 10 -3 6 3 10 14 10 12 0
21 -4 21 -10z"/>
<path d="M653 1592 c-9 -5 -10 -20 -5 -47 l7 -40 5 40 c4 31 10 41 30 46 l25
7 -25 1 c-14 0 -30 -3 -37 -7z"/>
<path d="M748 1593 c7 -3 16 -2 19 1 4 3 -2 6 -13 5 -11 0 -14 -3 -6 -6z"/>
<path d="M795 1578 c8 -5 15 -15 15 -23 0 -8 7 -11 21 -8 12 4 25 0 31 -8 8
-11 9 -10 4 3 -3 10 1 23 8 30 10 11 2 13 -41 14 -35 0 -48 -3 -38 -8z"/>
<path d="M781 1487 c-13 -21 -12 -21 5 -5 10 10 16 20 13 22 -3 3 -11 -5 -18
-17z"/>
<path d="M660 1491 c0 -6 4 -13 10 -16 6 -3 7 1 4 9 -7 18 -14 21 -14 7z"/>
<path d="M2133 1859 c-18 -5 -33 -11 -33 -14 0 -2 55 -4 123 -4 94 0 118 3
102 11 -26 15 -152 20 -192 7z"/>
<path d="M2528 1822 c-86 -43 -125 -77 -133 -114 -13 -66 -15 -69 -35 -58 -10
6 -21 10 -23 10 -3 0 -8 -35 -12 -77 -11 -121 -14 -124 -63 -67 l-43 48 -42
-42 c-24 -23 -45 -42 -48 -42 -4 0 -12 41 -18 90 -7 50 -15 90 -17 90 -3 0
-22 -9 -44 -20 -45 -23 -54 -43 -44 -105 5 -34 2 -51 -11 -71 -9 -14 -23 -47
-31 -74 -9 -32 -27 -59 -52 -82 -28 -25 -38 -42 -36 -59 1 -13 3 -27 3 -31 1
-5 113 -8 250 -8 218 0 250 -2 255 -16 9 -23 0 -32 -47 -45 -23 -6 -50 -18
-61 -27 -30 -27 -78 -102 -73 -115 6 -17 -18 -146 -36 -187 -22 -52 -11 -101
40 -181 18 -28 18 -28 -31 -94 -12 -16 -1 -56 24 -82 11 -12 16 -24 12 -27 -4
-2 -46 -15 -93 -28 l-85 -25 -68 33 c-37 18 -75 36 -84 39 -15 4 -20 -18 -40
-188 -13 -105 -26 -207 -29 -224 l-5 -33 221 0 c204 0 221 1 221 18 0 17 -16
90 -26 125 -5 15 4 17 100 17 l106 0 0 112 0 112 -30 -29 c-16 -16 -31 -27
-33 -24 -14 16 -87 129 -87 134 0 3 16 19 35 36 41 36 49 91 17 108 -10 5 -31
28 -47 51 -19 28 -33 39 -45 35 -40 -13 -90 96 -57 124 13 10 18 8 31 -16 l15
-28 -6 32 c-6 35 9 63 34 63 11 0 13 -4 5 -12 -5 -7 -7 -29 -4 -48 l6 -35 6
35 c4 30 10 35 41 43 32 7 40 17 75 84 65 126 119 147 173 70 16 -24 41 -51
55 -61 41 -26 59 -71 54 -135 -5 -51 -1 -50 16 2 14 45 44 -9 32 -58 -9 -37
-43 -67 -67 -60 -10 4 -19 3 -19 -2 0 -4 -19 -30 -42 -57 -53 -62 -56 -97 -11
-137 18 -16 33 -32 33 -37 0 -7 -62 -100 -87 -131 -2 -3 -17 8 -33 24 l-30 29
0 -112 0 -112 233 0 233 0 -7 71 c-12 111 -27 128 -143 166 -54 17 -100 34
-103 37 -3 2 4 15 16 27 25 27 28 84 6 113 -21 28 -19 46 12 78 36 37 44 123
17 173 -18 34 -18 39 -1 162 10 71 21 137 24 148 5 16 -2 13 -31 -13 -45 -39
-75 -41 -107 -6 -13 15 -42 34 -64 44 l-40 18 28 12 c23 11 27 19 27 56 0 32
-5 46 -18 53 -10 5 -31 28 -47 51 -19 27 -33 39 -43 35 -22 -8 -61 33 -68 72
-9 48 10 64 30 27 l15 -29 1 47 c0 55 7 62 49 47 44 -16 73 6 110 85 32 67 54
92 70 82 5 -4 26 -40 46 -81 41 -87 61 -101 110 -85 49 16 58 6 52 -54 l-6
-51 17 35 c9 19 18 37 19 39 1 2 9 -2 17 -8 12 -10 14 -6 10 31 -22 195 -27
205 -155 267 -86 42 -160 43 -241 3z"/>
<path d="M2926 1460 c-13 -39 -47 -71 -68 -64 -10 3 -18 2 -18 -3 0 -5 -20
-31 -45 -60 -35 -40 -45 -59 -45 -86 0 -30 4 -37 29 -45 16 -6 37 -24 47 -41
10 -17 24 -31 31 -31 8 0 13 -13 14 -32 0 -18 4 -42 9 -53 6 -14 8 -6 8 31 -1
58 5 80 34 146 21 46 22 48 57 42 25 -4 56 1 96 16 87 31 121 35 150 16 14 -9
25 -21 25 -27 0 -6 14 -42 31 -81 26 -59 30 -78 24 -117 -4 -30 -3 -43 3 -36
5 6 12 97 14 203 l5 193 -29 15 c-76 39 -226 36 -309 -6 -21 -11 -40 -20 -43
-20 -3 0 -6 15 -8 33 -3 31 -3 31 -12 7z"/>
<path d="M1715 1143 c-11 -2 -37 -9 -58 -14 -113 -29 -163 -158 -131 -344 l11
-70 2 53 c0 33 10 74 26 108 14 30 25 61 25 69 0 23 50 55 86 55 18 0 65 -12
104 -26 39 -14 82 -24 97 -22 23 3 27 -3 50 -62 14 -36 28 -90 32 -120 l7 -55
13 88 c16 109 8 204 -22 249 -38 57 -174 108 -242 91z"/>
<path d="M2831 1010 l-35 -17 37 -24 c20 -13 37 -29 37 -36 0 -6 -17 -25 -37
-42 l-38 -30 93 -1 92 0 -39 35 c-25 23 -43 50 -51 80 -7 25 -16 47 -19 49 -3
2 -21 -4 -40 -14z"/>
<path d="M995 950 c-3 -5 -1 -18 4 -27 10 -17 10 -17 11 0 0 10 10 22 23 27
21 8 21 9 -5 9 -15 1 -30 -3 -33 -9z"/>
<path d="M1133 949 c20 -8 27 -18 27 -37 0 -24 1 -25 14 -7 11 15 17 17 28 8
10 -9 16 -6 25 13 11 23 10 24 -30 24 -23 0 -53 3 -67 5 -23 5 -23 4 3 -6z"/>
<path d="M1258 953 c7 -3 16 -2 19 1 4 3 -2 6 -13 5 -11 0 -14 -3 -6 -6z"/>
<path d="M1353 953 c11 -3 17 -15 18 -36 1 -22 3 -25 6 -12 3 11 9 25 14 31
12 15 0 24 -30 23 -17 -1 -20 -3 -8 -6z"/>
<path d="M961 914 c0 -11 3 -14 6 -6 3 7 2 16 -1 19 -3 4 -6 -2 -5 -13z"/>
<path d="M1136 852 l-19 -27 24 22 c12 12 21 24 18 27 -2 2 -13 -8 -23 -22z"/>
<path d="M2368 863 c7 -3 16 -2 19 1 4 3 -2 6 -13 5 -11 0 -14 -3 -6 -6z"/>
<path d="M2613 859 c9 -5 17 -18 17 -27 0 -15 2 -15 10 -2 17 26 11 40 -17 40
-24 -1 -25 -2 -10 -11z"/>
<path d="M1230 856 c0 -2 8 -10 18 -17 15 -13 16 -12 3 4 -13 16 -21 21 -21
13z"/>
<path d="M2414 834 c8 -17 14 -20 23 -12 9 7 17 7 28 -2 12 -10 15 -9 15 8 0
11 5 22 12 24 6 2 -11 4 -38 4 -49 0 -50 -1 -40 -22z"/>
<path d="M1340 840 c-9 -6 -10 -10 -3 -10 6 0 15 5 18 10 8 12 4 12 -15 0z"/>
<path d="M1058 823 c7 -3 16 -2 19 1 4 3 -2 6 -13 5 -11 0 -14 -3 -6 -6z"/>
<path d="M1283 823 c9 -2 23 -2 30 0 6 3 -1 5 -18 5 -16 0 -22 -2 -12 -5z"/>
<path d="M2391 757 c-13 -21 -12 -21 5 -5 10 10 16 20 13 22 -3 3 -11 -5 -18
-17z"/>
<path d="M2290 740 c8 -5 20 -10 25 -10 6 0 3 5 -5 10 -8 5 -19 10 -25 10 -5
0 -3 -5 5 -10z"/>
<path d="M3066 651 c-14 -15 -15 -23 -5 -44 9 -19 8 -51 -5 -142 -9 -64 -16
-122 -16 -128 0 -11 95 -16 104 -6 2 2 -5 60 -15 129 -15 108 -16 128 -4 146
12 19 11 24 -9 43 -27 26 -29 26 -50 2z"/>
<path d="M942 532 c-126 -64 -175 -99 -197 -142 -14 -26 -55 -203 -55 -234 0
-7 30 -11 98 -10 53 1 150 2 215 3 l117 1 0 30 c0 30 -35 318 -46 378 -4 17
-9 32 -13 32 -3 -1 -57 -26 -119 -58z"/>
<path d="M1305 558 c-17 -105 -46 -384 -41 -404 3 -12 0 -50 -8 -83 l-14 -61
223 0 223 0 -5 42 c-12 108 -44 356 -49 379 -4 20 -10 26 -24 22 -10 -3 -48
12 -89 36 -60 35 -195 101 -206 101 -2 0 -7 -15 -10 -32z"/>
<path d="M1166 469 c-11 -16 -12 -27 -4 -44 8 -17 6 -54 -6 -137 -9 -62 -16
-119 -16 -125 0 -9 17 -13 50 -13 59 0 57 -8 34 146 -13 87 -13 111 -3 130 10
20 10 27 -6 44 -23 25 -30 25 -49 -1z"/>
</g>
</svg>
