<svg xmlns="http://www.w3.org/2000/svg" viewBox="0 0 500 500"><g id="freepik--Floor--inject-60"><ellipse id="freepik--floor--inject-60" cx="250" cy="370.13" rx="215.29" ry="122.75" style="fill:#fafafa"></ellipse></g><g id="freepik--Clouds--inject-60"><path id="freepik--Cloud--inject-60" d="M107.25,53.61,95.53,60.38a13.73,13.73,0,0,0,.1-1.55v-3.4c0-6-4.24-8.49-9.48-5.47a18.49,18.49,0,0,0-5.64,5.43C79.65,47.8,73.69,45,66.45,49.15c-7.82,4.51-14.17,15.5-14.17,24.54v5.08a13.45,13.45,0,0,0,1.2,5.88l-9.73,5.62a11.63,11.63,0,0,0-5.26,9.1c0,3.35,2.36,4.71,5.26,3l63.5-36.66a11.62,11.62,0,0,0,5.25-9.1C112.5,53.3,110.15,51.94,107.25,53.61Z" style="fill:#ebebeb"></path><path id="freepik--cloud--inject-60" d="M182.64,46.57l-8.59,5a8.74,8.74,0,0,0,.08-1.14V47.91c0-4.43-3.11-6.23-6.95-4a13.35,13.35,0,0,0-4.14,4c-.62-5.57-5-7.65-10.3-4.58-5.74,3.31-10.39,11.37-10.39,18V65a9.85,9.85,0,0,0,.88,4.32l-7.13,4.12a8.49,8.49,0,0,0-3.86,6.67c0,2.45,1.73,3.45,3.86,2.22l46.54-26.87a8.53,8.53,0,0,0,3.86-6.67C186.5,46.34,184.77,45.34,182.64,46.57Z" style="fill:#ebebeb"></path></g><g id="freepik--Plants--inject-60"><g id="freepik--plants--inject-60"><path d="M449.55,384.08a.74.74,0,0,1-.21,0l-6.2-1.6a.53.53,0,0,1-.37-.34c0-.16-5.44-16.28,6-38.13,8.2-15.6,21-25.73,29.2-23.07a9.1,9.1,0,0,1,6.37,6.48,10.55,10.55,0,0,1-3.33,9.84c-.64.63-1.64,1.48-2.91,2.56C470.32,346.46,452,362.05,450,383.6a.52.52,0,0,1-.22.39A.92.92,0,0,1,449.55,384.08Zm-5.85-2.57,5.3,1.37c2.31-21.66,20.6-37.21,28.45-43.89,1.25-1.06,2.24-1.9,2.85-2.5a9.5,9.5,0,0,0,3-8.84,8,8,0,0,0-5.67-5.71c-7.69-2.5-19.95,7.41-27.91,22.55C439.31,364.38,443.07,379.35,443.7,381.51Z" style="fill:#BA68C8"></path><path d="M446,383.17H446a.54.54,0,0,1-.54-.53c-.46-25.16,17-49.4,28.68-54.4a.54.54,0,0,1,.42,1c-11.59,4.93-28.47,29.53-28,53.39A.55.55,0,0,1,446,383.17Z" style="fill:#BA68C8"></path><path d="M443.36,382.49a.65.65,0,0,1-.24,0l-4.19-1.27a.53.53,0,0,1-.36-.35c-.08-.24-7.48-24.28-2-56.67,2.78-16.49,12.39-32.59,22.86-38.26,5-2.73,10-3.07,14.71-1,2.67,1.16,4.34,2.87,5,5.09,1.73,6.12-4.63,15.25-11.36,24.9-4.72,6.76-9.59,13.75-11.81,19.92a.54.54,0,0,1-1-.37c2.27-6.3,7.19-13.34,11.94-20.16,6.59-9.44,12.81-18.36,11.21-24-.54-1.92-2-3.36-4.37-4.4-4.4-1.92-9-1.6-13.77,1-10.2,5.53-19.59,21.3-22.32,37.5-5.1,30.3,1.12,53.19,1.91,55.9l3.92,1.18a.53.53,0,0,1,.36.67A.52.52,0,0,1,443.36,382.49Z" style="fill:#BA68C8"></path><path d="M442.32,367.17h0a.55.55,0,0,1-.58-.49c-3.16-38.93,18.56-70.1,25-75.45a.54.54,0,0,1,.69.82c-6.34,5.28-27.73,36-24.6,74.54A.54.54,0,0,1,442.32,367.17Z" style="fill:#BA68C8"></path></g></g><g id="freepik--Shadows--inject-60"><polygon id="freepik--Shadow--inject-60" points="93.23 465.37 11.85 418.38 225.48 295.04 306.87 342.03 93.23 465.37" style="fill:#e0e0e0"></polygon><ellipse id="freepik--shadow--inject-60" cx="385.14" cy="406.71" rx="84.2" ry="48.62" style="fill:#e0e0e0"></ellipse></g><g id="freepik--Boombox--inject-60"><g id="freepik--boombox--inject-60"><path d="M241.81,188.69a2.25,2.25,0,0,0-2.31.18l-188.79,109c-2,1.12-3.53,4.14-3.53,6.74V425.54a3.17,3.17,0,0,0,1.19,2.84L96.21,456a2.26,2.26,0,0,0,2.31-.19l188.79-109a8.45,8.45,0,0,0,3.53-6.74V219.14a3.12,3.12,0,0,0-1.23-2.85Z" style="fill:#BA68C8"></path><path d="M241.81,188.69a2.25,2.25,0,0,0-2.31.18l-188.79,109c-2,1.12-3.53,4.14-3.53,6.74V425.54a3.17,3.17,0,0,0,1.19,2.84L96.21,456a2.26,2.26,0,0,0,2.31-.19l188.79-109a8.45,8.45,0,0,0,3.53-6.74V219.14a3.12,3.12,0,0,0-1.23-2.85Z" style="fill:#fff;opacity:0.7000000000000001"></path><path d="M287.31,346.82l-188.79,109c-2,1.13-3.53-.06-3.53-2.66V332.21a8.45,8.45,0,0,1,3.53-6.74l188.79-109c1.95-1.13,3.53.06,3.53,2.66V340.08A8.45,8.45,0,0,1,287.31,346.82Z" style="fill:#BA68C8"></path><path d="M287.31,346.82l-188.79,109c-2,1.13-3.53-.06-3.53-2.66V332.21a8.45,8.45,0,0,1,3.53-6.74l188.79-109c1.95-1.13,3.53.06,3.53,2.66V340.08A8.45,8.45,0,0,1,287.31,346.82Z" style="fill:#fff;opacity:0.5"></path><path d="M113.17,332.19c-1.39-.81-3.31-.7-5.43.53a17,17,0,0,0-7.68,13.3c0,2.44.86,4.16,2.25,5l3.85,2.22c1.39.8,3.31.69,5.42-.53a17,17,0,0,0,7.68-13.3c0-2.45-.86-4.17-2.25-5Z" style="fill:#BA68C8"></path><path d="M113.17,332.19c-1.39-.81-3.31-.7-5.43.53a17,17,0,0,0-7.68,13.3c0,2.44.86,4.16,2.25,5l3.85,2.22c1.39.8,3.31.69,5.42-.53a17,17,0,0,0,7.68-13.3c0-2.45-.86-4.17-2.25-5Z" style="opacity:0.15"></path><path d="M107.74,346l-7-4a13.29,13.29,0,0,0-.69,4c0,2.44.86,4.16,2.25,5l3.85,2.22c1.39.8,3.31.69,5.42-.53a13.51,13.51,0,0,0,3.16-2.62Z" style="opacity:0.15"></path><path d="M106.5,345l-5.67-3.27c-.06.15-.11.3-.16.46l5.59,3.22Zm-4.9-5.2,5.62,3.24.24-.41-5.65-3.26Zm-.47,10.06,5.21,3,.24-.41-5.93-3.42A4.41,4.41,0,0,0,101.13,349.88Zm4.73.09-5.77-3.32c0,.19,0,.39.06.57l5.47,3.16Zm.08-2.55-5.72-3.3-.06.51,5.54,3.2Zm-3.07-9.87,5.65,3.26.23-.41-5.61-3.24C103.05,337.29,103,337.42,102.87,337.55Zm1.55-2,5.67,3.28.24-.41-5.59-3.23Zm3.87-3.09,5.77,3.34.24-.41-5.48-3.17Zm3.29-.73a4.92,4.92,0,0,0-.94,0l6,3.44.24-.41Zm-5.41,2.11,5.72,3.3.24-.4-5.55-3.21C106.44,333.61,106.3,333.7,106.17,333.81Z" style="opacity:0.25"></path><path d="M103.9,348.23c0,4.9,3.44,6.88,7.68,4.44a17,17,0,0,0,7.68-13.3c0-4.9-3.44-6.88-7.68-4.44A17,17,0,0,0,103.9,348.23Z" style="fill:#BA68C8"></path><path d="M108.15,352.06c-2.34,0-2.59-2.68-2.59-3.83a15.37,15.37,0,0,1,6.85-11.86,5.44,5.44,0,0,1,2.6-.83c2.34,0,2.59,2.68,2.59,3.83a15.37,15.37,0,0,1-6.85,11.86A5.38,5.38,0,0,1,108.15,352.06ZM115,336a5,5,0,0,0-2.37.77A14.86,14.86,0,0,0,106,348.23c0,1,.21,3.36,2.12,3.36a5,5,0,0,0,2.37-.77,14.86,14.86,0,0,0,6.61-11.45C117.13,338.36,116.93,336,115,336Z" style="fill:#fff"></path><path d="M281.18,235.18c-1.38-.8-3.3-.69-5.42.53a17,17,0,0,0-7.68,13.3c0,2.45.86,4.16,2.25,5l3.85,2.23c1.39.8,3.3.68,5.42-.54a17,17,0,0,0,7.68-13.3c0-2.45-.87-4.16-2.26-5Z" style="fill:#BA68C8"></path><path d="M281.18,235.18c-1.38-.8-3.3-.69-5.42.53a17,17,0,0,0-7.68,13.3c0,2.45.86,4.16,2.25,5l3.85,2.23c1.39.8,3.3.68,5.42-.54a17,17,0,0,0,7.68-13.3c0-2.45-.87-4.16-2.26-5Z" style="opacity:0.15"></path><path d="M275.76,249l-7-4a13.34,13.34,0,0,0-.69,4c0,2.45.86,4.16,2.25,5l3.85,2.23c1.39.8,3.3.68,5.42-.54a13.42,13.42,0,0,0,3.15-2.61Z" style="opacity:0.15"></path><path d="M274.52,248l-5.68-3.28-.15.46,5.59,3.23Zm-4.9-5.21,5.62,3.25.23-.41-5.65-3.27C269.75,242.53,269.69,242.67,269.62,242.81Zm-.48,10.07,5.22,3,.23-.41-5.93-3.43A4.75,4.75,0,0,0,269.14,252.88Zm4.74.09-5.77-3.33a5.42,5.42,0,0,0,.06.58l5.47,3.16Zm.08-2.55-5.72-3.3c0,.17,0,.34-.06.51l5.54,3.2Zm-3.08-9.87,5.65,3.26.24-.41-5.62-3.24Zm1.56-2,5.67,3.27.24-.41-5.6-3.23C272.65,238.27,272.54,238.39,272.44,238.52Zm3.87-3.09,5.77,3.33.24-.4-5.49-3.17C276.66,235.26,276.48,235.34,276.31,235.43Zm3.29-.73a4.92,4.92,0,0,0-.94,0l5.95,3.44.24-.41Zm-5.41,2.11,5.72,3.3.23-.41-5.54-3.2C274.46,236.6,274.32,236.7,274.19,236.81Z" style="opacity:0.25"></path><ellipse cx="279.6" cy="246.8" rx="10.86" ry="6.27" transform="translate(-73.93 365.54) rotate(-60)" style="fill:#BA68C8"></ellipse><path d="M276.17,255.06c-2.34,0-2.6-2.68-2.6-3.83a15.4,15.4,0,0,1,6.86-11.87,5.36,5.36,0,0,1,2.6-.82c2.34,0,2.59,2.67,2.59,3.82a15.42,15.42,0,0,1-6.85,11.87A5.44,5.44,0,0,1,276.17,255.06ZM283,239a5,5,0,0,0-2.37.76,14.88,14.88,0,0,0-6.61,11.46c0,1,.2,3.35,2.12,3.35a5,5,0,0,0,2.37-.76,14.88,14.88,0,0,0,6.61-11.46C285.15,241.35,284.94,239,283,239Z" style="fill:#fff"></path><path d="M95,449.13v4c0,2.6,1.58,3.79,3.53,2.66l188.79-109a8.45,8.45,0,0,0,3.53-6.74v-4Z" style="fill:#BA68C8"></path><path d="M261.05,262.62,124.78,341.29c-.65.38-1.19,0-1.19-.9V325.64a2.88,2.88,0,0,1,1.19-2.28l136.27-78.67c.65-.38,1.19,0,1.19.9v14.75A2.88,2.88,0,0,1,261.05,262.62Z" style="fill:#455a64"></path><polygon points="258.09 250.53 127.72 325.8 127.72 327.08 127.74 327.1 258.09 251.84 258.09 250.53" style="fill:#e0e0e0"></polygon><polygon points="258.09 258.88 127.72 334.15 127.72 335.42 127.74 335.45 258.09 260.19 258.09 258.88" style="fill:#e0e0e0"></polygon><path d="M161.07,312.55l.66-.38v-2.35l-.66.38Zm4.2-2.42.66-.39v-2.35l-.66.38Zm4.2-2.43.66-.38V305l-.66.38Zm4.21-2.43.66-.38v-2.35l-.66.38Zm12.6-7.27.66-.39v-2.35l-.66.38Zm-8.4,4.85.66-.38v-2.36l-.66.39Zm4.2-2.43.66-.38v-2.35l-.66.38Zm8.4-4.85.66-.38v-2.35l-.66.38Zm-50.42,29.11.66-.38V322l-.66.38Zm-8.4,4.85.66-.38V326.8l-.66.38ZM156.87,315l.66-.38v-2.36l-.66.39Zm-29.42,17,.66-.38v-2.35l-.66.38Zm16.81-9.7.66-.39v-2.35l-.66.38Zm8.41-4.86.66-.38v-2.35l-.66.38Zm-4.21,2.43.66-.38V317.1l-.66.38Zm-12.6,7.28.66-.38v-2.36l-.66.39ZM245.11,264l.66-.38V261.3l-.66.38Zm-50.42,29.11.66-.38v-2.35l-.66.38Zm46.22-26.68.66-.39v-2.35l-.66.39Zm-12.61,7.27.66-.38V271l-.66.38Zm4.2-2.42.66-.38v-2.35l-.66.38Zm25.22-16.91v2.35l.66-.38V254Zm-4.21,4.78.66-.38v-2.35l-.66.38Zm-4.2,2.42.66-.38v-2.35l-.66.38Zm-12.6,7.28.66-.38v-2.35l-.66.38Zm-33.62,19.41.66-.38v-2.35l-.66.38Zm4.2-2.43.66-.38v-2.35l-.66.38Zm-8.4,4.86.66-.38V288l-.66.39Zm25.21-14.56.66-.38v-2.35l-.66.38Zm-4.2,2.43.66-.38v-2.36l-.66.39Zm-8.41,4.85.66-.38v-2.35l-.66.38ZM215.7,281l.66-.38v-2.35l-.66.38Z" style="fill:#e0e0e0"></path><path d="M219.08,361.86l-52.33,30.21c-.85.49-1.55,0-1.55-1.18h0a3.76,3.76,0,0,1,1.55-3l52.33-30.2c.85-.5,1.55,0,1.55,1.17h0A3.76,3.76,0,0,1,219.08,361.86Z" style="fill:#455a64"></path><path d="M157.81,400.57,105.19,431c-1.37.79-2.47,0-2.47-1.86V369.9a5.9,5.9,0,0,1,2.47-4.72l52.62-30.38c1.37-.79,2.48.05,2.48,1.86v59.19A5.91,5.91,0,0,1,157.81,400.57Z" style="fill:#455a64"></path><path d="M118.81,421.58c-10.77,0-17.73-8.75-17.73-22.3,0-18.73,13.19-41.59,29.42-51,4.77-2.75,9.37-4.15,13.69-4.15,10.78,0,17.74,8.76,17.74,22.3,0,18.73-13.2,41.59-29.42,51a27.67,27.67,0,0,1-13.7,4.15Z" style="fill:#BA68C8"></path><path d="M103.09,399.28c0,18.12,12.72,25.47,28.41,16.41s28.42-31.1,28.42-49.22S147.19,341,131.5,350.07,103.09,381.16,103.09,399.28Z" style="fill:#263238"></path><path d="M157.51,365.08c0-8.35-2.71-14.41-7.16-17.63-5-2.24-11.61-1.56-18.85,2.62-15.69,9.06-28.41,31.09-28.41,49.21,0,8.36,2.7,14.41,7.16,17.63,5,2.25,11.61,1.57,18.85-2.61C144.79,405.24,157.51,383.2,157.51,365.08Z" style="fill:#37474f"></path><path d="M109.78,392.64c0,12.32,8.65,17.31,19.32,11.15s19.32-21.14,19.32-33.45S139.77,353,129.1,359.18,109.78,380.32,109.78,392.64Z" style="fill:#BA68C8"></path><path d="M120.47,404.42c-5.43,0-8.68-4.4-8.68-11.78,0-11.66,8.22-25.89,18.31-31.72a15.73,15.73,0,0,1,7.63-2.37c5.43,0,8.68,4.41,8.68,11.79,0,11.65-8.22,25.88-18.32,31.71a15.69,15.69,0,0,1-7.62,2.37Z" style="fill:#37474f"></path><path d="M122.12,400c-4.39,0-7-3.56-7-9.53,0-9.42,6.64-20.92,14.8-25.64a12.71,12.71,0,0,1,6.16-1.91c4.4,0,7,3.56,7,9.52,0,9.43-6.64,20.93-14.8,25.64a12.66,12.66,0,0,1-6.17,1.92Z" style="fill:#455a64"></path><path d="M106.75,394.39a22.35,22.35,0,0,0,1.84,8.61,11.41,11.41,0,0,0,5.93,6,13.27,13.27,0,0,0,8.47.33,25.63,25.63,0,0,0,7.85-3.77,44.45,44.45,0,0,0,12-12.77,48.64,48.64,0,0,0,4.09-7.84,39.1,39.1,0,0,0,2.51-8.51,41,41,0,0,1-5.95,16.76,46.91,46.91,0,0,1-5.35,7.21,39.21,39.21,0,0,1-6.74,6,26.39,26.39,0,0,1-8.18,3.82,13.61,13.61,0,0,1-9-.5,12,12,0,0,1-6.07-6.56A21.54,21.54,0,0,1,106.75,394.39Z" style="fill:#455a64"></path><path d="M106.28,407.52a13.73,13.73,0,0,0,4.88,4.76,12.5,12.5,0,0,0,6.52,1.58c4.55-.08,8.9-2,12.71-4.45a46.33,46.33,0,0,0,10.19-9.18,55.8,55.8,0,0,0,4.14-5.54,59.71,59.71,0,0,0,3.49-6,49.3,49.3,0,0,1-7,12,44.42,44.42,0,0,1-10.24,9.53,31.48,31.48,0,0,1-6.31,3.14,19.17,19.17,0,0,1-7,1.24,12.57,12.57,0,0,1-11.39-7.11Z" style="fill:#455a64"></path><path d="M155.92,339.87c.88-.51,1.6-.1,1.6.92a3.54,3.54,0,0,1-1.6,2.76c-.88.5-1.59.09-1.59-.92A3.5,3.5,0,0,1,155.92,339.87Z" style="fill:#263238"></path><path d="M155.92,394.42c.88-.5,1.6-.09,1.6.92a3.51,3.51,0,0,1-1.6,2.76c-.88.51-1.59.1-1.59-.92A3.53,3.53,0,0,1,155.92,394.42Z" style="fill:#263238"></path><path d="M107.39,367.89c.88-.51,1.59-.1,1.59.92a3.53,3.53,0,0,1-1.59,2.76c-.88.51-1.6.09-1.6-.92A3.53,3.53,0,0,1,107.39,367.89Z" style="fill:#263238"></path><path d="M107.39,422.45c.88-.51,1.59-.1,1.59.92a3.53,3.53,0,0,1-1.59,2.76c-.88.5-1.6.09-1.6-.92A3.51,3.51,0,0,1,107.39,422.45Z" style="fill:#263238"></path><path d="M280.64,329.66,228,360c-1.36.79-2.47-.05-2.47-1.87V299a5.93,5.93,0,0,1,2.47-4.72l52.63-30.39c1.37-.78,2.47.05,2.47,1.87v59.19A5.9,5.9,0,0,1,280.64,329.66Z" style="fill:#455a64"></path><path d="M241.64,350.66c-10.77,0-17.74-8.75-17.74-22.29,0-18.73,13.2-41.59,29.42-51a27.67,27.67,0,0,1,13.7-4.15c10.77,0,17.73,8.75,17.73,22.3,0,18.73-13.19,41.59-29.42,50.95a27.53,27.53,0,0,1-13.69,4.15Z" style="fill:#BA68C8"></path><path d="M225.91,328.37c0,18.12,12.73,25.46,28.42,16.4s28.41-31.09,28.41-49.21S270,270.09,254.33,279.15,225.91,310.25,225.91,328.37Z" style="fill:#263238"></path><path d="M280.34,294.17c0-8.36-2.71-14.41-7.16-17.63-5-2.25-11.62-1.57-18.85,2.61-15.69,9.06-28.42,31.1-28.42,49.22,0,8.35,2.71,14.41,7.16,17.63,5,2.24,11.62,1.56,18.86-2.61C267.62,334.32,280.34,312.29,280.34,294.17Z" style="fill:#37474f"></path><path d="M232.61,321.73c0,12.32,8.65,17.31,19.32,11.15s19.31-21.14,19.31-33.46-8.65-17.31-19.31-11.15S232.61,309.41,232.61,321.73Z" style="fill:#BA68C8"></path><path d="M243.3,333.51c-5.44,0-8.68-4.41-8.68-11.78,0-11.66,8.21-25.89,18.31-31.72a15.69,15.69,0,0,1,7.62-2.37c5.44,0,8.68,4.4,8.68,11.78,0,11.66-8.21,25.89-18.31,31.72a15.69,15.69,0,0,1-7.62,2.37Z" style="fill:#37474f"></path><path d="M245,329.11c-4.39,0-7-3.56-7-9.52,0-9.42,6.65-20.93,14.81-25.64A12.74,12.74,0,0,1,258.9,292c4.39,0,7,3.56,7,9.53,0,9.42-6.64,20.93-14.81,25.64a12.71,12.71,0,0,1-6.16,1.91Z" style="fill:#455a64"></path><path d="M229.58,323.48a22.3,22.3,0,0,0,1.84,8.6,11.43,11.43,0,0,0,5.93,6.05,13.2,13.2,0,0,0,8.47.32,25.55,25.55,0,0,0,7.84-3.76,44.31,44.31,0,0,0,12-12.77,47.9,47.9,0,0,0,4.1-7.84,38.53,38.53,0,0,0,2.5-8.51,41,41,0,0,1-5.94,16.75,45.4,45.4,0,0,1-5.36,7.21,38.68,38.68,0,0,1-6.73,6,26.24,26.24,0,0,1-8.19,3.83,13.58,13.58,0,0,1-9-.51,12,12,0,0,1-6.07-6.55A21.6,21.6,0,0,1,229.58,323.48Z" style="fill:#455a64"></path><path d="M229.11,336.61a13.62,13.62,0,0,0,4.88,4.75,12.49,12.49,0,0,0,6.52,1.59c4.55-.09,8.9-2,12.71-4.45a46.12,46.12,0,0,0,10.19-9.19,54.57,54.57,0,0,0,4.13-5.54,56.76,56.76,0,0,0,3.5-6,49,49,0,0,1-7,12,44.24,44.24,0,0,1-10.24,9.54,31.74,31.74,0,0,1-6.31,3.14,19.42,19.42,0,0,1-7,1.24,13.19,13.19,0,0,1-6.76-1.93A13.33,13.33,0,0,1,229.11,336.61Z" style="fill:#455a64"></path><path d="M278.75,269c.88-.51,1.59-.09,1.59.92a3.52,3.52,0,0,1-1.59,2.76c-.88.51-1.59.1-1.59-.92A3.53,3.53,0,0,1,278.75,269Z" style="fill:#263238"></path><path d="M278.75,323.51c.88-.51,1.59-.1,1.59.92a3.52,3.52,0,0,1-1.59,2.76c-.88.51-1.59.1-1.59-.92A3.52,3.52,0,0,1,278.75,323.51Z" style="fill:#263238"></path><path d="M230.21,297c.89-.51,1.6-.09,1.6.92a3.5,3.5,0,0,1-1.59,2.76c-.89.51-1.6.1-1.6-.92A3.53,3.53,0,0,1,230.21,297Z" style="fill:#263238"></path><path d="M230.21,351.53c.89-.51,1.6-.09,1.6.92a3.52,3.52,0,0,1-1.59,2.76c-.89.51-1.6.1-1.6-.92A3.53,3.53,0,0,1,230.21,351.53Z" style="fill:#263238"></path><path d="M215.65,305.43a2.88,2.88,0,0,0-2.88.29l-41.72,24.09a9,9,0,0,0-4.1,7.09v39.31a2.84,2.84,0,0,0,1.2,2.64l2,1.17a2.88,2.88,0,0,0,2.88-.29l41.72-24.09a9,9,0,0,0,4.1-7.08V309.25a2.86,2.86,0,0,0-1.21-2.65Z" style="fill:#37474f"></path><path d="M173.06,331l41.72-24.09c2.26-1.3,4.1-.24,4.1,2.37v39.31a9,9,0,0,1-4.1,7.08l-41.72,24.09C170.8,381,169,380,169,377.37V338.06A9.05,9.05,0,0,1,173.06,331Z" style="fill:#455a64"></path><path d="M171.81,338.06a6.3,6.3,0,0,1,2.67-4.63l41.56-24v39.13a6.34,6.34,0,0,1-2.67,4.63l-41.56,24Z" style="fill:#263238"></path><path d="M182.41,369.78a8.79,8.79,0,0,1,4.09-6.8l14.85-8.57c2.26-1.3,4.09-.38,4.09,2.07v2.22l-23,13.3Z" style="fill:#455a64"></path><polygon points="176.65 365.35 211.2 345.4 211.2 346.51 176.65 366.45 176.65 365.35" style="fill:#455a64"></polygon><polygon points="211.2 315.48 195.84 324.34 195.84 328.77 211.2 319.91 211.2 315.48" style="fill:#BA68C8"></polygon><polygon points="176.58 342.11 211.2 322.13 211.2 343.18 176.65 363.13 176.58 342.11" style="fill:#455a64"></polygon><path d="M198.83,340.35c0,2.45,1.72,3.44,3.84,2.22a8.51,8.51,0,0,0,3.84-6.65c0-2.45-1.72-3.45-3.84-2.22A8.48,8.48,0,0,0,198.83,340.35Z" style="fill:#37474f"></path><path d="M203.52,336.66a.84.84,0,0,0-.85.08,2.68,2.68,0,0,0-1.2,2.09.85.85,0,0,0,.35.78l3.77,2.18a.84.84,0,0,0,.85-.09,2.64,2.64,0,0,0,1.21-2.08.86.86,0,0,0-.36-.78Z" style="fill:#263238"></path><path d="M205.24,341c0,.77.54,1.08,1.2.69a2.64,2.64,0,0,0,1.21-2.08c0-.77-.54-1.08-1.21-.69A2.65,2.65,0,0,0,205.24,341Z" style="fill:#37474f"></path><path d="M181.36,350.43c0,2.45,1.72,3.45,3.84,2.22A8.48,8.48,0,0,0,189,346c0-2.45-1.72-3.44-3.84-2.22A8.49,8.49,0,0,0,181.36,350.43Z" style="fill:#37474f"></path><path d="M186.05,346.74a.84.84,0,0,0-.85.09,2.62,2.62,0,0,0-1.2,2.08.85.85,0,0,0,.35.78l3.77,2.18a.84.84,0,0,0,.85-.08,2.67,2.67,0,0,0,1.21-2.09.83.83,0,0,0-.36-.77Z" style="fill:#263238"></path><path d="M187.77,351.09c0,.77.54,1.08,1.2.7a2.67,2.67,0,0,0,1.21-2.09c0-.76-.54-1.07-1.21-.69A2.67,2.67,0,0,0,187.77,351.09Z" style="fill:#37474f"></path><polygon points="179.83 292.37 179.83 308.74 181.05 308.05 181.05 291.67 179.83 292.37" style="fill:#BA68C8"></polygon><path d="M96.27,456l-.06,0c-.74-.43-47.22-27.25-47.84-27.62a3.15,3.15,0,0,1-1.18-2.84V304.61a8.78,8.78,0,0,1,1.11-4.06l47.8,27.59a8.84,8.84,0,0,0-1.1,4.07V453.15A3.08,3.08,0,0,0,96.27,456Z" style="fill:#BA68C8"></path><path d="M96.27,456l-.06,0c-.74-.43-47.22-27.25-47.84-27.62a3.15,3.15,0,0,1-1.18-2.84V304.61a8.78,8.78,0,0,1,1.11-4.06l47.8,27.59a8.84,8.84,0,0,0-1.1,4.07V453.15A3.08,3.08,0,0,0,96.27,456Z" style="fill:#fff;opacity:0.30000000000000004"></path><polygon points="63.12 309.1 75.87 316.46 269.5 204.68 256.75 197.31 63.12 309.1" style="fill:#BA68C8"></polygon><polygon points="158.74 275.98 165.49 279.88 207.87 255.43 201.11 251.53 158.74 275.98" style="fill:#BA68C8;opacity:0.5"></polygon><polygon points="201.11 251.53 201.11 258.36 201.95 258.84 207.87 255.43 201.11 251.53" style="fill:#BA68C8;opacity:0.5"></polygon><path d="M205.89,256.57l-5.65,3.26-.42.24L194.56,257l.54-2.74a3.79,3.79,0,0,1,1.59-2.23l2.28-1.34a2.85,2.85,0,0,1,2.59,0l2.28,1.34a3.76,3.76,0,0,1,1.59,2.23Z" style="fill:#37474f"></path><path d="M201.54,254.87a2.48,2.48,0,0,0-1.3,2.18v2.78l-.42.24L194.56,257l.54-2.74a3.79,3.79,0,0,1,1.59-2.23Z" style="fill:#263238"></path><path d="M199,250.7,196.69,252a.8.8,0,0,0,0,1.51l2.26,1.32a2.85,2.85,0,0,0,2.59,0l2.3-1.33c.72-.41.72-1.08,0-1.5l-2.28-1.34A2.82,2.82,0,0,0,199,250.7Z" style="fill:#455a64"></path><path d="M199,260.53l-5.65,3.26L193,264,187.7,261l.54-2.74a3.82,3.82,0,0,1,1.58-2.23l2.29-1.33a2.8,2.8,0,0,1,2.58,0L197,256a3.75,3.75,0,0,1,1.58,2.23Z" style="fill:#f5f5f5"></path><path d="M194.67,258.83a2.48,2.48,0,0,0-1.3,2.18v2.78L193,264,187.7,261l.54-2.74a3.82,3.82,0,0,1,1.58-2.23Z" style="fill:#e0e0e0"></path><path d="M192.1,254.66,189.82,256a.81.81,0,0,0,0,1.52l2.26,1.31a2.85,2.85,0,0,0,2.59,0l2.3-1.32a.8.8,0,0,0,0-1.51l-2.29-1.34A2.82,2.82,0,0,0,192.1,254.66Z" style="fill:#fff"></path><path d="M192.15,264.5l-5.65,3.25-.41.24-5.26-3.07.54-2.73A3.79,3.79,0,0,1,183,260l2.29-1.34a2.8,2.8,0,0,1,2.58,0l2.29,1.34a3.79,3.79,0,0,1,1.59,2.23Z" style="fill:#f5f5f5"></path><path d="M187.81,262.79A2.49,2.49,0,0,0,186.5,265v2.77l-.41.24-5.26-3.07.54-2.73A3.79,3.79,0,0,1,183,260Z" style="fill:#e0e0e0"></path><path d="M185.24,258.62,183,260a.8.8,0,0,0,0,1.51l2.25,1.32a2.87,2.87,0,0,0,2.6,0l2.3-1.32a.8.8,0,0,0,0-1.51l-2.28-1.34A2.82,2.82,0,0,0,185.24,258.62Z" style="fill:#fff"></path><path d="M185.29,268.46l-5.65,3.26-.42.23L174,268.88l.54-2.73a3.8,3.8,0,0,1,1.59-2.23l2.28-1.34a2.85,2.85,0,0,1,2.59,0l2.28,1.33a3.78,3.78,0,0,1,1.59,2.24Z" style="fill:#f5f5f5"></path><path d="M180.94,266.76a2.48,2.48,0,0,0-1.3,2.18v2.78l-.42.23L174,268.88l.54-2.73a3.8,3.8,0,0,1,1.59-2.23Z" style="fill:#e0e0e0"></path><path d="M178.37,262.58l-2.28,1.34a.8.8,0,0,0,0,1.51l2.26,1.32a2.85,2.85,0,0,0,2.59,0l2.3-1.32a.8.8,0,0,0,0-1.51L181,262.59A2.85,2.85,0,0,0,178.37,262.58Z" style="fill:#fff"></path><path d="M178.42,272.42l-5.65,3.26-.41.24-5.26-3.07.54-2.74a3.82,3.82,0,0,1,1.58-2.23l2.29-1.34a2.83,2.83,0,0,1,2.58,0l2.29,1.34a3.8,3.8,0,0,1,1.59,2.23Z" style="fill:#f5f5f5"></path><path d="M174.07,270.72a2.5,2.5,0,0,0-1.3,2.18v2.78l-.41.24-5.26-3.07.54-2.74a3.82,3.82,0,0,1,1.58-2.23Z" style="fill:#e0e0e0"></path><path d="M171.51,266.55l-2.29,1.33a.8.8,0,0,0,0,1.51l2.26,1.32a2.87,2.87,0,0,0,2.6,0l2.29-1.33a.79.79,0,0,0,0-1.5l-2.29-1.34A2.8,2.8,0,0,0,171.51,266.55Z" style="fill:#fff"></path><path d="M171.56,276.38l-5.65,3.26-.42.24-5.26-3,.54-2.77a3.79,3.79,0,0,1,1.59-2.23l2.28-1.33a2.82,2.82,0,0,1,2.59,0l2.28,1.34a3.76,3.76,0,0,1,1.59,2.23Z" style="fill:#f5f5f5"></path><path d="M167.21,274.68a2.48,2.48,0,0,0-1.3,2.18v2.78l-.42.24-5.26-3,.54-2.77a3.79,3.79,0,0,1,1.59-2.23Z" style="fill:#e0e0e0"></path><path d="M164.64,270.51l-2.28,1.33a.8.8,0,0,0,0,1.52l2.26,1.31a2.85,2.85,0,0,0,2.59,0l2.3-1.32a.8.8,0,0,0,0-1.51l-2.28-1.34A2.82,2.82,0,0,0,164.64,270.51Z" style="fill:#fff"></path><polygon points="98.18 310.94 104.93 314.84 133.62 298.28 126.87 294.38 98.18 310.94" style="fill:#BA68C8;opacity:0.5"></polygon><polygon points="126.87 294.38 126.87 301.21 127.7 301.7 133.62 298.28 126.87 294.38" style="fill:#BA68C8;opacity:0.5"></polygon><path d="M131.6,299.46,126,302.72l-.42.24-5.26-3.07.54-2.74a3.76,3.76,0,0,1,1.59-2.23l2.28-1.34a2.85,2.85,0,0,1,2.59,0l2.28,1.34a3.73,3.73,0,0,1,1.59,2.23Z" style="fill:#f5f5f5"></path><path d="M127.25,297.76a2.48,2.48,0,0,0-1.3,2.18v2.78l-.42.24-5.26-3.07.54-2.74a3.76,3.76,0,0,1,1.59-2.23Z" style="fill:#e0e0e0"></path><path d="M124.68,293.58l-2.28,1.34a.8.8,0,0,0,0,1.51l2.26,1.32a2.85,2.85,0,0,0,2.59,0l2.3-1.33a.79.79,0,0,0,0-1.5l-2.28-1.34A2.85,2.85,0,0,0,124.68,293.58Z" style="fill:#fff"></path><path d="M124.73,303.42l-5.65,3.26-.41.24-5.26-3.07.54-2.74a3.82,3.82,0,0,1,1.58-2.23l2.28-1.34a2.85,2.85,0,0,1,2.59,0l2.28,1.34a3.76,3.76,0,0,1,1.59,2.23Z" style="fill:#f5f5f5"></path><path d="M120.38,301.72a2.48,2.48,0,0,0-1.3,2.18v2.78l-.41.24-5.26-3.07.54-2.74a3.82,3.82,0,0,1,1.58-2.23Z" style="fill:#e0e0e0"></path><path d="M117.81,297.55l-2.28,1.33a.8.8,0,0,0,0,1.51l2.26,1.32a2.85,2.85,0,0,0,2.59,0l2.3-1.33a.79.79,0,0,0,0-1.5l-2.29-1.34A2.82,2.82,0,0,0,117.81,297.55Z" style="fill:#fff"></path><path d="M117.86,307.38l-5.65,3.26-.41.24-5.26-3.07.54-2.74a3.82,3.82,0,0,1,1.58-2.23l2.29-1.33a2.8,2.8,0,0,1,2.58,0l2.29,1.34a3.79,3.79,0,0,1,1.59,2.23Z" style="fill:#f5f5f5"></path><path d="M113.52,305.68a2.49,2.49,0,0,0-1.31,2.18v2.78l-.41.24-5.26-3.07.54-2.74a3.82,3.82,0,0,1,1.58-2.23Z" style="fill:#e0e0e0"></path><path d="M111,301.51l-2.29,1.33a.81.81,0,0,0,0,1.52l2.26,1.31a2.87,2.87,0,0,0,2.6,0l2.3-1.32a.8.8,0,0,0,0-1.51l-2.28-1.34A2.82,2.82,0,0,0,111,301.51Z" style="fill:#fff"></path><path d="M111,311.35l-5.65,3.25-.42.24-5.26-3,.54-2.76a3.8,3.8,0,0,1,1.59-2.23l2.28-1.34a2.88,2.88,0,0,1,2.59,0l2.28,1.34a3.79,3.79,0,0,1,1.59,2.23Z" style="fill:#f5f5f5"></path><path d="M106.65,309.64a2.49,2.49,0,0,0-1.3,2.19v2.77l-.42.24-5.26-3,.54-2.76a3.8,3.8,0,0,1,1.59-2.23Z" style="fill:#e0e0e0"></path><path d="M104.08,305.47l-2.28,1.34a.8.8,0,0,0,0,1.51l2.26,1.32a2.85,2.85,0,0,0,2.59,0l2.3-1.32a.8.8,0,0,0,0-1.51l-2.29-1.34A2.82,2.82,0,0,0,104.08,305.47Z" style="fill:#fff"></path><polygon points="232.05 233.66 238.8 237.56 267.49 220.99 260.73 217.09 232.05 233.66" style="fill:#BA68C8;opacity:0.5"></polygon><polygon points="260.73 217.09 260.73 223.93 261.57 224.41 267.49 220.99 260.73 217.09" style="fill:#BA68C8;opacity:0.5"></polygon><path d="M265.46,222.17l-5.65,3.26-.41.24-5.26-3.07.54-2.74a3.82,3.82,0,0,1,1.58-2.23l2.29-1.34a2.83,2.83,0,0,1,2.58,0l2.29,1.34a3.8,3.8,0,0,1,1.59,2.23Z" style="fill:#f5f5f5"></path><path d="M261.11,220.47a2.5,2.5,0,0,0-1.3,2.18v2.78l-.41.24-5.26-3.07.54-2.74a3.82,3.82,0,0,1,1.58-2.23Z" style="fill:#e0e0e0"></path><path d="M258.55,216.3l-2.29,1.33a.8.8,0,0,0,0,1.51l2.26,1.32a2.87,2.87,0,0,0,2.6,0l2.29-1.33a.79.79,0,0,0,0-1.5l-2.29-1.34A2.8,2.8,0,0,0,258.55,216.3Z" style="fill:#fff"></path><path d="M258.6,226.13,253,229.39l-.42.24-5.26-3.07.54-2.73a3.78,3.78,0,0,1,1.59-2.24l2.28-1.33a2.82,2.82,0,0,1,2.59,0l2.28,1.34a3.79,3.79,0,0,1,1.59,2.23Z" style="fill:#f5f5f5"></path><path d="M254.25,224.43a2.48,2.48,0,0,0-1.3,2.18v2.78l-.42.24-5.26-3.07.54-2.73a3.78,3.78,0,0,1,1.59-2.24Z" style="fill:#e0e0e0"></path><path d="M251.68,220.26l-2.28,1.33a.8.8,0,0,0,0,1.52l2.26,1.31a2.85,2.85,0,0,0,2.59,0l2.3-1.32a.8.8,0,0,0,0-1.51l-2.28-1.34A2.82,2.82,0,0,0,251.68,220.26Z" style="fill:#fff"></path><path d="M251.73,230.1l-5.65,3.25-.41.24-5.26-3.07.54-2.73a3.79,3.79,0,0,1,1.58-2.23l2.28-1.34a2.88,2.88,0,0,1,2.59,0l2.28,1.34a3.79,3.79,0,0,1,1.59,2.23Z" style="fill:#f5f5f5"></path><path d="M247.38,228.39a2.49,2.49,0,0,0-1.3,2.19v2.77l-.41.24-5.26-3.07.54-2.73a3.79,3.79,0,0,1,1.58-2.23Z" style="fill:#e0e0e0"></path><path d="M244.81,224.22l-2.28,1.34a.8.8,0,0,0,0,1.51l2.26,1.32a2.85,2.85,0,0,0,2.59,0l2.3-1.32a.8.8,0,0,0,0-1.51l-2.29-1.34A2.82,2.82,0,0,0,244.81,224.22Z" style="fill:#fff"></path><path d="M244.86,234.06l-5.65,3.26-.41.24-5.27-3,.55-2.77a3.79,3.79,0,0,1,1.58-2.23l2.29-1.34a2.83,2.83,0,0,1,2.58,0l2.29,1.33a3.78,3.78,0,0,1,1.59,2.24Z" style="fill:#f5f5f5"></path><path d="M240.51,232.36a2.5,2.5,0,0,0-1.3,2.18v2.78l-.41.24-5.27-3,.55-2.77a3.79,3.79,0,0,1,1.58-2.23Z" style="fill:#e0e0e0"></path><path d="M238,228.18l-2.29,1.34a.8.8,0,0,0,0,1.51l2.26,1.32a2.87,2.87,0,0,0,2.6,0l2.3-1.33a.8.8,0,0,0,0-1.51l-2.28-1.33A2.85,2.85,0,0,0,238,228.18Z" style="fill:#fff"></path><polygon points="75.87 316.46 75.87 382.71 63.12 375.35 63.12 309.1 75.87 316.46" style="fill:#e0e0e0"></polygon><path d="M270.21,203.46h0l-12.75-7.36h0a.93.93,0,0,0-.94,0L64.49,307a5.12,5.12,0,0,0-2.55,4.42V376l12.75,7.36,1.18-.68v-64a3.93,3.93,0,0,1,2-3.4L269.5,204.67l1.17.68v-1.08A.93.93,0,0,0,270.21,203.46Z" style="fill:#BA68C8"></path><path d="M270.21,203.46h0l-12.75-7.36h0a.93.93,0,0,0-.94,0L64.49,307a5.12,5.12,0,0,0-2.55,4.42V376l12.75,7.36,1.18-.68v-64a3.93,3.93,0,0,1,2-3.4L269.5,204.67l1.17.68v-1.08A.93.93,0,0,0,270.21,203.46Z" style="fill:#fff;opacity:0.85"></path><path d="M74.69,383.39l1.18-.68v-64a3.89,3.89,0,0,1,.53-2l-13.77-7.95a5.1,5.1,0,0,0-.69,2.55V376Z" style="fill:#BA68C8"></path><path d="M74.69,383.39l1.18-.68v-64a3.89,3.89,0,0,1,.53-2l-13.77-7.95a5.1,5.1,0,0,0-.69,2.55V376Z" style="fill:#fff;opacity:0.5"></path><path d="M269.5,204.67,77.83,315.33a3.93,3.93,0,0,0-2,3.4v64l-1.18.68V318.73a5.12,5.12,0,0,1,2.55-4.42l192-110.86a.94.94,0,0,1,1.41.82v1.08Z" style="fill:#BA68C8"></path><path d="M269.5,204.67,77.83,315.33a3.93,3.93,0,0,0-2,3.4v64l-1.18.68V318.73a5.12,5.12,0,0,1,2.55-4.42l192-110.86a.94.94,0,0,1,1.41.82v1.08Z" style="fill:#fff;opacity:0.30000000000000004"></path><path d="M75.38,316.18a5.1,5.1,0,0,0-.69,2.55v64.66l1.18-.68v-64a3.89,3.89,0,0,1,.53-2Z" style="fill:#BA68C8"></path><path d="M249.15,208V175.11a3.81,3.81,0,0,0-5.71-3.29L229.52,180l1.58,2.71L245,174.54a.63.63,0,0,1,.66,0,.62.62,0,0,1,.33.57V208a.79.79,0,0,0,.46.65,2.42,2.42,0,0,0,2.22,0A.74.74,0,0,0,249.15,208Z" style="fill:#455a64"></path><path d="M230.76,177.23a2.32,2.32,0,0,0-2.32-.23L98.1,252.25a2.3,2.3,0,0,0-1,2.13,7.29,7.29,0,0,0,3.3,5.71,2.29,2.29,0,0,0,2.36.22c.56-.35,129.7-74.9,130.28-75.21a2.3,2.3,0,0,0,1-2.15A7.27,7.27,0,0,0,230.76,177.23Z" style="fill:#37474f"></path><path d="M100.43,252.47a7.27,7.27,0,0,1,3.3,5.72c0,2.1-1.47,3-3.3,1.9a7.29,7.29,0,0,1-3.3-5.71C97.13,252.27,98.61,251.42,100.43,252.47Z" style="fill:#263238"></path><path d="M101.42,256.91A2.43,2.43,0,0,0,100.3,255a.74.74,0,0,0-.8-.07h0L87,262.15A9.92,9.92,0,0,0,82,270.71v32a.79.79,0,0,0,.46.65,2.48,2.48,0,0,0,2.22,0,.75.75,0,0,0,.46-.65v-32a6.77,6.77,0,0,1,3.38-5.85l12.51-7.22h0A.77.77,0,0,0,101.42,256.91Z" style="fill:#455a64"></path></g><path id="freepik--Lines--inject-60" d="M298.27,287.66a1.78,1.78,0,0,0,1.28-.53L319,267.73a1.84,1.84,0,0,0,0-2.57,1.82,1.82,0,0,0-2.57,0L297,284.57a1.8,1.8,0,0,0,0,2.56A1.78,1.78,0,0,0,298.27,287.66ZM299.55,311a1.81,1.81,0,0,0-2.56,2.56l19.4,19.41a1.82,1.82,0,0,0,2.57-2.57Zm32.77-13.72H304.88a1.81,1.81,0,0,0,0,3.62h27.44a1.81,1.81,0,0,0,0-3.62Z" style="fill:#e0e0e0"></path></g><g id="freepik--musical-notes--inject-60"><g id="freepik--musical-notes--inject-60"><path id="freepik--musical-note--inject-60" d="M211.82,124.91,216,136.83a3.3,3.3,0,1,0,3.12,2.19l-3.78-10.69,9.76-6.63h0l3.76,10.59a3.06,3.06,0,0,0-1.11.17,3.31,3.31,0,1,0,4.23,2h0l-6.28-17.67Z" style="fill:#BA68C8"></path><path id="freepik--musical-note--inject-60" d="M237.86,42.72a4.73,4.73,0,0,1,.46-1.91,10.14,10.14,0,0,1,1.49-2.18A18.19,18.19,0,0,0,242,35.82a4.4,4.4,0,0,0,.51-3.4,4.62,4.62,0,0,1-1.18,1.68c-1.24,1.1-3.25,1.45-4.69,2.28-2.13,1.23-3,3.1-3.61,5.65,1.92,1,3.81,2,5.72,3.08l4.48,2.41,2,1.15a4.56,4.56,0,0,0-1.29,1.46,3.64,3.64,0,1,0,4.93-1.49Z" style="fill:#BA68C8"></path><path id="freepik--musical-note--inject-60" d="M455.1,89.85a7.06,7.06,0,0,1,2.33-1.91,15.79,15.79,0,0,1,3.83-1.32,27.49,27.49,0,0,0,5.22-1.46,6.73,6.73,0,0,0,3.76-3.7,7.06,7.06,0,0,1-3,1c-2.53.22-5.32-1.2-7.84-1.5-3.76-.46-6.55,1-9.64,3.6,1.43,3,2.79,6,4.18,9l3.28,7.09,1.4,3.26a6.58,6.58,0,0,0-2.92.6,5.59,5.59,0,1,0,7.42,2.71Z" style="fill:#BA68C8"></path><path id="freepik--musical-note--inject-60" d="M455.1,89.85a7.06,7.06,0,0,1,2.33-1.91,15.79,15.79,0,0,1,3.83-1.32,27.49,27.49,0,0,0,5.22-1.46,6.73,6.73,0,0,0,3.76-3.7,7.06,7.06,0,0,1-3,1c-2.53.22-5.32-1.2-7.84-1.5-3.76-.46-6.55,1-9.64,3.6,1.43,3,2.79,6,4.18,9l3.28,7.09,1.4,3.26a6.58,6.58,0,0,0-2.92.6,5.59,5.59,0,1,0,7.42,2.71Z" style="fill:#fff;opacity:0.30000000000000004"></path><path id="freepik--musical-note--inject-60" d="M47.5,212.4a8.14,8.14,0,0,1,3-1.49,17,17,0,0,1,4.5-.44,32,32,0,0,0,6-.26,7.51,7.51,0,0,0,5-3.07,8,8,0,0,1-3.5.28c-2.8-.41-5.48-2.66-8.14-3.63-4-1.46-7.38-.54-11.39,1.46.79,3.61,1.49,7.26,2.24,10.89.58,2.84,1.17,5.69,1.75,8.54.06.27.7,3.9.7,3.9a7.62,7.62,0,0,0-3.33-.1,6.24,6.24,0,1,0,7.37,4.85Z" style="fill:#BA68C8"></path><path id="freepik--musical-note--inject-60" d="M47.5,212.4a8.14,8.14,0,0,1,3-1.49,17,17,0,0,1,4.5-.44,32,32,0,0,0,6-.26,7.51,7.51,0,0,0,5-3.07,8,8,0,0,1-3.5.28c-2.8-.41-5.48-2.66-8.14-3.63-4-1.46-7.38-.54-11.39,1.46.79,3.61,1.49,7.26,2.24,10.89.58,2.84,1.17,5.69,1.75,8.54.06.27.7,3.9.7,3.9a7.62,7.62,0,0,0-3.33-.1,6.24,6.24,0,1,0,7.37,4.85Z" style="fill:#fff;opacity:0.30000000000000004"></path></g></g><g id="freepik--Character--inject-60"><g id="freepik--character--inject-60"><g id="freepik--Bottom--inject-60"><path d="M437.05,380.31c-.85-12.45-1.29-18.27-2.48-40.51h0c-.1-5.7-.31-11.8-.69-17.23-1.29-18.25-3.64-22.59-5.21-28.85s-2.83-18-5.23-57.21a201.83,201.83,0,0,0-7.24-44.34H360c-5.77,24.6-7.42,77.88-7.24,103.24.08,12.92.22,79.72-.1,85.06a18,18,0,0,1-5.41,11.58c-4.63,5-7.95,7-13.76,11.31.85,2.22,13,2.14,16.47.45a128.09,128.09,0,0,0,14.52-8.53c4.77-3.53,5.88-5.66,6-11a12.87,12.87,0,0,0-.05-1.76c.09-3.13,9.14-49.94,11.11-60.51,1.53-8.21-.14-24.11-.14-24.11l5.95-39.1s6.72,26,10.31,41.76c2.64,11.62,9.16,30,13.44,48.55h0c5,18.88,5.39,20.55,8.33,34.07,1.49,6.82,5.12,29.75,6.77,34.47,5.34,15.22,17.42,7.66,18.1-.76C444.7,411.26,437.24,383,437.05,380.31Z" style="fill:#b16668"></path><path d="M387.3,258.77,383,230.57s-16.83-2-23-7.88c0,0,7.72,10.89,19.14,12.66l4.8,23.39-2.53,38.8Z" style="fill:#9a4a4d"></path><path d="M320.61,409.66c-.32,0-.83,3.47.87,5,2,1.73,7.73,4.59,15.4,3.68s11.85-3.24,14.95-5.77,7.43-6.11,10.9-6.84c3.23-.67,8.49-2.43,9.53-3.42s.95-5.41.95-5.41Z" style="fill:#263238"></path><path d="M370.49,381.31a2.35,2.35,0,0,1,1.22,1.52c.22,1.22.21,2.79.7,4.79.67,2.79,1.08,8.5.64,10.76s-7.46,4.12-10.83,5.36a42.85,42.85,0,0,0-11,6.75c-3.63,2.93-11.24,5.83-16.23,5.85-7.63,0-12.55-2.09-14-4.85-1.85-3.41-.35-5.36,8.45-9.32,1.67-.75,7.54-4.14,9.54-5.37a46.09,46.09,0,0,0,6-4.37,37.1,37.1,0,0,0,2.7-2.62A12.3,12.3,0,0,0,350,387c.1-.23.17-.5.26-.74a12.33,12.33,0,0,0,.6-2.05c.15-.73.25-1.79.94-2.22a5.87,5.87,0,0,1,3.14-.33,22.8,22.8,0,0,1,3.38.51c1.28.3,4.52.1,5.27,1.32a6.31,6.31,0,0,1,.69,3.18c0,.51,0,1,0,1.54,0,.22-.1.61.21.52s.63-.84.74-1.1c.25-.57.41-1.19.68-1.75A5.27,5.27,0,0,1,367,384c1.47-1.21,2.88-1,3.31-1.37C370.28,382.67,370.44,381.75,370.49,381.31Z" style="fill:#37474f"></path><path d="M328,402.82c11,.88,14.44,7.73,14.86,12a26,26,0,0,1-7.85,1.56c-7.63,0-12.86-2.09-14.36-4.85C318.94,408.27,320.18,405.71,328,402.82Z" style="fill:#fafafa"></path><path d="M344.58,403.11a.57.57,0,0,0,.35-.12.54.54,0,0,0,.08-.76,13,13,0,0,0-9.94-4,.53.53,0,0,0-.48.59.52.52,0,0,0,.58.48,12,12,0,0,1,9,3.65A.53.53,0,0,0,344.58,403.11Z" style="fill:#f0f0f0"></path><path d="M349.37,400.39a.54.54,0,0,0,.34-.12.55.55,0,0,0,.09-.76,13,13,0,0,0-9.95-4,.54.54,0,0,0-.48.59.53.53,0,0,0,.59.48,12,12,0,0,1,9,3.65A.55.55,0,0,0,349.37,400.39Z" style="fill:#f0f0f0"></path><path d="M353.81,397.27a.49.49,0,0,0,.34-.12.53.53,0,0,0,.08-.75,13,13,0,0,0-9.94-4,.54.54,0,0,0,.11,1.08,12,12,0,0,1,9,3.64A.55.55,0,0,0,353.81,397.27Z" style="fill:#f0f0f0"></path><path d="M358.16,394.15a.46.46,0,0,0,.33-.11.53.53,0,0,0,.1-.75c-2.09-2.7-6.85-4.51-10.86-4.11a.54.54,0,0,0,.11,1.07c3.61-.35,8.05,1.31,9.9,3.7A.53.53,0,0,0,358.16,394.15Z" style="fill:#f0f0f0"></path><path d="M424.49,419.37c.87,5.13,2.06,8.47,4.23,11.3s5.73,3.39,9.14,2.12,7.63-4.15,8.14-8.72.75-7.69-.57-12.39Z" style="fill:#263238"></path><path d="M437.05,380.31c1.46-.05,1.84,6.84,3.44,13.7,1.72,7.35,3.12,10.18,4.59,16.2,1.69,6.87.88,10.12-1.1,14.61s-10.17,9.58-15.11,4c-4-4.54-4.77-10-5.22-17-.47-7.24-1.71-12-2.9-17.37-1.23-5.56-2.56-10.61-1.37-11.33a48.1,48.1,0,0,0,1.48,5.54c.19.37.86,1.28.92-.2,0-.44-.23-1.42-.24-1.86a1.85,1.85,0,0,1,1.13-1.81,13.78,13.78,0,0,1,6-2c2.82-.33,5.24-.69,6.91-.06,1,.38,1.07,1.28,1.27,2.15.24,1,.33,1.68.56,1.44C437.88,385.84,437,381.07,437.05,380.31Z" style="fill:#37474f"></path><path d="M445.93,414.21a17.56,17.56,0,0,1-1.52,10.9c-2,4.49-10.87,9.68-15.81,4.11-2.45-2.77-3.41-6.26-4.11-9.86C426.53,414.42,441.46,410.69,445.93,414.21Z" style="fill:#fafafa"></path><path d="M426.8,411.43l.17-.07c.06,0,6.43-3.54,13.1-2.75a.55.55,0,0,0,.6-.48.54.54,0,0,0-.48-.59c-7.05-.83-13.55,2.76-13.79,2.9a.55.55,0,0,0-.17.75A.56.56,0,0,0,426.8,411.43Z" style="fill:#f0f0f0"></path><path d="M439.17,403.44a.52.52,0,0,0,.41-.41.53.53,0,0,0-.41-.64c-6.71-1.48-13.53,2.61-13.78,2.78a.54.54,0,0,0-.15.75.55.55,0,0,0,.75.14c.06,0,6.7-4,12.95-2.62A.45.45,0,0,0,439.17,403.44Z" style="fill:#f0f0f0"></path><path d="M438.4,398.56a.53.53,0,0,0,.41-.4.54.54,0,0,0-.4-.65c-7.4-1.76-13.82,2.59-14.05,2.78a.54.54,0,1,0,.65.85c.06,0,6.26-4.21,13.15-2.58A.49.49,0,0,0,438.4,398.56Z" style="fill:#f0f0f0"></path><path d="M437.51,393.78a.54.54,0,0,0,.41-.4.53.53,0,0,0-.39-.65c-6.95-1.76-13.88,2.74-14.13,2.93a.54.54,0,1,0,.63.87c.06,0,6.78-4.39,13.24-2.76A.65.65,0,0,0,437.51,393.78Z" style="fill:#ebebeb"></path><path d="M417.83,192.17c4,15.34,5.61,19.11,7.91,53.29,2.22,33.14,2.4,38,2.73,42,.75,9.16,4.81,12.32,6,33.93,1.09,19.8,1.74,44.22,1.74,44.22S433.53,369.28,426,370c-7,.63-10.44-2-10.44-2s-12.9-46.15-16.5-57.78c-4.89-15.77-11.75-43.46-11.75-43.46l-4.55,31.68s1.47,15.18-1.48,29.52C377.62,345.69,373.9,365,373.9,365a23.68,23.68,0,0,1-10.49,1.3c-8.14-.82-10.86-2.71-10.86-2.71s-2.29-53.69-2.29-73.3.44-67.6,3.09-98.12Z" style="fill:#455a64"></path><path d="M387.3,266.72l-5.65-34.31s-11.35-3-18.64-10.62c.54,5.68,10.64,13,15.37,14.1l6.31,30.4-1.94,32.11Z" style="fill:#37474f"></path><path d="M400.48,197.48a46.89,46.89,0,0,1,4.26,9,86.22,86.22,0,0,1,2.83,9.54c.75,3.23,1.37,6.49,1.8,9.78a64.42,64.42,0,0,1,.66,9.92c-.8-3.23-1.53-6.43-2.26-9.63s-1.45-6.4-2.23-9.59-1.54-6.36-2.35-9.53S401.47,200.65,400.48,197.48Z" style="fill:#37474f"></path><path d="M404.82,198.68a35,35,0,0,1,4.48,5,48,48,0,0,1,3.65,5.67,43.72,43.72,0,0,1,2.77,6.16,26.43,26.43,0,0,1,1.51,6.58l-3-5.94c-1-1.94-2-3.89-3.1-5.8s-2.13-3.85-3.18-5.79S405.8,200.72,404.82,198.68Z" style="fill:#37474f"></path><path d="M397.61,238.36c1.43,10.28,2.72,20.57,4,30.85s3.8,21.63,5.69,31.79,13.9,49.94,15.47,60.2c-2.37-10.11-15.53-49.6-17.52-59.82s-4.25-21.65-5.25-32S398.24,248.72,397.61,238.36Z" style="fill:#37474f"></path><path d="M360.69,238.36l-1.69,27c-.25,4.51-.54,9-.75,13.52s-.47,9-.39,13.46.37,47.66-.24,56.7c-1.06-10.07-1.55-47.57-1.85-56.66,0-9.14.8-18.12,1.61-27.14S359.3,247.29,360.69,238.36Z" style="fill:#37474f"></path><path d="M374.74,360.65l-1.53,9.4s-3.77,2.4-11.67,1.59-9-3.38-9-3.38v-8.84s1.9,1.84,9.11,2.65A31,31,0,0,0,374.74,360.65Z" style="fill:#37474f"></path><path d="M436,359.06l.71,9.5s-3.1,3.21-11,4.26-9.58-1.17-9.58-1.17l-2.06-8.6s2.27,1.35,9.48.46A31,31,0,0,0,436,359.06Z" style="fill:#37474f"></path></g><g id="freepik--Top--inject-60"><path d="M363.66,120.24c-5.26,1.47-8.8,4.62-21.83,14.76-11.1,8.63-14.22,11.46-14.22,11.46s-13.32,7.91-13.78,10.52-4.21,5.28-2.05,13.22,6.55,9,8.79,8.88c3.86-.19,7.05-1.9,15.57-7.23s22.75-15.2,22.75-15.2Z" style="fill:#37474f"></path><path d="M329.69,147.81a24.78,24.78,0,0,1,2.58,13.5,23.86,23.86,0,0,1-7.06,14.41c-2.57,2.28-6.82,3.56-10.91-3.27-4.95-8.26-5.18-17.35-6.72-28.14C305.5,129.62,305.1,126,303.85,122c-.8-2.57-3.44-6.88-3.63-9.61a36.82,36.82,0,0,1,.46-9.48c.56-3.52,3.11-2.79,3.62-2.51.9-2.63,3.2-3.73,5-2.79a4.87,4.87,0,0,1,5.71,0c1.16-1.06,3.59-1.2,4.43.61a5.92,5.92,0,0,1,.11,2.39c.7,1.05.77,6.67,2.27,7.7s3.24.16,5.64-.6,5.36-.74,6.71.58c1.07,1,.58,2-.56,2.55s-3.76,1.33-5.69,2.29c-2.84,1.41-4,1.87-5.08,3.2a24.09,24.09,0,0,0-3.33,4.87c-.59,1.44-1.11,3.23.51,7.45S327.35,143.27,329.69,147.81Z" style="fill:#b16668"></path><path d="M309,109.68v.13a1.26,1.26,0,0,1-.41,1.38,1,1,0,0,1-.72.1,1.65,1.65,0,0,1-.71-.46,25,25,0,0,1-2.58-3.09l0,.1h0v-.06l0,0c-.45-.63-.85-1.3-1.36-1.9-.25-.3-.53-.57-.79-.85a2.78,2.78,0,0,1-.62-1,2.65,2.65,0,0,0,.56,1c.25.3.5.59.73.9.45.62.8,1.3,1.21,2l0-.09h0v.05l0,0a24.75,24.75,0,0,0,2.41,3.34,2.36,2.36,0,0,0,.95.67,1.59,1.59,0,0,0,1.26-.09,1.65,1.65,0,0,0,.83-1,2.65,2.65,0,0,0,.1-1.21v.06Z" style="fill:#9a4a4d"></path><path d="M301.58,106.35a3.19,3.19,0,0,0,1.13.69,6.21,6.21,0,0,0,1.3.34l0-.44A4.25,4.25,0,0,1,301.58,106.35Z" style="fill:#9a4a4d"></path><path d="M309.27,97.57a11.67,11.67,0,0,0,.23,2.13c.12.7.25,1.41.42,2.1l.22,1,.28,1L311,106v0l.06.15,0,0,.72,2.13.37,1.06a2.37,2.37,0,0,1,.22.93.92.92,0,0,1-.39.63.68.68,0,0,1-.67.09,3.43,3.43,0,0,1-1.46-1.3l0,0,0,0-.07-.1a20.29,20.29,0,0,1-1.25-2.25l-1.25-2.37c-.42-.79-.83-1.59-1.3-2.35-.24-.39-.47-.77-.73-1.14a3.08,3.08,0,0,0-.91-1,3.38,3.38,0,0,1,.75,1.08c.21.4.4.8.59,1.2l1.1,2.44,1.08,2.46.57,1.22a9.2,9.2,0,0,0,.72,1.25l-.07-.11.08.14v0h0a4.12,4.12,0,0,0,1.88,1.64,1.59,1.59,0,0,0,1.47-.21A1.8,1.8,0,0,0,313,111a1.54,1.54,0,0,0,.24-.73A3,3,0,0,0,313,109l-.4-1.07-.79-2.12v0h0l0,0v0l-.7-2-.35-1-.29-1A34.69,34.69,0,0,1,309.27,97.57Z" style="fill:#9a4a4d"></path><path d="M315,97.57a30.57,30.57,0,0,0-.36,7.22l.22,1.79a9,9,0,0,1,.08,1.71c0,.58-.12,1.06-.59,1.29a2,2,0,0,1-1.64-.1,2,2,0,0,0,1.78.51,1.41,1.41,0,0,0,.84-.66,3.12,3.12,0,0,0,.3-1,7.35,7.35,0,0,0,.06-1.87l-.16-1.78c-.11-1.18-.15-2.37-.23-3.56S315.11,98.77,315,97.57Z" style="fill:#9a4a4d"></path><path d="M315.19,106l0,.2h0a6.69,6.69,0,0,0,.5,2,2.32,2.32,0,0,0,1.68,1.24,1.53,1.53,0,0,0,1.1-.18,1.9,1.9,0,0,0,.72-.87,6.2,6.2,0,0,0,.26-2.07l.12-4.06c0-.67,0-1.35,0-2a6.54,6.54,0,0,0-.23-2,7.51,7.51,0,0,1,0,2l-.17,2c-.12,1.35-.16,2.72-.22,4.06a6.09,6.09,0,0,1-.2,1.94,1.25,1.25,0,0,1-1.39.85,2,2,0,0,1-1.53-1,7.37,7.37,0,0,1-.67-1.88h0Z" style="fill:#9a4a4d"></path><path d="M315.23,106.18c.33,1.68.68,2.63,1.92,3s2-.7,2.07-1.64c0-.61.06-1.33.07-2.31a2.14,2.14,0,0,1-2.08,1.54A2.47,2.47,0,0,1,315.23,106.18Zm-10.79,1.65a19.35,19.35,0,0,0,2.89,3.56c.91.69,2.39.09,2.1-1.66a.93.93,0,0,0,.05.1c1.11,1.58,2.25,1.9,2.94,1.14a1.36,1.36,0,0,0,.26-1.49c.57.45,2.16.77,2.49-.63a7.72,7.72,0,0,0,0-2.63,1.62,1.62,0,0,1-1.46,1.06,2.38,2.38,0,0,1-2.34-1.37s0-.06,0-.09c.08,1.54-.64,2.07-1.11,2.28s-1.74,0-2-.46a0,0,0,0,1,0,0c-.06-.12-.13-.26-.2-.42-.2-.41-.42-.88-.48-1a1.74,1.74,0,0,1-.82,1.71C305.76,108.54,304.8,108.36,304.44,107.83Z" style="fill:#9a4a4d;opacity:0.5"></path><path d="M312.25,110.46a11.75,11.75,0,0,0-1.39,4.29,9.43,9.43,0,0,0,.39,4.39,9.23,9.23,0,0,1,.05-4.31A11.18,11.18,0,0,1,313,111Z" style="fill:#9a4a4d"></path><path d="M307.39,122.79c1.58.17,3.08-.63,4.5-.5s4.54.42,6.39-1.94a20.23,20.23,0,0,1,5.33-4.88h0a7.74,7.74,0,0,0-.8.82,24.09,24.09,0,0,0-3.33,4.87c-.59,1.44-1.11,3.23.51,7.45.09.25.21.52.33.81h0s-1.79-3.11-3.45-4.26-4.53-.87-7.47-1S305.81,122.62,307.39,122.79Z" style="fill:#9a4a4d"></path><g id="freepik--Boomboox--inject-60"><path d="M353.49,45.86a1,1,0,0,0-1,.08L270,93.58a3.69,3.69,0,0,0-1.54,2.94v52.85a1.37,1.37,0,0,0,.52,1.24c.27.17,20.58,11.88,20.91,12.07a1,1,0,0,0,1-.08L373.38,115a3.69,3.69,0,0,0,1.54-3V59.17a1.34,1.34,0,0,0-.54-1.24Z" style="fill:#BA68C8"></path><path d="M353.49,45.86a1,1,0,0,0-1,.08L270,93.58a3.69,3.69,0,0,0-1.54,2.94v52.85a1.37,1.37,0,0,0,.52,1.24c.27.17,20.58,11.88,20.91,12.07a1,1,0,0,0,1-.08L373.38,115a3.69,3.69,0,0,0,1.54-3V59.17a1.34,1.34,0,0,0-.54-1.24Z" style="fill:#fff;opacity:0.7000000000000001"></path><path d="M373.38,115,290.87,162.6c-.85.49-1.54,0-1.54-1.16V108.59a3.69,3.69,0,0,1,1.54-3L373.38,58c.85-.49,1.54,0,1.54,1.16V112A3.69,3.69,0,0,1,373.38,115Z" style="fill:#BA68C8"></path><path d="M373.38,115,290.87,162.6c-.85.49-1.54,0-1.54-1.16V108.59a3.69,3.69,0,0,1,1.54-3L373.38,58c.85-.49,1.54,0,1.54,1.16V112A3.69,3.69,0,0,1,373.38,115Z" style="fill:#fff;opacity:0.5"></path><path d="M297.27,108.57a2.35,2.35,0,0,0-2.37.24,7.42,7.42,0,0,0-3.35,5.81,2.35,2.35,0,0,0,1,2.17l1.68,1a2.34,2.34,0,0,0,2.37-.24,7.41,7.41,0,0,0,3.36-5.81,2.35,2.35,0,0,0-1-2.17Z" style="fill:#BA68C8"></path><path d="M297.27,108.57a2.35,2.35,0,0,0-2.37.24,7.42,7.42,0,0,0-3.35,5.81,2.35,2.35,0,0,0,1,2.17l1.68,1a2.34,2.34,0,0,0,2.37-.24,7.41,7.41,0,0,0,3.36-5.81,2.35,2.35,0,0,0-1-2.17Z" style="opacity:0.15"></path><path d="M294.9,114.62l-3-1.77a5.92,5.92,0,0,0-.3,1.77,2.35,2.35,0,0,0,1,2.17l1.68,1a2.34,2.34,0,0,0,2.37-.24,5.62,5.62,0,0,0,1.38-1.14Z" style="opacity:0.15"></path><path d="M294.36,114.19l-2.48-1.44c0,.07-.05.14-.07.2l2.45,1.41Zm-2.14-2.28,2.46,1.42.1-.18-2.47-1.43Zm-.21,4.4,2.28,1.31.1-.18L291.8,116A2.12,2.12,0,0,0,292,116.31Zm2.07,0-2.52-1.46,0,.26,2.39,1.38Zm0-1.12-2.5-1.44,0,.22,2.42,1.4Zm-1.35-4.31,2.47,1.43.11-.18-2.46-1.42Zm.68-.89,2.48,1.43.1-.17-2.44-1.42Zm1.69-1.35,2.53,1.46.1-.18-2.4-1.38Zm1.44-.32a2.8,2.8,0,0,0-.41,0l2.6,1.51.1-.18Zm-2.36.93,2.5,1.44.1-.18-2.42-1.4Z" style="opacity:0.25"></path><path d="M293.23,115.59c0,2.14,1.5,3,3.35,1.93a7.41,7.41,0,0,0,3.36-5.81c0-2.14-1.51-3-3.36-1.93A7.42,7.42,0,0,0,293.23,115.59Z" style="fill:#BA68C8"></path><path d="M295.08,117.26c-1,0-1.13-1.17-1.13-1.67a6.74,6.74,0,0,1,3-5.19,2.46,2.46,0,0,1,1.14-.36c1,0,1.13,1.17,1.13,1.67a6.74,6.74,0,0,1-3,5.19A2.31,2.31,0,0,1,295.08,117.26Zm3-7a2.09,2.09,0,0,0-1,.33,6.5,6.5,0,0,0-2.89,5c0,.44.09,1.46.92,1.46a2.15,2.15,0,0,0,1-.33,6.51,6.51,0,0,0,2.89-5C299,111.27,298.92,110.25,298.08,110.25Z" style="fill:#fff"></path><path d="M370.7,66.18a2.35,2.35,0,0,0-2.37.24A7.43,7.43,0,0,0,365,72.23a2.35,2.35,0,0,0,1,2.17l1.68,1a2.35,2.35,0,0,0,2.37-.24,7.42,7.42,0,0,0,3.35-5.81,2.35,2.35,0,0,0-1-2.17Z" style="fill:#BA68C8"></path><path d="M370.7,66.18a2.35,2.35,0,0,0-2.37.24A7.43,7.43,0,0,0,365,72.23a2.35,2.35,0,0,0,1,2.17l1.68,1a2.35,2.35,0,0,0,2.37-.24,7.42,7.42,0,0,0,3.35-5.81,2.35,2.35,0,0,0-1-2.17Z" style="opacity:0.15"></path><path d="M368.33,72.23l-3.06-1.77a5.92,5.92,0,0,0-.3,1.77,2.35,2.35,0,0,0,1,2.17l1.68,1a2.35,2.35,0,0,0,2.37-.24A6.06,6.06,0,0,0,371.39,74Z" style="opacity:0.15"></path><path d="M367.78,71.79l-2.47-1.43c0,.07-.05.14-.07.2L367.68,72Zm-2.13-2.27,2.45,1.42.1-.18-2.47-1.43C365.7,69.39,365.68,69.46,365.65,69.52Zm-.21,4.4,2.28,1.31.1-.18-2.59-1.49A2.12,2.12,0,0,0,365.44,73.92Zm2.07,0L365,72.5a2,2,0,0,0,0,.25l2.39,1.39Zm0-1.12L365,71.4a1.64,1.64,0,0,0,0,.22l2.42,1.4Zm-1.34-4.31L368.67,70l.1-.18-2.45-1.41Zm.68-.89,2.48,1.43.1-.18L367,67.48Zm1.69-1.35,2.52,1.46.1-.18-2.39-1.38ZM370,66a2.81,2.81,0,0,0-.41,0l2.6,1.5.1-.17Zm-2.37.92,2.5,1.45.1-.18-2.42-1.4Z" style="opacity:0.25"></path><path d="M366.65,73.2c0,2.14,1.5,3,3.36,1.93a7.42,7.42,0,0,0,3.35-5.81c0-2.14-1.5-3-3.35-1.94A7.42,7.42,0,0,0,366.65,73.2Z" style="fill:#BA68C8"></path><path d="M368.51,74.87c-1,0-1.14-1.17-1.14-1.67a6.72,6.72,0,0,1,3-5.19,2.31,2.31,0,0,1,1.13-.36c1,0,1.14,1.17,1.14,1.67a6.74,6.74,0,0,1-3,5.19A2.46,2.46,0,0,1,368.51,74.87Zm3-7a2.15,2.15,0,0,0-1,.33,6.49,6.49,0,0,0-2.89,5c0,.44.09,1.46.93,1.46a2.12,2.12,0,0,0,1-.33,6.5,6.5,0,0,0,2.89-5C372.43,68.88,372.34,67.86,371.5,67.86Z" style="fill:#fff"></path><path d="M289.33,159.68v1.76c0,1.13.69,1.65,1.54,1.16L373.38,115a3.69,3.69,0,0,0,1.54-3v-1.75Z" style="fill:#BA68C8"></path><path d="M361.9,78.17l-59.55,34.38c-.29.17-.52,0-.52-.39v-6.45a1.23,1.23,0,0,1,.52-1L361.9,70.34c.29-.17.52,0,.52.39v6.45A1.23,1.23,0,0,1,361.9,78.17Z" style="fill:#455a64"></path><polygon points="360.61 72.89 303.63 105.78 303.63 106.34 303.64 106.35 360.61 73.47 360.61 72.89" style="fill:#e0e0e0"></polygon><polygon points="360.61 76.54 303.63 109.43 303.63 109.99 303.64 110 360.61 77.11 360.61 76.54" style="fill:#e0e0e0"></polygon><path d="M318.21,100l.29-.16v-1l-.29.17ZM320,98.93l.29-.16v-1l-.29.17Zm1.84-1.06.29-.16v-1l-.29.17Zm1.84-1.06.29-.16v-1l-.29.17Zm5.51-3.18.28-.16v-1l-.28.17Zm-3.68,2.12.29-.16v-1l-.29.17Zm1.84-1.06.29-.16v-1l-.29.17Zm3.67-2.12.29-.16v-1l-.29.17ZM309,105.3l.29-.17v-1l-.29.17Zm-3.68,2.12.29-.17v-1l-.29.17Zm11-6.37.29-.16v-1l-.29.17Zm-12.85,7.43.29-.17v-1l-.29.17Zm7.34-4.24.29-.17v-1l-.29.17Zm3.68-2.13.28-.16v-1l-.28.17Zm-1.84,1.07L313,103v-1l-.29.17Zm-5.51,3.18.29-.17v-1l-.29.17Zm47.74-27.57.29-.17v-1l-.29.16Zm-22,12.72.29-.16v-1l-.29.17Zm20.2-11.66.29-.17v-1l-.29.16ZM347.59,83l.29-.17v-1l-.29.16ZM349.43,82l.28-.17v-1l-.28.16Zm11-7.39v1l.29-.17v-1Zm-1.83,2.09.29-.17v-1l-.29.16Zm-1.84,1.06.29-.17v-1l-.29.16Zm-5.51,3.18.29-.17v-1l-.29.16Zm-14.69,8.48.29-.16v-1l-.29.16Zm1.84-1.06.29-.16v-1l-.29.16Zm-3.68,2.12.29-.16v-1l-.29.17Zm11-6.36.29-.17v-1l-.29.16Zm-1.83,1.06.29-.17V84l-.29.16Zm-3.68,2.12.29-.16v-1l-.29.16Zm1.84-1.06.29-.16V85l-.29.16Z" style="fill:#e0e0e0"></path><path d="M343.56,121.54l-22.87,13.2c-.37.22-.68,0-.68-.51h0a1.65,1.65,0,0,1,.68-1.3l22.87-13.2c.37-.21.68,0,.68.51h0A1.64,1.64,0,0,1,343.56,121.54Z" style="fill:#455a64"></path><path d="M316.79,138.46l-23,13.28c-.6.34-1.08,0-1.08-.82V125.06a2.59,2.59,0,0,1,1.08-2.07l23-13.27c.59-.35,1.08,0,1.08.81V136.4A2.6,2.6,0,0,1,316.79,138.46Z" style="fill:#455a64"></path><path d="M299.74,147.64c-4.71,0-7.75-3.82-7.75-9.74,0-8.19,5.77-18.18,12.86-22.27a12,12,0,0,1,6-1.82c4.71,0,7.75,3.83,7.75,9.75,0,8.18-5.76,18.17-12.85,22.27a12.12,12.12,0,0,1-6,1.81Z" style="fill:#BA68C8"></path><path d="M292.87,137.9c0,7.92,5.56,11.13,12.42,7.17s12.41-13.59,12.41-21.51-5.56-11.13-12.41-7.17S292.87,130,292.87,137.9Z" style="fill:#263238"></path><path d="M316.65,123c0-3.65-1.18-6.3-3.13-7.7-2.19-1-5.07-.69-8.23,1.14-6.86,4-12.42,13.59-12.42,21.51,0,3.65,1.18,6.29,3.13,7.7,2.19,1,5.07.68,8.24-1.14C311.09,140.5,316.65,130.87,316.65,123Z" style="fill:#37474f"></path><path d="M295.79,135c0,5.39,3.78,7.57,8.45,4.88s8.44-9.24,8.44-14.62-3.78-7.57-8.44-4.88S295.79,129.61,295.79,135Z" style="fill:#BA68C8"></path><path d="M300.47,140.14c-2.38,0-3.8-1.92-3.8-5.15,0-5.09,3.59-11.31,8-13.86a6.91,6.91,0,0,1,3.33-1c2.37,0,3.79,1.92,3.79,5.15,0,5.09-3.59,11.31-8,13.86a7,7,0,0,1-3.33,1Z" style="fill:#37474f"></path><path d="M301.19,138.22c-1.92,0-3.07-1.55-3.07-4.16a14.29,14.29,0,0,1,6.47-11.2,5.54,5.54,0,0,1,2.69-.84c1.92,0,3.07,1.55,3.07,4.16a14.32,14.32,0,0,1-6.47,11.21,5.62,5.62,0,0,1-2.69.83Z" style="fill:#455a64"></path><path d="M294.47,135.76a9.82,9.82,0,0,0,.8,3.76,5,5,0,0,0,2.6,2.64,5.72,5.72,0,0,0,3.7.14,11.18,11.18,0,0,0,3.43-1.64,19.51,19.51,0,0,0,5.24-5.58,21.09,21.09,0,0,0,1.79-3.43,17.09,17.09,0,0,0,1.09-3.72,17.91,17.91,0,0,1-2.59,7.33,21.08,21.08,0,0,1-2.34,3.15,17.07,17.07,0,0,1-2.95,2.61,11.44,11.44,0,0,1-3.57,1.67,5.93,5.93,0,0,1-3.94-.22,5.26,5.26,0,0,1-2.65-2.86A9.41,9.41,0,0,1,294.47,135.76Z" style="fill:#455a64"></path><path d="M294.27,141.5a6,6,0,0,0,2.13,2.08,5.54,5.54,0,0,0,2.85.69,10.72,10.72,0,0,0,5.55-2,20.25,20.25,0,0,0,4.46-4,24.87,24.87,0,0,0,1.8-2.42,24.52,24.52,0,0,0,1.53-2.62,21.63,21.63,0,0,1-3.07,5.25,19.74,19.74,0,0,1-4.48,4.17,13.4,13.4,0,0,1-2.76,1.37,8.09,8.09,0,0,1-3,.54,5.67,5.67,0,0,1-2.95-.84A5.78,5.78,0,0,1,294.27,141.5Z" style="fill:#455a64"></path><path d="M316,111.93c.38-.22.7,0,.7.4a1.55,1.55,0,0,1-.7,1.21c-.39.22-.7,0-.7-.4A1.52,1.52,0,0,1,316,111.93Z" style="fill:#263238"></path><path d="M316,135.77c.38-.22.7,0,.7.41a1.55,1.55,0,0,1-.7,1.2c-.39.22-.7,0-.7-.4A1.55,1.55,0,0,1,316,135.77Z" style="fill:#263238"></path><path d="M294.75,124.18c.38-.23.69-.05.69.4a1.57,1.57,0,0,1-.69,1.21c-.39.22-.7,0-.7-.41A1.52,1.52,0,0,1,294.75,124.18Z" style="fill:#263238"></path><path d="M294.75,148c.38-.22.69,0,.69.4a1.54,1.54,0,0,1-.69,1.21c-.39.22-.7,0-.7-.4A1.52,1.52,0,0,1,294.75,148Z" style="fill:#263238"></path><path d="M370.46,107.47l-23,13.28c-.59.34-1.08,0-1.08-.82V94.07A2.62,2.62,0,0,1,347.46,92l23-13.27c.6-.35,1.08,0,1.08.81v25.87A2.57,2.57,0,0,1,370.46,107.47Z" style="fill:#455a64"></path><path d="M353.42,116.65c-4.71,0-7.75-3.82-7.75-9.74,0-8.19,5.76-18.18,12.85-22.27a12,12,0,0,1,6-1.82c4.71,0,7.75,3.83,7.75,9.75,0,8.18-5.77,18.17-12.86,22.27a12.09,12.09,0,0,1-6,1.81Z" style="fill:#BA68C8"></path><path d="M346.55,106.91c0,7.92,5.56,11.13,12.41,7.17s12.42-13.59,12.42-21.51S365.82,81.44,359,85.4,346.55,99,346.55,106.91Z" style="fill:#263238"></path><path d="M370.33,92c0-3.65-1.18-6.3-3.13-7.7-2.19-1-5.07-.69-8.24,1.14-6.85,4-12.41,13.59-12.41,21.51,0,3.65,1.18,6.29,3.13,7.7,2.19,1,5.07.68,8.23-1.14C364.77,109.51,370.33,99.88,370.33,92Z" style="fill:#37474f"></path><path d="M349.47,104c0,5.39,3.78,7.57,8.44,4.88s8.44-9.24,8.44-14.62-3.77-7.57-8.44-4.88S349.47,98.62,349.47,104Z" style="fill:#BA68C8"></path><path d="M354.14,109.15c-2.37,0-3.79-1.92-3.79-5.15,0-5.09,3.59-11.31,8-13.86a7,7,0,0,1,3.33-1c2.38,0,3.8,1.92,3.8,5.15,0,5.09-3.59,11.31-8,13.86a6.91,6.91,0,0,1-3.33,1Z" style="fill:#37474f"></path><path d="M354.86,107.23c-1.92,0-3.06-1.55-3.06-4.16a14.29,14.29,0,0,1,6.47-11.2A5.54,5.54,0,0,1,361,91c1.92,0,3.07,1.55,3.07,4.16a14.32,14.32,0,0,1-6.47,11.21,5.62,5.62,0,0,1-2.69.83Z" style="fill:#455a64"></path><path d="M348.15,104.77a9.82,9.82,0,0,0,.8,3.76,5,5,0,0,0,2.59,2.64,5.72,5.72,0,0,0,3.7.14,11.07,11.07,0,0,0,3.43-1.64,19.41,19.41,0,0,0,5.25-5.58,21.91,21.91,0,0,0,1.79-3.43,17.09,17.09,0,0,0,1.09-3.72,17.78,17.78,0,0,1-2.6,7.33,20.41,20.41,0,0,1-2.34,3.15,17,17,0,0,1-2.94,2.61,11.49,11.49,0,0,1-3.58,1.67,5.9,5.9,0,0,1-3.93-.22,5.32,5.32,0,0,1-2.66-2.86A9.4,9.4,0,0,1,348.15,104.77Z" style="fill:#455a64"></path><path d="M347.94,110.51a6.06,6.06,0,0,0,2.13,2.08,5.57,5.57,0,0,0,2.85.69,10.76,10.76,0,0,0,5.56-2,20.2,20.2,0,0,0,4.45-4,25,25,0,0,0,1.81-2.42,28.44,28.44,0,0,0,1.53-2.62,21.34,21.34,0,0,1-3.08,5.25,19.48,19.48,0,0,1-4.47,4.17,13.65,13.65,0,0,1-2.76,1.37,8.09,8.09,0,0,1-3,.54,5.67,5.67,0,0,1-2.95-.84A5.88,5.88,0,0,1,347.94,110.51Z" style="fill:#455a64"></path><path d="M369.64,80.94c.38-.22.69,0,.69.4a1.54,1.54,0,0,1-.69,1.21c-.39.22-.7,0-.7-.4A1.52,1.52,0,0,1,369.64,80.94Z" style="fill:#263238"></path><path d="M369.64,104.78c.38-.22.69,0,.69.41a1.54,1.54,0,0,1-.69,1.2c-.39.22-.7,0-.7-.4A1.55,1.55,0,0,1,369.64,104.78Z" style="fill:#263238"></path><path d="M348.43,93.19c.38-.23.69,0,.69.4a1.57,1.57,0,0,1-.69,1.21c-.39.22-.7,0-.7-.41A1.52,1.52,0,0,1,348.43,93.19Z" style="fill:#263238"></path><path d="M348.43,117c.38-.22.69,0,.69.4a1.54,1.54,0,0,1-.69,1.21c-.39.22-.7,0-.7-.4A1.52,1.52,0,0,1,348.43,117Z" style="fill:#263238"></path><path d="M342.06,96.88a1.26,1.26,0,0,0-1.26.13l-18.23,10.53a3.94,3.94,0,0,0-1.79,3.09v17.18a1.27,1.27,0,0,0,.52,1.16l.89.51a1.26,1.26,0,0,0,1.26-.13l18.23-10.52a4,4,0,0,0,1.79-3.1V98.55a1.27,1.27,0,0,0-.52-1.16Z" style="fill:#37474f"></path><path d="M323.45,108l18.23-10.52c1-.57,1.79-.11,1.79,1v17.18a4,4,0,0,1-1.79,3.1l-18.23,10.52c-1,.57-1.79.11-1.79-1V111.14A4,4,0,0,1,323.45,108Z" style="fill:#455a64"></path><path d="M322.9,111.14a2.75,2.75,0,0,1,1.17-2l18.16-10.49v17.1a2.75,2.75,0,0,1-1.17,2L322.9,128.24Z" style="fill:#263238"></path><path d="M327.53,125a3.83,3.83,0,0,1,1.79-3l6.49-3.74c1-.57,1.79-.17,1.79.9v1L327.53,126Z" style="fill:#455a64"></path><polygon points="325.02 123.07 340.12 114.35 340.12 114.83 325.02 123.55 325.02 123.07" style="fill:#455a64"></polygon><polygon points="340.12 101.27 333.4 105.15 333.4 107.08 340.12 103.21 340.12 101.27" style="fill:#BA68C8"></polygon><polygon points="324.99 112.91 340.12 104.18 340.12 113.38 325.02 122.1 324.99 112.91" style="fill:#455a64"></polygon><path d="M334.71,112.14c0,1.07.75,1.51,1.68,1a3.71,3.71,0,0,0,1.68-2.91c0-1.07-.76-1.5-1.68-1A3.68,3.68,0,0,0,334.71,112.14Z" style="fill:#37474f"></path><path d="M336.76,110.53a.36.36,0,0,0-.37,0,1.15,1.15,0,0,0-.53.91.36.36,0,0,0,.16.34l1.65,1a.34.34,0,0,0,.37,0,1.14,1.14,0,0,0,.52-.91.39.39,0,0,0-.15-.34Z" style="fill:#263238"></path><path d="M337.51,112.43c0,.34.24.47.53.3a1.14,1.14,0,0,0,.52-.91c0-.33-.23-.47-.52-.3A1.18,1.18,0,0,0,337.51,112.43Z" style="fill:#37474f"></path><path d="M327.07,116.55c0,1.07.76,1.5,1.68,1a3.72,3.72,0,0,0,1.68-2.91c0-1.07-.75-1.5-1.68-1A3.74,3.74,0,0,0,327.07,116.55Z" style="fill:#37474f"></path><path d="M329.12,114.94a.36.36,0,0,0-.37,0,1.17,1.17,0,0,0-.52.91.37.37,0,0,0,.15.34l1.65,1a.36.36,0,0,0,.37,0,1.16,1.16,0,0,0,.53-.91.36.36,0,0,0-.16-.34Z" style="fill:#263238"></path><path d="M329.88,116.84c0,.33.23.47.52.3a1.16,1.16,0,0,0,.53-.91c0-.33-.24-.47-.53-.3A1.14,1.14,0,0,0,329.88,116.84Z" style="fill:#37474f"></path><polygon points="326.41 91.17 326.41 98.33 326.94 98.03 326.94 90.87 326.41 91.17" style="fill:#BA68C8"></polygon><path d="M289.89,162.69h0c-.33-.18-20.64-11.9-20.91-12.07a1.37,1.37,0,0,1-.52-1.24V96.52a3.77,3.77,0,0,1,.49-1.77l20.89,12.06a3.84,3.84,0,0,0-.49,1.78v52.85A1.33,1.33,0,0,0,289.89,162.69Z" style="fill:#BA68C8"></path><path d="M289.89,162.69h0c-.33-.18-20.64-11.9-20.91-12.07a1.37,1.37,0,0,1-.52-1.24V96.52a3.77,3.77,0,0,1,.49-1.77l20.89,12.06a3.84,3.84,0,0,0-.49,1.78v52.85A1.33,1.33,0,0,0,289.89,162.69Z" style="fill:#fff;opacity:0.30000000000000004"></path><polygon points="275.4 98.49 280.98 101.7 365.59 52.85 360.02 49.63 275.4 98.49" style="fill:#BA68C8"></polygon><polygon points="317.19 84.01 320.14 85.72 338.66 75.03 335.71 73.33 317.19 84.01" style="fill:#BA68C8;opacity:0.5"></polygon><polygon points="335.71 73.33 335.71 76.31 336.07 76.52 338.66 75.03 335.71 73.33" style="fill:#BA68C8;opacity:0.5"></polygon><path d="M337.79,75.53,335.32,77l-.18.11-2.29-1.34.23-1.2a1.66,1.66,0,0,1,.69-1l1-.59a1.25,1.25,0,0,1,1.13,0l1,.59a1.66,1.66,0,0,1,.69,1Z" style="fill:#37474f"></path><path d="M335.89,74.79a1.08,1.08,0,0,0-.57.95V77l-.18.11-2.29-1.34.23-1.2a1.66,1.66,0,0,1,.69-1Z" style="fill:#263238"></path><path d="M334.77,73l-1,.59a.35.35,0,0,0,0,.66l1,.57a1.22,1.22,0,0,0,1.13,0l1-.58a.35.35,0,0,0,0-.66l-1-.59A1.25,1.25,0,0,0,334.77,73Z" style="fill:#455a64"></path><path d="M334.79,77.26l-2.47,1.43-.18.1-2.3-1.34.24-1.2a1.66,1.66,0,0,1,.69-1l1-.59a1.22,1.22,0,0,1,1.13,0l1,.58a1.65,1.65,0,0,1,.69,1Z" style="fill:#f5f5f5"></path><path d="M332.89,76.52a1.08,1.08,0,0,0-.57,1v1.22l-.18.1-2.3-1.34.24-1.2a1.66,1.66,0,0,1,.69-1Z" style="fill:#e0e0e0"></path><path d="M331.77,74.69l-1,.59a.35.35,0,0,0,0,.66l1,.57a1.22,1.22,0,0,0,1.13,0l1-.58a.35.35,0,0,0,0-.66l-1-.58A1.22,1.22,0,0,0,331.77,74.69Z" style="fill:#fff"></path><path d="M331.79,79l-2.47,1.43-.18.1-2.3-1.34.24-1.2a1.66,1.66,0,0,1,.69-1l1-.58a1.19,1.19,0,0,1,1.13,0l1,.58a1.68,1.68,0,0,1,.69,1Z" style="fill:#f5f5f5"></path><path d="M329.89,78.25a1.09,1.09,0,0,0-.57,1v1.22l-.18.1-2.3-1.34.24-1.2a1.66,1.66,0,0,1,.69-1Z" style="fill:#e0e0e0"></path><path d="M328.77,76.43l-1,.58a.35.35,0,0,0,0,.66l1,.58a1.25,1.25,0,0,0,1.13,0l1-.58c.31-.18.31-.47,0-.66l-1-.58A1.19,1.19,0,0,0,328.77,76.43Z" style="fill:#fff"></path><path d="M328.79,80.73l-2.47,1.42-.18.1-2.3-1.34.24-1.19a1.65,1.65,0,0,1,.69-1l1-.58a1.25,1.25,0,0,1,1.13,0l1,.58a1.68,1.68,0,0,1,.69,1Z" style="fill:#f5f5f5"></path><path d="M326.89,80a1.09,1.09,0,0,0-.57,1v1.21l-.18.1-2.3-1.34.24-1.19a1.65,1.65,0,0,1,.69-1Z" style="fill:#e0e0e0"></path><path d="M325.77,78.16l-1,.58a.35.35,0,0,0,0,.66l1,.58a1.25,1.25,0,0,0,1.13,0l1-.58c.31-.18.31-.47,0-.66l-1-.58A1.25,1.25,0,0,0,325.77,78.16Z" style="fill:#fff"></path><path d="M325.79,82.46l-2.47,1.42-.18.11-2.3-1.35.24-1.19a1.68,1.68,0,0,1,.69-1l1-.58a1.25,1.25,0,0,1,1.13,0l1,.59a1.63,1.63,0,0,1,.69,1Z" style="fill:#f5f5f5"></path><path d="M323.89,81.71a1.09,1.09,0,0,0-.57,1v1.21l-.18.11-2.3-1.35.24-1.19a1.68,1.68,0,0,1,.69-1Z" style="fill:#e0e0e0"></path><path d="M322.77,79.89l-1,.58c-.31.19-.31.48,0,.66l1,.58a1.25,1.25,0,0,0,1.13,0l1-.58a.34.34,0,0,0,0-.65l-1-.59A1.25,1.25,0,0,0,322.77,79.89Z" style="fill:#fff"></path><path d="M322.79,84.19l-2.47,1.42-.18.11-2.3-1.33.24-1.21a1.68,1.68,0,0,1,.69-1l1-.58a1.25,1.25,0,0,1,1.13,0l1,.59a1.66,1.66,0,0,1,.69,1Z" style="fill:#f5f5f5"></path><path d="M320.89,83.44a1.09,1.09,0,0,0-.57,1v1.21l-.18.11-2.3-1.33.24-1.21a1.68,1.68,0,0,1,.69-1Z" style="fill:#e0e0e0"></path><path d="M319.77,81.62l-1,.58a.36.36,0,0,0,0,.67l1,.57a1.25,1.25,0,0,0,1.13,0l1-.57a.35.35,0,0,0,0-.66l-1-.59A1.25,1.25,0,0,0,319.77,81.62Z" style="fill:#fff"></path><polygon points="290.73 99.29 293.68 101 306.21 93.76 303.26 92.06 290.73 99.29" style="fill:#BA68C8;opacity:0.5"></polygon><polygon points="303.26 92.06 303.26 95.04 303.63 95.25 306.21 93.76 303.26 92.06" style="fill:#BA68C8;opacity:0.5"></polygon><path d="M305.33,94.27l-2.47,1.43-.18.1-2.3-1.34.24-1.2a1.66,1.66,0,0,1,.69-1l1-.59a1.22,1.22,0,0,1,1.13,0l1,.58a1.66,1.66,0,0,1,.7,1Z" style="fill:#f5f5f5"></path><path d="M303.43,93.53a1.08,1.08,0,0,0-.57,1V95.7l-.18.1-2.3-1.34.24-1.2a1.66,1.66,0,0,1,.69-1Z" style="fill:#e0e0e0"></path><path d="M302.31,91.71l-1,.58a.35.35,0,0,0,0,.66l1,.58a1.27,1.27,0,0,0,1.14,0l1-.58a.35.35,0,0,0,0-.66l-1-.58A1.19,1.19,0,0,0,302.31,91.71Z" style="fill:#fff"></path><path d="M302.33,96l-2.47,1.43-.18.1-2.3-1.34.23-1.19a1.67,1.67,0,0,1,.7-1l1-.58a1.23,1.23,0,0,1,1.12,0l1,.58a1.66,1.66,0,0,1,.7,1Z" style="fill:#f5f5f5"></path><path d="M300.43,95.26a1.09,1.09,0,0,0-.57.95v1.22l-.18.1-2.3-1.34.23-1.19a1.67,1.67,0,0,1,.7-1Z" style="fill:#e0e0e0"></path><path d="M299.31,93.44l-1,.58a.35.35,0,0,0,0,.66l1,.58a1.27,1.27,0,0,0,1.14,0l1-.58c.32-.18.32-.47,0-.66l-1-.58A1.22,1.22,0,0,0,299.31,93.44Z" style="fill:#fff"></path><path d="M299.33,97.74l-2.47,1.42-.18.1-2.3-1.34.23-1.19a1.66,1.66,0,0,1,.7-1l1-.58a1.25,1.25,0,0,1,1.13,0l1,.59a1.61,1.61,0,0,1,.7,1Z" style="fill:#f5f5f5"></path><path d="M297.43,97a1.09,1.09,0,0,0-.57,1v1.21l-.18.1-2.3-1.34.23-1.19a1.66,1.66,0,0,1,.7-1Z" style="fill:#e0e0e0"></path><path d="M296.3,95.17l-1,.58c-.32.19-.32.48,0,.66l1,.58a1.27,1.27,0,0,0,1.14,0l1-.58c.32-.18.32-.47,0-.65l-1-.59A1.27,1.27,0,0,0,296.3,95.17Z" style="fill:#fff"></path><path d="M296.33,99.47l-2.47,1.42-.18.11-2.3-1.33.23-1.21a1.66,1.66,0,0,1,.7-1l1-.58a1.25,1.25,0,0,1,1.13,0l1,.59a1.63,1.63,0,0,1,.7,1Z" style="fill:#f5f5f5"></path><path d="M294.43,98.72a1.09,1.09,0,0,0-.57,1v1.21l-.18.11-2.3-1.33.23-1.21a1.66,1.66,0,0,1,.7-1Z" style="fill:#e0e0e0"></path><path d="M293.3,96.9l-1,.58c-.32.19-.32.48,0,.67l1,.57a1.27,1.27,0,0,0,1.14,0l1-.57c.31-.19.32-.48,0-.66l-1-.59A1.25,1.25,0,0,0,293.3,96.9Z" style="fill:#fff"></path><polygon points="349.23 65.52 352.18 67.22 364.71 59.98 361.76 58.28 349.23 65.52" style="fill:#BA68C8;opacity:0.5"></polygon><polygon points="361.76 58.28 361.76 61.26 362.13 61.48 364.71 59.98 361.76 58.28" style="fill:#BA68C8;opacity:0.5"></polygon><path d="M363.83,60.5l-2.47,1.42-.18.11-2.3-1.35.24-1.19a1.68,1.68,0,0,1,.69-1l1-.58a1.25,1.25,0,0,1,1.13,0l1,.59a1.61,1.61,0,0,1,.7,1Z" style="fill:#f5f5f5"></path><path d="M361.93,59.75a1.09,1.09,0,0,0-.57,1v1.21l-.18.11-2.3-1.35.24-1.19a1.68,1.68,0,0,1,.69-1Z" style="fill:#e0e0e0"></path><path d="M360.81,57.93l-1,.58c-.31.19-.31.48,0,.66l1,.58a1.25,1.25,0,0,0,1.13,0l1-.58c.32-.18.32-.47,0-.65l-1-.59A1.25,1.25,0,0,0,360.81,57.93Z" style="fill:#fff"></path><path d="M360.83,62.23l-2.47,1.42-.18.11-2.3-1.34.24-1.2a1.63,1.63,0,0,1,.69-1l1-.59a1.25,1.25,0,0,1,1.13,0l1,.59a1.63,1.63,0,0,1,.7,1Z" style="fill:#f5f5f5"></path><path d="M358.93,61.49a1.07,1.07,0,0,0-.57.95v1.21l-.18.11-2.3-1.34.24-1.2a1.63,1.63,0,0,1,.69-1Z" style="fill:#e0e0e0"></path><path d="M357.81,59.66l-1,.59c-.31.18-.31.47,0,.66l1,.57a1.24,1.24,0,0,0,1.14,0l1-.57a.35.35,0,0,0,0-.66l-1-.59A1.25,1.25,0,0,0,357.81,59.66Z" style="fill:#fff"></path><path d="M357.83,64l-2.47,1.42-.18.11-2.3-1.34.23-1.2a1.68,1.68,0,0,1,.7-1l1-.59a1.2,1.2,0,0,1,1.12,0l1,.58a1.63,1.63,0,0,1,.7,1Z" style="fill:#f5f5f5"></path><path d="M355.93,63.22a1.08,1.08,0,0,0-.57,1v1.21l-.18.11-2.3-1.34.23-1.2a1.68,1.68,0,0,1,.7-1Z" style="fill:#e0e0e0"></path><path d="M354.81,61.39l-1,.59a.35.35,0,0,0,0,.66l1,.57a1.24,1.24,0,0,0,1.14,0l1-.58a.35.35,0,0,0,0-.66l-1-.59A1.25,1.25,0,0,0,354.81,61.39Z" style="fill:#fff"></path><path d="M354.83,65.69l-2.47,1.43-.18.1-2.3-1.33.23-1.21a1.63,1.63,0,0,1,.7-1l1-.59a1.22,1.22,0,0,1,1.13,0l1,.58a1.63,1.63,0,0,1,.7,1Z" style="fill:#f5f5f5"></path><path d="M352.93,65a1.08,1.08,0,0,0-.57,1v1.22l-.18.1-2.3-1.33.23-1.21a1.63,1.63,0,0,1,.7-1Z" style="fill:#e0e0e0"></path><path d="M351.8,63.13l-1,.58a.35.35,0,0,0,0,.66l1,.58a1.27,1.27,0,0,0,1.14,0l1-.58a.35.35,0,0,0,0-.66l-1-.58A1.21,1.21,0,0,0,351.8,63.13Z" style="fill:#fff"></path><polygon points="280.98 101.7 280.98 130.66 275.4 127.44 275.4 98.49 280.98 101.7" style="fill:#e0e0e0"></polygon><path d="M365.9,52.32h0l-5.57-3.22h0a.4.4,0,0,0-.41,0L276,97.55a2.23,2.23,0,0,0-1.11,1.93v28.26l5.57,3.21.52-.29v-28a1.72,1.72,0,0,1,.86-1.48l83.76-48.36.52.3v-.48A.41.41,0,0,0,365.9,52.32Z" style="fill:#BA68C8"></path><path d="M365.9,52.32h0l-5.57-3.22h0a.4.4,0,0,0-.41,0L276,97.55a2.23,2.23,0,0,0-1.11,1.93v28.26l5.57,3.21.52-.29v-28a1.72,1.72,0,0,1,.86-1.48l83.76-48.36.52.3v-.48A.41.41,0,0,0,365.9,52.32Z" style="fill:#fff;opacity:0.85"></path><path d="M280.46,131l.52-.29v-28a1.77,1.77,0,0,1,.23-.85l-6-3.48a2.29,2.29,0,0,0-.3,1.12v28.26Z" style="fill:#BA68C8"></path><path d="M280.46,131l.52-.29v-28a1.77,1.77,0,0,1,.23-.85l-6-3.48a2.29,2.29,0,0,0-.3,1.12v28.26Z" style="fill:#fff;opacity:0.5"></path><path d="M365.59,52.85l-83.76,48.36a1.72,1.72,0,0,0-.86,1.48v28l-.52.29V102.69a2.25,2.25,0,0,1,1.11-1.93l83.92-48.44a.41.41,0,0,1,.62.35v.48Z" style="fill:#BA68C8"></path><path d="M365.59,52.85l-83.76,48.36a1.72,1.72,0,0,0-.86,1.48v28l-.52.29V102.69a2.25,2.25,0,0,1,1.11-1.93l83.92-48.44a.41.41,0,0,1,.62.35v.48Z" style="fill:#fff;opacity:0.30000000000000004"></path><path d="M280.76,101.58a2.25,2.25,0,0,0-.3,1.11V131l.52-.29v-28a1.77,1.77,0,0,1,.23-.85Z" style="fill:#BA68C8"></path><path d="M356.7,54.32V39.93a1.65,1.65,0,0,0-.83-1.44,1.62,1.62,0,0,0-1.66,0l-6.09,3.55.69,1.18,6.09-3.55a.27.27,0,0,1,.28,0,.28.28,0,0,1,.15.25V54.32a.33.33,0,0,0,.2.28,1,1,0,0,0,1,0A.33.33,0,0,0,356.7,54.32Z" style="fill:#455a64"></path><path d="M348.67,40.86a1,1,0,0,0-1-.1l-57,32.88a1,1,0,0,0-.42.93,3.18,3.18,0,0,0,1.44,2.5,1,1,0,0,0,1,.09C293,77,349.42,44.43,349.67,44.3a1,1,0,0,0,.44-.94A3.21,3.21,0,0,0,348.67,40.86Z" style="fill:#37474f"></path><path d="M291.71,73.74a3.18,3.18,0,0,1,1.44,2.5c0,.92-.64,1.29-1.44.83a3.18,3.18,0,0,1-1.44-2.5C290.27,73.65,290.91,73.28,291.71,73.74Z" style="fill:#263238"></path><path d="M292.14,75.68a1.06,1.06,0,0,0-.49-.84.33.33,0,0,0-.35,0h0L285.83,78a4.33,4.33,0,0,0-2.16,3.74v14a.34.34,0,0,0,.2.28,1,1,0,0,0,1,0c.14-.08.21-.18.2-.28v-14a3,3,0,0,1,1.48-2.56L292,76h0A.34.34,0,0,0,292.14,75.68Z" style="fill:#455a64"></path></g><g id="freepik--Chest--inject-60"><path d="M358,137.91c1.3-9.45,7.33-17.67,18.09-21.23l18.14-2.41c4.66,1.21,33.94,9.64,33.94,9.64L419,173.33s2.09,20.67,2.53,33.43c-13.54,8.58-51.48,8.09-65.78-.53C355.16,193.17,356.7,147.27,358,137.91Z" style="fill:#fafafa"></path><path d="M362.46,213.15v5.32a36.84,36.84,0,0,1-12.76-6.31l-.13-6Z" style="fill:#263238"></path><path d="M352.45,149.44c.5-12,3.85-23.21,7.93-27,2.91-2.7,13.23-7.14,19-8v1.23c-1.23.11-3.36,1.72-4.34,3.31-1.84,3-3.66,7.9-5.91,16.44-3.06,11.64-6.47,35.36-6.63,49.36s0,28.35,0,28.35-10.7-3.42-12.89-7c-2-5.26.14-6.41.11-9.78C349.54,180.59,352.08,158.21,352.45,149.44Z" style="fill:#BA68C8"></path><path d="M352.45,149.44c.5-12,3.85-23.21,7.93-27,2.91-2.7,13.23-7.14,19-8v1.23c-1.23.11-3.36,1.72-4.34,3.31-1.84,3-3.66,7.9-5.91,16.44-3.06,11.64-6.47,35.36-6.63,49.36s0,28.35,0,28.35-10.7-3.42-12.89-7c-2-5.26.14-6.41.11-9.78C349.54,180.59,352.08,158.21,352.45,149.44Z" style="opacity:0.1"></path><path d="M424.36,208.1s1.15,4.48.91,5.78-2.07,3.08-8.5,5.26c-5.76,2-16.73,5.53-26.41,5.2l-.34-6.07Z" style="fill:#263238"></path><path d="M395.79,133.71c1.51-6.38,6.65-13.24,8.19-19.44,0,0,6.6,2.66,14.87,5.49,0,0,3.38,1.52,6.31,2.8,5.9,2.56,6.9,8.68,4.55,17.26,0,0-3.87,18.49-5.92,29.86a63.88,63.88,0,0,0,.4,26.59c.83,3.64,3.23,9.33.1,11.85-8.57,7.42-34.27,10.15-34.27,10.15s-.73-16.06,0-48.34C390.42,151.84,393.87,141.84,395.79,133.71Z" style="fill:#BA68C8"></path><path d="M395.79,133.71c1.51-6.38,6.65-13.24,8.19-19.44,0,0,6.6,2.66,14.87,5.49,0,0,3.38,1.52,6.31,2.8,5.9,2.56,6.9,8.68,4.55,17.26,0,0-3.87,18.49-5.92,29.86a63.88,63.88,0,0,0,.4,26.59c.83,3.64,3.23,9.33.1,11.85-8.57,7.42-34.27,10.15-34.27,10.15s-.73-16.06,0-48.34C390.42,151.84,393.87,141.84,395.79,133.71Z" style="opacity:0.1"></path></g><g id="freepik--Head--inject-60"><path d="M386.45,54.36a26.28,26.28,0,0,1,29.09,17.28c3,9.18-2.06,23.75-12.38,32.88L368,75.5C366.8,65.08,371.08,56.78,386.45,54.36Z" style="fill:#263238"></path><path d="M409.46,100.48c-3.83,1.18-5.67-1.38-5.67-1.38l-2,19.35a20.69,20.69,0,0,1-19.66,6.46c-4.08-.85-6.26-4-1.84-9.2l.46-5.72a34.18,34.18,0,0,1-6.46-.53c-4.12-.95-6.49-4.44-7.42-9-1.47-7.39-.43-20,2.93-33.62,4.92-3.27,22.52-.72,31.87,6.2-1.53,5.84-1.73,7.55-1.36,11.21s1.57,5.42,2.62,5.66c2,.45,2.44-1.69,3.82-2.94s6.3-1.68,8.06,2.87S412.4,99.57,409.46,100.48Z" style="fill:#b16668"></path><path d="M380.75,110c6.68-.18,15.27-2.67,17.62-5.56a22.57,22.57,0,0,0,3.3-5.31s-.43,4.13-2.23,6.67-8.44,6.73-18.89,6.68Z" style="fill:#9a4a4d"></path><path d="M385.15,84.41a2,2,0,1,0,2.11-1.89A2,2,0,0,0,385.15,84.41Z" style="fill:#263238"></path><path d="M388.27,75.13l4.65,2.42a2.75,2.75,0,0,0-1.16-3.62A2.55,2.55,0,0,0,388.27,75.13Z" style="fill:#263238"></path><path d="M370.14,74.77l4.83.12a2.32,2.32,0,0,0-2.26-2.49A2.52,2.52,0,0,0,370.14,74.77Z" style="fill:#263238"></path><path d="M370,81.73a2,2,0,1,0,2.11-1.89A2,2,0,0,0,370,81.73Z" style="fill:#263238"></path><path d="M395.31,81.63l-.89-.29c-2.87-.94-6.68-1.88-9.11-1.76-3.06.15-4.26.81-5.86.47s-2.27-1.45-4.8-2.84c-2-1.11-5.63-1.82-8.43-2.15l-.87-.09c-.47,0-1.13.52-1.24,1.28a3.2,3.2,0,0,0,.41,1.89,1.31,1.31,0,0,1,.19.69,31,31,0,0,0,.08,4.89,5.41,5.41,0,0,0,4.58,4.4,9.09,9.09,0,0,0,1.84.22h.15a5.66,5.66,0,0,0,1.6-.24l.1,0,.14,0a1.2,1.2,0,0,0,.19-.07l.16-.07.2-.09c.05,0,.12-.06.17-.1a2.12,2.12,0,0,0,.36-.21,6.82,6.82,0,0,0,1.59-1.53c1.15-1.46,1.48-3.79,2.81-3.79h.15a1,1,0,0,1,.17,0c1.71.37.95,2.81,1.5,4.78s1.74,4,5.48,4.84l.48.09.39.06a7.59,7.59,0,0,0,.92.06h.3l.29,0h.18a5.69,5.69,0,0,0,1.11-.24l.39-.15a4.63,4.63,0,0,0,.7-.36,6.4,6.4,0,0,0,1.52-1.42c.86-1.11,1.52-3.31,2.08-4.41a2.68,2.68,0,0,1,.44-.61A3.27,3.27,0,0,0,396,83.31,1.46,1.46,0,0,0,395.31,81.63Zm-20,2.45a5.67,5.67,0,0,1-.46.86l0,.06a.24.24,0,0,1-.06.09l0,0a.26.26,0,0,1-.07.1,1.66,1.66,0,0,1-.16.21c-.05,0-.09.12-.15.17l-.05.06-.11.11a.52.52,0,0,1-.11.1h0a4.64,4.64,0,0,1-4.53.93,5.22,5.22,0,0,1-2-.89c-1.75-1.34-1.77-3.52-1.79-4.53,0-1.3.17-3.79.88-4.21a3.12,3.12,0,0,1,.77-.26h.07l.32-.05.2,0h.47c.2,0,.43,0,.66,0l.35,0,.21,0,.17,0,.44.09.16,0,.15,0c.4.09.81.22,1.26.37,1.92.68,3.79,2,4.15,2.83S375.89,82.77,375.31,84.08Zm16.94,3.22a.59.59,0,0,1,0,.08s0,.07,0,.1-.14.29-.23.47l-.17.29h0c-.09.15-.19.31-.3.47l-.12.16-.08.1-.08.1-.11.13-.13.14c-.05.05-.09.1-.15.15a1.07,1.07,0,0,1-.16.14,4.63,4.63,0,0,1-4.28.93,5.48,5.48,0,0,1-3.76-2.3h0a5.2,5.2,0,0,1-.77-2.75c0-1.43.14-3.07.86-3.7a2.52,2.52,0,0,1,1-.47l.17,0,.09,0c.15,0,.3-.07.45-.09l.41-.07a12.93,12.93,0,0,1,1.32-.12h.51a11.5,11.5,0,0,1,1.31.07l.3,0c2.82.35,4.42,1.32,4.93,2S392.79,86.13,392.25,87.3Z" style="fill:#263238"></path><polygon points="395.31 81.63 406.42 87.27 405.24 88.81 394.83 83.7 395.31 81.63" style="fill:#263238"></polygon><path d="M392.25,87.3a.59.59,0,0,1,0,.08s0,.07,0,.1-.14.29-.23.47l-.17.29h0c-.09.15-.19.31-.3.47l-.12.16-.08.1-.08.1-.11.13-.13.14c-.05.05-.09.1-.15.15a1.07,1.07,0,0,1-.16.14,4.63,4.63,0,0,1-4.28.93,5.48,5.48,0,0,1-3.76-2.3h0a5.2,5.2,0,0,1-.77-2.75c0-1.43.14-3.07.86-3.7a2.52,2.52,0,0,1,1-.47l.17,0,.09,0c.15,0,.3-.07.45-.09l.41-.07a12.93,12.93,0,0,1,1.32-.12h.51a11.5,11.5,0,0,1,1.31.07l.3,0c2.82.35,4.42,1.32,4.93,2S392.79,86.13,392.25,87.3Z" style="fill:#455a64"></path><path d="M388.2,81.11l-.3,0a11.5,11.5,0,0,0-1.31-.07h-.45a1,1,0,0,0-.05.16,6.45,6.45,0,0,0,.19,2c.06.69-.3,1.54-1,1.55s-1.05-.7-1.67-.75a1.27,1.27,0,0,0-1.18,1c-.16.54-.12,1.12-.24,1.67a3.17,3.17,0,0,1-.12.44,4.14,4.14,0,0,0,.51,1.15h0A4.63,4.63,0,0,0,384,89.63a1.79,1.79,0,0,1,.92-1.1c1.38-.53,2.64,1.82,4,1.33a1.76,1.76,0,0,0,.9-1.9c-.09-.75-.41-1.45-.47-2.21a1.35,1.35,0,0,1,.09-.69,1.45,1.45,0,0,1,1.6-.52,4.25,4.25,0,0,0,1.79.2,1.17,1.17,0,0,0,.36-.16,2,2,0,0,0-.05-1.48C392.62,82.43,391,81.46,388.2,81.11Z" style="fill:#fff;opacity:0.1"></path><path d="M375.31,84.08a5.67,5.67,0,0,1-.46.86l0,.06a.24.24,0,0,1-.06.09l0,0a.26.26,0,0,1-.07.1,1.66,1.66,0,0,1-.16.21c-.05,0-.09.12-.15.17l-.05.06-.11.11a.52.52,0,0,1-.11.1h0a4.64,4.64,0,0,1-4.53.93,5.22,5.22,0,0,1-2-.89c-1.75-1.34-1.77-3.52-1.79-4.53,0-1.3.17-3.79.88-4.21a3.12,3.12,0,0,1,.77-.26h.07l.32-.05.2,0h.47c.2,0,.43,0,.66,0l.35,0,.21,0,.17,0,.44.09.16,0,.15,0c.4.09.81.22,1.26.37,1.92.68,3.79,2,4.15,2.83S375.89,82.77,375.31,84.08Z" style="fill:#455a64"></path><path d="M376,80.33c-.36-.87-2.23-2.15-4.15-2.83-.45-.15-.86-.28-1.26-.37l-.15,0-.16,0-.44-.09-.16,0a1.58,1.58,0,0,0-.34.67,6.48,6.48,0,0,0,.19,2c.06.68-.3,1.54-1,1.54s-1.05-.7-1.67-.75a1.24,1.24,0,0,0-1.13.89s0,0,0,.07a5.66,5.66,0,0,0,1.61,4.36,1.47,1.47,0,0,1,.77-.78c1.38-.54,2.64,1.82,4,1.32a1.75,1.75,0,0,0,.9-1.89c-.09-.75-.41-1.46-.47-2.21a1.37,1.37,0,0,1,.09-.7,1.45,1.45,0,0,1,1.6-.52,4.1,4.1,0,0,0,1.79.21l.05,0A2.06,2.06,0,0,0,376,80.33Z" style="fill:#fff;opacity:0.1"></path><path d="M380.36,86.32,378.48,94l-7.17-3c.94-1.41,1.61-2.41,2.11-3.1a38,38,0,0,1,4.2-5.13c.19-.19.38-.35.57-.52,0,0,0,0,0,0a1.15,1.15,0,0,1,.46-.1h.15a1,1,0,0,1,.17,0C380.53,82.52,380.08,84.49,380.36,86.32Z" style="fill:#9a4a4d"></path><path d="M384.74,95.93l-6.62,2a3.39,3.39,0,0,0,4.26,2.42A3.63,3.63,0,0,0,384.74,95.93Z" style="fill:#9a4a4d"></path><path d="M384.86,97a3.59,3.59,0,0,1-2.48,3.43,3.32,3.32,0,0,1-2.31-.15A5.31,5.31,0,0,1,384.86,97Z" style="fill:#f28f8f"></path><path d="M372.56,59.88c5.33-6.47,17.17-9.4,26.81-8.08S421.54,62,421.46,71.93c0,6-3.93,6.09-4.67,9.11s-1.56,6.66-2.62,7.51c0,0-.55-.7-1.13-1.29-1-5.54-5.44-16.64-15-23S372.56,59.88,372.56,59.88Z" style="fill:#37474f"></path><path d="M407.76,86.38c-1.82-5.78-9.22-14.85-23.54-18.3S367.79,73,367.79,73l.1,1.71a3.43,3.43,0,0,1-.76-2.43c-.07-3.42.51-8.93,5.17-12.42,2.66-2,13.2-4.63,25.07,1.38s16.53,17.93,15.67,26A5.93,5.93,0,0,0,407.76,86.38Z" style="fill:#455a64"></path></g><path d="M380.29,115.71c-5.4,7-13.48,26.35-15.27,41.16-.65-6.39-1.4-22.66,0-26.76a39,39,0,0,1,4.55-8.46s-1-3.21-.69-3.62c1.43-1.91,11.73-6.37,11.73-6.37Z" style="fill:#263238"></path><path d="M402.6,110.57l-.46,4.51c-2.66,5.07-5.5,9.69-7.66,19a179.43,179.43,0,0,0-3.83,25.4s10.45-17.52,12.86-22.2c1.53-3,.62-11.84.62-11.84s5.45-1.47,6.16-2.23c1-1.06-.86-6.86-.86-6.86Z" style="fill:#263238"></path><path d="M418.85,119.76c11.37,3.15,14.69,3.63,26.39,24.37,5.7,10.08,14.09,25.21,14.76,34.24.69,9.27-3,10.63-13.42,10.43,0,0-21.45-34.91-24.29-37.25C415.07,145.63,413.57,128.41,418.85,119.76Z" style="fill:#37474f"></path><path d="M430.46,174.39c1.57,2.07,3.39,7.61,7.36,11.16s7.44,3.61,12.83,2.88,7.38-2.79,6.45-6.12-1.36-7.67-6.17-11.81c-3.41-2.93-5.2-3.63-13-8.84-1.78-1.19-5.12-3.22-6.69-4.48-2.26-1.64-3-2-4.88-3.38-3.17-2.29-3.75-2.56-8.08-4.14-3.94-1.42-6.51-2.15-8.41-3.16-1.65-.87-2.6-1.12-3-.4-.68,1.19-.07,2.58.35,3.4,1.25,2.38,5,4.74,5,4.74s-4.71.24-12.1.45c-4.56.12-7.2-.2-7.75.84-.63,1.2-.91,2.78,2.87,3.14s13.65,1.54,13.65,1.54a23.84,23.84,0,0,0-4.61,2.57c-1.06,1-.35,2.6.58,3.21a7.36,7.36,0,0,0,2.38.87,8.41,8.41,0,0,0-2.15,2c-.81,1.19.21,2.62.91,3,1,.55,3.41.11,3.41.11s-1.53,1.07-4.45,3c-3.76,2.54-4.37,3.6-3.74,4.51.85,1.22,3.45.25,6.39-1.26,4.14-2.13,6.25-3.53,7.91-4s2.11-1.13,6.36-.47S429,172.49,430.46,174.39Z" style="fill:#b16668"></path><path d="M426.32,153.8a30.41,30.41,0,0,0-3.35-2.17,28.91,28.91,0,0,0-3.69-1.52c-2.5-.93-5-1.71-7.55-2.64a17.8,17.8,0,0,1-1.85-.8,9.85,9.85,0,0,0-1.8-.79.92.92,0,0,0-1.34.76,3.08,3.08,0,0,0,.15,1.87,8,8,0,0,0,2.26,3.17,21.67,21.67,0,0,0,3.13,2.43.16.16,0,0,1,.06.22.19.19,0,0,1-.14.07l-9.8.39c-1.63.07-3.27.13-4.9.13-.82,0-1.64,0-2.45,0a5.17,5.17,0,0,0-2.27.41,1.83,1.83,0,0,0-.52.93,1.32,1.32,0,0,0,.07,1,2.87,2.87,0,0,0,2,1c1.57.23,3.24.38,4.85.57L408.9,160a.24.24,0,0,1,.07.46c-.88.39-1.75.8-2.59,1.25-.42.23-.84.46-1.23.72a3.32,3.32,0,0,0-1,.88,2,2,0,0,0,.57,2.34,5.86,5.86,0,0,0,2.54,1,.21.21,0,0,1,.16.25.19.19,0,0,1-.09.14,8.48,8.48,0,0,0-1.8,1.58,2.18,2.18,0,0,0-.54,1,1.88,1.88,0,0,0,.19,1.08,2.56,2.56,0,0,0,.71.88,1.94,1.94,0,0,0,1.06.35,9.79,9.79,0,0,0,2.41-.13h0a.19.19,0,0,1,.22.16.18.18,0,0,1-.08.18l-4.44,3c-.74.5-1.47,1-2.16,1.56a5.43,5.43,0,0,0-1.71,1.91,1,1,0,0,0,.34,1,1.69,1.69,0,0,0,1.16.28,8.84,8.84,0,0,0,2.53-.7c1.64-.68,3.21-1.54,4.79-2.38s3.1-1.77,4.77-2.48c.42-.18.85-.29,1.27-.44a10.77,10.77,0,0,1,1.29-.41,8.74,8.74,0,0,1,2.7-.06c.89.08,1.77.25,2.66.34a14,14,0,0,0,2.67,0c.89-.07,1.77-.21,2.67-.25a2.67,2.67,0,0,1,2.42.87,2.65,2.65,0,0,0-2.42-.83c-.89.05-1.77.21-2.67.29a15,15,0,0,1-2.68.05c-.9-.08-1.78-.24-2.67-.31a8.65,8.65,0,0,0-2.64.1,9.8,9.8,0,0,0-1.26.42c-.42.16-.85.28-1.26.45-1.61.73-3.15,1.66-4.72,2.51s-3.14,1.72-4.81,2.41a9,9,0,0,1-2.62.74,2,2,0,0,1-1.38-.34,1.28,1.28,0,0,1-.45-1.37,3.41,3.41,0,0,1,.79-1.16,12.51,12.51,0,0,1,1-.91c.7-.56,1.43-1.08,2.17-1.59l4.42-3,.14.34a10,10,0,0,1-2.51.15,2.49,2.49,0,0,1-1.26-.42,3,3,0,0,1-.83-1,2.28,2.28,0,0,1-.23-1.32,2.45,2.45,0,0,1,.62-1.17,8.68,8.68,0,0,1,1.9-1.68l.07.39a6.21,6.21,0,0,1-2.76-1.13,2.82,2.82,0,0,1-.82-1.31,2,2,0,0,1,.16-1.58,3.7,3.7,0,0,1,1.13-1c.42-.27.84-.51,1.27-.74.86-.46,1.73-.88,2.61-1.28l.07.46-9.74-1.11c-1.63-.2-3.23-.34-4.88-.59a3.24,3.24,0,0,1-2.26-1.21,1.75,1.75,0,0,1-.11-1.36,5.36,5.36,0,0,1,.24-.6,1.37,1.37,0,0,1,.45-.55,5.46,5.46,0,0,1,2.5-.48c.82,0,1.64,0,2.45,0,1.64,0,3.27-.05,4.9-.11l9.8-.34-.08.3a22.35,22.35,0,0,1-3.17-2.48,8.33,8.33,0,0,1-2.32-3.29,3.41,3.41,0,0,1-.14-2.05,1.48,1.48,0,0,1,.59-.9,1.55,1.55,0,0,1,1.08,0,10.58,10.58,0,0,1,1.85.81,19.65,19.65,0,0,0,1.81.82c2.48,1,5,1.78,7.51,2.74a29.12,29.12,0,0,1,3.68,1.58A32,32,0,0,1,426.32,153.8Z" style="fill:#9a4a4d"></path><path d="M409,160.43a17.52,17.52,0,0,0,2.77-1.47s-3.52.2-6.26.07-8.06-.13-8.06-.13Z" style="fill:#9a4a4d"></path><path d="M404.84,166a2.49,2.49,0,0,1-1.1-1.8c0,.09.53,1.05,2.57,1.36a8.38,8.38,0,0,0,3.95-.44s-1.67,1.21-2.93,1.93A10.57,10.57,0,0,1,404.84,166Z" style="fill:#9a4a4d"></path><path d="M406,171.86a2.4,2.4,0,0,1-1.11-1.41c.55,1,1.49,1.15,3,1a16.69,16.69,0,0,0,4.05-1.28l-2.42,1.91S407,172.41,406,171.86Z" style="fill:#9a4a4d"></path><path d="M443.45,184.68a29.75,29.75,0,0,1-3.55-2.23c-3-2.06-4.69-4.91-6.2-8.15a6.35,6.35,0,0,0-1.06-1.75,3.4,3.4,0,0,0-2.95-.78c-1.7.14-3.37.72-5.05.85-1.23.1-2.55-.1-3.8-.09-2.4,0-3.27.29-4.53,1.39,1.14-.41,2.08-.72,5.55-.18,4.24.67,7.15-1.25,8.6.65,1.57,2.07,3.39,7.61,7.36,11.16s7.44,3.61,12.83,2.88c3.79-.51,5.89-1.68,6.49-3.49C454.75,187.8,447.37,186.68,443.45,184.68Z" style="fill:#9a4a4d;opacity:0.5"></path><path d="M412.39,152.83a9.37,9.37,0,0,1-5.76-4.72,6.5,6.5,0,0,0,.54,1.39c1.25,2.38,5,4.9,5,4.9l4.64-.47S415.2,153.61,412.39,152.83Z" style="fill:#9a4a4d"></path><path d="M414.86,163s0-.13,0-.27a3,3,0,0,1,1.12-1,2,2,0,0,1,.8-.34,1.76,1.76,0,0,1,.56,0,5.52,5.52,0,0,1,2,.62c.86.49,0,.71-.56.65a10.32,10.32,0,0,0-1.09-.11C417.18,162.49,415.27,163.45,414.86,163Z" style="fill:#9a4a4d"></path><path d="M416.72,167.46a1.45,1.45,0,0,1,.14-.48,1.52,1.52,0,0,1,.55-.52,2.72,2.72,0,0,1,1.47-.41,3.52,3.52,0,0,1,1,.22,4.52,4.52,0,0,1,.47.18c.35.19,1.38,1,.35.83a7.44,7.44,0,0,0-3,.16,8.1,8.1,0,0,1-.8.24s-.08,0-.11,0A.27.27,0,0,1,416.72,167.46Z" style="fill:#9a4a4d"></path><path d="M416.69,158.05a2.46,2.46,0,0,0-.45.11,2.76,2.76,0,0,1-.92.26c-.09,0-.19,0-.22-.1s0-.18.09-.25a3.12,3.12,0,0,1,1.6-1.22,2.77,2.77,0,0,1,1,.08,2.92,2.92,0,0,1,1.27.56c.54.49-.17.53-.58.51A9.19,9.19,0,0,0,416.69,158.05Z" style="fill:#9a4a4d"></path></g></g></g><g id="freepik--speech-bubble--inject-60"><g id="freepik--speech-bubble--inject-60"><g id="freepik--speech-bubble--inject-60"><path d="M138.33,195.47l-4.56-8.57,3.67-10.58v-6.48l-11.22,6.48v6.48l4.82,8.35a.66.66,0,0,0,.33.29h0Z" style="fill:#BA68C8"></path><path d="M138.33,195.47l-4.56-8.57,3.67-10.58v-6.48l-11.22,6.48v6.48l4.82,8.35a.66.66,0,0,0,.33.29h0Z" style="opacity:0.2"></path><path d="M165.12,114.42a7.44,7.44,0,0,0-3.36-5.82L159,107a7.39,7.39,0,0,0-6.73,0l-42,24.29a7.43,7.43,0,0,0-3.37,5.83v50.14a7.43,7.43,0,0,0,3.37,5.82l2.74,1.58a7.37,7.37,0,0,0,6.72,0l13.51-7.8,4.82,8.34a.72.72,0,0,0,1.3-.13l5.08-14.68,17.3-10a7.42,7.42,0,0,0,3.36-5.83Z" style="fill:#BA68C8"></path><path d="M106.92,187.28a7.43,7.43,0,0,0,3.37,5.82l2.74,1.58a7.48,7.48,0,0,0,6.15.27c-1.58.6-2.79-.29-2.79-2.21V142.6a6.94,6.94,0,0,1,1-3.31l-9.46-5.47a6.88,6.88,0,0,0-1,3.32Z" style="opacity:0.2"></path><path d="M165,113.47c-.39-1.43-1.69-1.89-3.25-1l-42,24.3a6.69,6.69,0,0,0-2.37,2.51l-9.46-5.46a6.69,6.69,0,0,1,2.37-2.51l42-24.3a7.48,7.48,0,0,1,6.74,0l2.74,1.58A7.4,7.4,0,0,1,165,113.47Z" style="fill:#fff;opacity:0.30000000000000004"></path></g><path id="freepik--musical-note--inject-60" d="M133,142.74,133,164.81a2.63,2.63,0,0,0-1.25.36c-2.07,1.19-3.75,4.73-3.76,7.92s1.67,4.81,3.74,3.62,3.75-4.73,3.76-7.92l.05-19.78,12.93-12.62h0l0,19.59a2.63,2.63,0,0,0-1.25.36c-2.07,1.19-3.75,4.73-3.75,7.92s1.67,4.81,3.74,3.62,3.74-4.73,3.75-7.91h0l.05-32.71Z" style="fill:#fafafa"></path></g></g></svg>