<?xml version="1.0" encoding="utf-8"?>
<!-- Generator: Adobe Illustrator 26.0.3, SVG Export Plug-In . SVG Version: 6.00 Build 0)  -->
<svg version="1.0" id="katman_1" xmlns="http://www.w3.org/2000/svg" xmlns:xlink="http://www.w3.org/1999/xlink" x="0px" y="0px"
	 viewBox="0 0 600 450" style="enable-background:new 0 0 600 450;" xml:space="preserve">
<style type="text/css">
	.st0{fill:#E63722;}
</style>
<path class="st0" d="M122.2,171.6c0.5,0.1,0.9,0.1,1.4,0.2c3.1,0.2,6.2,0.6,9.2,1.3c3.3,0.7,6.6,1.7,9.7,2.9
	c3.3,1.3,6.4,2.8,9.4,4.6c3.2,1.9,6.3,4.1,9.1,6.6c3.5,3.1,6.6,6.5,9.4,10.2c2,2.7,3.8,5.6,5.3,8.7c2.4,4.9,4.2,10,5.3,15.4
	c0.5,2.5,0.9,5.1,1,7.7c0,0.9,0.1,1.8,0.1,2.7c0,0.6,0.1,1.3,0.1,1.9c-0.1,3.5-0.3,7-0.9,10.5c-0.6,3.2-1.4,6.4-2.5,9.5
	c-2.6,7.4-6.6,14.3-11.8,20.2c-4.9,5.6-10.7,10.3-17.2,13.9c-5.8,3.2-12,5.4-18.5,6.6c-2.2,0.4-4.5,0.8-6.8,0.9
	c-0.6,0-1.3,0.1-1.9,0.1c-0.1,0-0.3,0.1-0.4,0.1h-5.9c-0.1,0-0.2-0.1-0.3-0.1c-2.4-0.1-4.9-0.4-7.3-0.8c-3.6-0.6-7.2-1.5-10.7-2.7
	c-5.5-1.9-10.7-4.6-15.4-7.9c-3.8-2.7-7.3-5.8-10.4-9.2c-2.3-2.5-4.3-5.2-6.1-8c-2.6-4-4.7-8.4-6.3-12.9c-1.3-3.7-2.3-7.4-2.8-11.3
	c-0.3-1.9-0.4-3.8-0.6-5.7c0-0.2-0.1-0.3-0.1-0.5v-5.7c0-0.1,0.1-0.3,0.1-0.4c0.1-1.3,0.2-2.6,0.4-3.9c0.3-3.2,1-6.3,1.8-9.3
	c1-3.5,2.2-6.9,3.8-10.1c1.5-3.1,3.2-6,5.1-8.8c1.9-2.8,4.1-5.4,6.5-7.8c2.5-2.6,5.3-5,8.3-7.1c3.5-2.5,7.3-4.7,11.3-6.4
	c3.7-1.6,7.6-2.9,11.5-3.8c3.2-0.7,6.5-1.2,9.8-1.4c0.5,0,0.9-0.1,1.4-0.2L122.2,171.6z M176.4,238.6c0.1-20.1-6.1-34-15.7-43.9
	c-11-11.2-24.5-17.2-40.3-17.5c-15.7-0.3-29.4,4.9-40.7,15.7c-11.4,10.8-17.3,24-17.7,39.6c-0.3,15.5,5,29,15.9,40.1
	c10.9,11.2,24.4,17.1,40.2,17.4c15.6,0.3,29.3-4.9,40.6-15.6C170.5,263.3,176.2,249.6,176.4,238.6z"/>
<path class="st0" d="M543.9,258.9c0,0.2-0.1,0.4-0.1,0.6c-0.1,1.7-0.5,3.3-1.2,4.8c-1.3,2.9-3.6,4.6-6.6,5.5
	c-1.7,0.5-3.5,0.7-5.2,0.7c-1.9,0-3.9,0-5.8,0c-1.6,0-3.3-0.2-4.9-0.6c-4.1-1.1-6.6-3.7-7.6-7.7c-0.4-1.6-0.6-3.3-0.6-4.9
	c0-4.9,0-9.8,0-14.6V242h10.9v0.8c0,4.7,0,9.3,0,14c0,0.4,0,0.8,0.1,1.3c0.3,1.7,1.3,2.7,3.1,2.9c1.2,0.1,2.4,0.1,3.6,0
	c1.9-0.2,3-1.4,3.2-3.2c0-0.4,0-0.7,0-1.1c0-3.2,0-6.3,0-9.5c0-0.5,0-1-0.1-1.5c-0.2-1.4-0.7-2.6-1.8-3.6c-0.5-0.4-1-0.8-1.5-1.2
	c-3.8-2.7-7.6-5.5-11.4-8.2c-1.1-0.8-2.2-1.7-3.1-2.7c-1.7-1.9-2.6-4.1-2.9-6.5c-0.1-1.1-0.2-2.2-0.2-3.3c0-3.2,0-6.5,0-9.7
	c0-1.6,0.1-3.3,0.6-4.9c1.1-4.4,4-7.1,8.5-8.1c1.5-0.3,3-0.5,4.4-0.5c2.2,0,4.5,0,6.7,0.1c1.4,0,2.8,0.3,4.2,0.8
	c3.6,1.2,5.9,3.8,6.9,7.4c0.4,1.5,0.6,3.1,0.6,4.6c0,4.3,0,8.7,0,13v0.5c-0.5,0.1-10.1,0.2-11,0.1v-0.7c0-3.9,0-7.8,0-11.7
	c0-0.4,0-0.8-0.1-1.3c-0.2-1.6-1.1-2.7-2.8-3c-1.3-0.2-2.7-0.2-4.1,0c-1.6,0.3-2.6,1.3-2.8,3c0,0.4-0.1,0.8-0.1,1.1
	c0,2.6,0,5.3,0,7.9c0,0.5,0,1,0.1,1.6c0.2,1.3,0.9,2.6,1.9,3.5c0.4,0.3,0.8,0.6,1.2,0.9c3.8,2.7,7.6,5.5,11.4,8.2
	c1,0.7,1.9,1.5,2.7,2.3c2.2,2.1,3.3,4.7,3.4,7.7c0,0.2,0.1,0.4,0.1,0.5V258.9z"/>
<path class="st0" d="M500.5,270h-11.2c0-0.3,0-0.5,0-0.8c0-7.8,0-15.6,0-23.3c0-0.4,0-0.8,0-1.1c-0.2-2.3-1.5-3.6-3.9-3.7
	c-1.1-0.1-2.3,0-3.4,0c-0.8,0-1.5,0-2.4,0c-0.1,1.6,0,3.3,0,4.9c0,1.6,0,3.2,0,4.8v19.3h-11.2v-72.2c0.2,0,0.3,0,0.5,0
	c6.1,0,12.3,0,18.4,0c1.7,0,3.4,0.2,5,0.7c4,1.2,6.5,3.8,7.6,7.7c0.4,1.6,0.6,3.2,0.6,4.8c0,4.7,0,9.4,0,14.1c0,1.7-0.2,3.4-0.7,5
	c-0.8,2.5-2.4,4.4-4.8,5.6c-0.2,0.1-0.5,0.2-0.8,0.4l0.9,0.3c1.1,0.4,2.1,0.9,3,1.8c1.2,1.1,1.8,2.5,2.1,4.1
	c0.2,1.1,0.3,2.2,0.3,3.4c0,8,0,15.9,0,23.9C500.5,269.5,500.5,269.7,500.5,270z M479.6,207.5v23.8c0.1,0,0.1,0,0.2,0.1
	c1.9,0,3.8,0,5.6,0c2-0.1,3.3-1.3,3.6-3.1c0.1-0.5,0.1-1,0.1-1.4c0-5,0-10,0-14.9c0-0.5,0-0.9-0.1-1.4c-0.3-1.6-1.3-2.6-2.9-2.8
	c-0.4-0.1-0.9-0.1-1.3-0.1c-1.6,0-3.1,0-4.7,0C480,207.5,479.8,207.5,479.6,207.5z"/>
<path class="st0" d="M347.6,242h10.8c0,0.2,0,0.5,0,0.7c0,4.5,0,9,0,13.6c0,0.5,0,1,0.1,1.5c0.2,1.8,1.3,2.9,3.1,3.1
	c1.2,0.1,2.4,0.1,3.6,0c1.8-0.2,2.8-1.2,3.1-3c0.1-0.4,0.1-0.8,0.1-1.2c0-3.2,0-6.5,0-9.7c0-0.5,0-1.1-0.1-1.6
	c-0.2-1.2-0.7-2.2-1.5-3c-0.5-0.5-1.1-1-1.6-1.4c-3.8-2.7-7.6-5.4-11.3-8.2c-1-0.7-2-1.5-2.9-2.4c-2-2-3.1-4.5-3.3-7.3
	c-0.1-1-0.1-2-0.1-3c0-3.3,0-6.6,0-9.8c0-1.6,0.2-3.3,0.6-4.9c1.1-4.1,3.8-6.6,7.9-7.7c1.6-0.4,3.3-0.6,4.9-0.6c2.3,0,4.5,0,6.8,0.1
	c1.4,0,2.8,0.3,4.2,0.8c3.5,1.2,5.8,3.6,6.8,7.1c0.4,1.5,0.7,3.1,0.7,4.7c0,4.4,0,8.8,0,13.2c0,0.1,0,0.3,0,0.5h-11v-0.8
	c0-3.9,0-7.9,0-11.8c0-0.5,0-0.9-0.1-1.4c-0.3-1.5-1.1-2.4-2.7-2.7c-1.3-0.2-2.6-0.3-3.9,0c-1.9,0.3-2.9,1.4-3,3.3
	c-0.1,3.2-0.1,6.5,0,9.7c0.1,2,1.1,3.5,2.7,4.7c1.8,1.3,3.6,2.6,5.4,3.9l6.4,4.6c1.2,0.9,2.3,1.8,3.3,2.9c1.6,1.7,2.6,3.9,2.9,6.2
	c0.1,1.2,0.2,2.3,0.2,3.5c0,4,0,8,0,12c0,1.6-0.2,3.2-0.6,4.7c-1.1,4.3-4,6.9-8.3,7.9c-1.5,0.3-2.9,0.5-4.4,0.5c-1.9,0-3.7,0-5.6,0
	c-1.7,0-3.4-0.2-5-0.6c-4.1-1.1-6.7-3.8-7.7-7.9c-0.3-1.4-0.5-2.9-0.5-4.3c0-5,0-10.1,0-15.1C347.6,242.4,347.6,242.2,347.6,242z"/>
<path class="st0" d="M458.5,270h-11.1c-0.5-3.7-1-7.5-1.5-11.3h-11.6c-0.5,3.7-0.9,7.5-1.4,11.2c-0.5,0.1-9.4,0.2-10.4,0
	c1.1-8,2.3-16.1,3.5-24.1c1.2-8,2.3-16,3.5-24.1c1.2-8,2.3-16.1,3.5-24.2h14.9C451.4,221.7,454.9,245.8,458.5,270z M444.6,248.8
	c-1.5-11.9-3-23.7-4.4-35.6h-0.1c-1.5,11.8-3,23.7-4.5,35.6L444.6,248.8z"/>
<path class="st0" d="M196,270v-72.3c0.2,0,0.3,0,0.5-0.1c5.1,0,10.2,0,15.3,0c1.7,0,3.4,0.2,5,0.7c4,1.1,6.4,3.7,7.5,7.6
	c0.4,1.5,0.6,3.1,0.6,4.7c0,3.8,0,7.7,0,11.5c0,1.7-0.2,3.5-0.8,5.2c-0.8,2.5-2.5,4.3-4.9,5.4c-0.2,0.1-0.3,0.2-0.6,0.3
	c0.2,0.1,0.3,0.2,0.4,0.2c3.3,1.4,5.1,4,5.7,7.4c0.2,1.1,0.3,2.2,0.3,3.4c0,4.3,0,8.6,0,12.9c0,2.1-0.3,4.2-1.1,6.2
	c-1.3,3.3-3.8,5.3-7.3,6.2c-1.6,0.4-3.2,0.6-4.9,0.6c-5.1,0-10.2,0-15.4,0C196.3,270,196.2,270,196,270z M204.3,262.5h0.8
	c2,0,4,0,5.9,0c0.6,0,1.1,0,1.7-0.1c2.2-0.3,3.5-1.5,3.9-3.6c0.1-0.6,0.2-1.2,0.2-1.9c0-4.7,0-9.3,0-14c0-0.9-0.1-1.8-0.3-2.7
	c-0.5-1.6-1.5-2.7-3.2-3.2c-0.8-0.2-1.6-0.3-2.4-0.4c-2,0-4.1,0-6.1,0c-0.2,0-0.3,0-0.5,0.1L204.3,262.5z M204.3,229.4h0.6
	c1.8,0,3.6,0,5.4,0c0.6,0,1.2,0,1.8-0.1c2.4-0.3,3.9-1.6,4.4-3.9c0.1-0.7,0.2-1.5,0.2-2.2c0-4.1,0-8.2,0-12.3c0-0.6,0-1.2-0.1-1.8
	c-0.3-2-1.5-3.3-3.5-3.7c-0.6-0.1-1.2-0.2-1.8-0.2c-2,0-4,0-6.1,0h-0.7V229.4z"/>
<path class="st0" d="M282,197.5h10.7l11.3,72.4c-0.5,0.1-7.2,0.2-8.3,0.1c-0.6-4-1.2-8-1.8-12h-13.5c-0.6,4-1.1,8-1.7,12h-8
	C270.7,269.4,281.4,200.1,282,197.5z M292.9,250.4c-1.9-13.2-3.7-26.3-5.6-39.4h-0.1c-1.9,13.1-3.8,26.2-5.7,39.4L292.9,250.4z"/>
<path class="st0" d="M419.1,197.7v10h-10c0,1.9,0,3.8,0,5.7c0,1.9,0,3.7,0,5.6v51h-11.2v-62.2H388c-0.2-0.5-0.2-9.2-0.1-10
	L419.1,197.7z"/>
<path class="st0" d="M261,197.7v7.6h-14.5c-0.2,0.5-0.2,23-0.1,24h13.9c0.1,0.5,0.2,6.5,0.1,7.5c-2.3,0-4.7,0-7,0c-2.3,0-4.7,0-7,0
	v25.4c0,0,0,0,0,0c0,0,0,0,0,0c0,0,0.1,0,0.1,0c0,0,0.1,0,0.1,0l14.3,0c0,0,0,0,0.1,0c0.1,0.4,0.2,6.2,0.1,7.5
	c-0.4,0.1-22.3,0.2-23.2,0v-72.2H261z"/>
<path class="st0" d="M327.3,270h-8.4v-64.6c-0.8-0.1-1.5,0-2.2,0c-0.7,0-1.5,0-2.2,0H308c-0.2-0.5-0.2-7,0-7.6h30.3v7.6h-10.9
	c-0.1,1.8,0,3.6,0,5.4c0,1.8,0,3.6,0,5.4L327.3,270L327.3,270z"/>
<path class="st0" d="M144.1,233.6l3.2,3.1c0.5,0.5,0.9,0.9,1.4,1.4c0.3,0.3,0.4,0.6,0.4,1c0,1.3,0,2.6,0,4c0,4.8,0,9.6,0,14.4
	c0,0.4-0.1,0.7-0.4,1c-1.4,1.3-2.8,2.7-4.1,4.1c-0.3,0.3-0.5,0.4-0.9,0.4c-17.8,0-35.6,0-53.4,0c-0.2,0-0.4,0-0.6,0v-58.6
	c0.3,0,0.5,0,0.8,0h23.5c9.8,0,19.7,0,29.5,0c0.5,0,0.8,0.1,1.2,0.5c1.4,1.4,2.7,2.7,4.1,4.1c0.1,0.1,0.2,0.2,0.3,0.4
	c0.1,0.1,0.1,0.3,0.1,0.5c0,6.2,0,12.4,0,18.7c0,0.3-0.1,0.6-0.4,0.8c-1.4,1.3-2.7,2.6-4,4C144.5,233.2,144.3,233.4,144.1,233.6z
	 M136.6,253.1c0-0.1,0-0.2,0.1-0.2c0-3.9,0-7.7,0-11.6c0-0.3-0.1-0.4-0.3-0.6c-0.6-0.6-1.2-1.1-1.8-1.7c-0.3-0.3-0.5-0.4-0.9-0.4
	c-2.4,0-4.8,0-7.2,0c-0.2,0-0.4,0-0.7,0c0.1,0.3,0.1,0.5,0.2,0.8c0.9,2.6,1.8,5.3,2.7,7.9c0,0.1,0.1,0.3,0.1,0.5l-10.2-6.3
	l-10.2,6.3l-0.1-0.1c1.3-3.8,2.5-7.5,3.8-11.3l-10.1-7.5v24.2L136.6,253.1z M102,228.7c0.3,0,0.5,0,0.7,0c3.8,0,7.6,0,11.4,0
	c0.6,0,0.6,0,0.8-0.6c1.1-3.4,2.3-6.8,3.4-10.2c0.1-0.2,0.1-0.4,0.3-0.7c1.3,3.9,2.6,7.7,3.9,11.4c0.1,0,0.2,0,0.3,0
	c3.7,0,7.4,0,11.1,0c0.3,0,0.5-0.1,0.7-0.3c0.6-0.6,1.2-1.2,1.8-1.8c0.1-0.1,0.2-0.2,0.3-0.4c0.1-0.2,0.1-0.3,0.1-0.5
	c0-3.7,0-7.4,0-11.1c0-0.2,0-0.4,0-0.5c-0.1,0-0.1-0.1-0.2-0.1c-11.3,0-22.6,0-33.9,0c-0.1,0-0.2,0-0.3,0c0,0,0,0-0.1,0
	c0,0,0,0-0.1,0.1L102,228.7z"/>
</svg>
